<?xml version="1.0" encoding="utf-8"?>
<!-- Generator: Adobe Illustrator 25.2.3, SVG Export Plug-In . SVG Version: 6.00 Build 0)  -->
<svg version="1.1" id="Warstwa_1" xmlns="http://www.w3.org/2000/svg" xmlns:xlink="http://www.w3.org/1999/xlink" x="0px" y="0px"
	 viewBox="0 0 283.5 283.5" style="enable-background:new 0 0 283.5 283.5;" xml:space="preserve">
<style type="text/css">
	.st0{fill:#B3B3B3;}
	.st1{fill:#FFFFFF;}
	.st2{fill:#666666;}
	.st3{fill:#999999;}
	.st4{fill:#707A8F;}
	.st5{fill:#29ABE2;}
	.st6{fill:#ED1C24;}
	.st7{fill:#36ABE2;}
	.st8{fill:#97A39E;}
	.st9{fill:#CF1C24;}
	.st10{fill:#6D7370;}
	.st11{fill:#FCEE21;}
	.st12{fill:#FCD121;}
	.st13{fill:#22B573;}
	.st14{fill:#229C73;}
</style>
<g>
	<g id="XMLID_1_">
		<g>
			<path d="M110,70.3l1.7,0.6c-0.1,0.3-0.2,0.6-0.4,1C110.8,71.4,110.4,70.8,110,70.3z"/>
			<path d="M110,70.3c0.4,0.5,0.9,1.1,1.3,1.6c-0.2,0.6-0.5,1.3-0.8,1.9c-0.4-0.5-0.9-1-1.3-1.6C109.5,71.5,109.8,70.9,110,70.3z"/>
			<path d="M108.3,69.7l1.7,0.6l-1.8-0.5C108.2,69.8,108.3,69.7,108.3,69.7z"/>
			<path d="M108.2,69.8l1.8,0.5c-0.2,0.6-0.5,1.2-0.8,1.9c-0.1-0.1-0.2-0.2-0.3-0.3l-1.4-0.4C107.8,71,108,70.4,108.2,69.8z"/>
			<path class="st0" d="M94.8,66.3l13.4,3.5c-0.2,0.6-0.4,1.1-0.7,1.7L97,68.8c-0.2-0.2-0.3-0.5-0.5-0.7
				C96,67.5,95.4,66.9,94.8,66.3z"/>
			<path class="st0" d="M104.7,77.4c-1.6,2.9-2.7,4.5-3.4,5.4c-0.1-0.8-0.3-1.9-0.5-3.2c-0.2-1.1-0.3-1.9-0.4-2.5
				c-0.3-1.8-0.3-2.4-0.7-3.5c-0.3-1-1.1-2.8-2.6-4.8l10.5,2.7C106.7,73.5,105.7,75.5,104.7,77.4z"/>
			<polygon points="127.8,140.3 129.3,143.6 79.7,166.9 78.1,163.7 			"/>
			<rect x="66.6" y="131.2" transform="matrix(0.9052 -0.4249 0.4249 0.9052 -47.6091 52.5479)" width="54.8" height="3.6"/>
			<polygon points="108.6,99.5 110.1,102.8 60.5,126.1 59,122.8 			"/>
			<path d="M100.3,85.5c-0.3-0.1-0.6-0.5-1.4-5.7c-0.6-4-0.6-4.4-1-5.7c-0.2-0.7-1-2.8-2.8-4.9c-0.4-0.5-0.8-0.9-1.2-1.3l3.1,0.8
				c1.5,1.9,2.2,3.8,2.6,4.8c0.4,1.1,0.4,1.7,0.7,3.5c0.1,0.6,0.2,1.5,0.4,2.5c0.2,1.4,0.4,2.4,0.5,3.2c0.7-0.9,1.8-2.5,3.4-5.4
				c1.1-1.9,2.1-3.9,2.9-5.9l1.4,0.4c0.1,0.1,0.2,0.2,0.3,0.3c-0.7,1.7-1.7,3.8-3,6.1C104.8,80.7,101.8,86,100.3,85.5z"/>
			<path d="M96.8,77.5c-0.3-1.8-0.3-2.1-0.6-2.8c-0.3-0.9-1-2.6-2.5-4.3c-1.2-1.5-2.8-2.7-4.6-3.6l0.2-0.1l4.6,1.2
				c0.4,0.4,0.8,0.8,1.2,1.3c1.8,2.1,2.6,4.2,2.8,4.9c0.4,1.2,0.4,1.7,1,5.7c0.8,5.2,1,5.6,1.4,5.7c1.5,0.5,4.6-4.8,6-7.2
				c1.3-2.3,2.3-4.4,3-6.1c0.4,0.5,0.9,1,1.3,1.6c-0.8,1.8-1.7,3.7-2.7,5.4c-2.5,4.4-4.4,7.1-6.2,7.9c-0.6,0.3-1.3,0.3-1.9,0.1
				c-1.5-0.5-1.8-1.7-2.6-7.2C97,79,96.9,78.2,96.8,77.5z"/>
			<path d="M93.9,68c-1.8-1.7-3.6-2.6-4.7-3.1l5.6,1.5c0.6,0.5,1.2,1.1,1.7,1.8c0.2,0.2,0.4,0.5,0.5,0.7L93.9,68z"/>
			<path d="M89.2,64.9l0.7-1.7c1.8,0.8,3.4,1.8,4.9,3.1L89.2,64.9z"/>
			<path d="M89.2,64.9c1.2,0.5,2.9,1.4,4.7,3.1l-4.6-1.2l-0.2,0.1c-0.2-0.1-0.5-0.2-0.7-0.3L89.2,64.9L89.2,64.9z"/>
			<rect x="45.3" y="90.9" transform="matrix(0.9052 -0.4249 0.4249 0.9052 -32.6406 39.0744)" width="52" height="3.6"/>
			<path class="st1" d="M45.2,113.5l-5.1-9.3l-9.3,5.1l5.1,9.3L45.2,113.5z M95.6,83.3L94.1,80L47,102.2l1.5,3.3L95.6,83.3z
				 M96.2,74.7c0.2,0.7,0.3,1,0.6,2.8c0.1,0.6,0.2,1.5,0.4,2.5c0.8,5.5,1.1,6.7,2.6,7.2c0.7,0.2,1.3,0.2,1.9-0.1
				c1.8-0.8,3.6-3.5,6.2-7.9c1-1.8,1.9-3.6,2.7-5.4c16.8,20.9,30.6,43.8,41.1,68.2c5.9,13.9,10.8,28.3,14.6,43l-89.9,43.9
				c-0.6-1.6-1.1-3.1-1.7-4.7C59.2,181.3,39.2,139.5,15,99.9l74.2-33.1c1.8,0.9,3.3,2.1,4.6,3.6C95.2,72.1,95.9,73.9,96.2,74.7z
				 M67,151.3l-5.1-9.3l-9.3,5.1l5.1,9.3L67,151.3z M76.6,172.8l-5.1-9.3l-9.3,5.1l5.1,9.3L76.6,172.8z M56.8,132.8l-5.1-9.3
				l-9.3,5.1l5.1,9.3L56.8,132.8z M129.3,143.6l-1.5-3.3l-49.6,23.3l1.5,3.3L129.3,143.6z M119.6,123l-1.5-3.3L68.4,143l1.5,3.3
				L119.6,123z M110.1,102.8l-1.5-3.3L59,122.8l1.5,3.3L110.1,102.8z"/>
			<rect x="65.8" y="167.2" transform="matrix(0.8745 -0.485 0.485 0.8745 -74.1048 55.0382)" class="st0" width="7" height="7"/>
			<polygon class="st0" points="61.1,144.5 64.5,150.6 58.4,154 55,147.8 			"/>
			<rect x="46.1" y="127.3" transform="matrix(0.8745 -0.485 0.485 0.8745 -57.2007 40.4738)" class="st0" width="7" height="7"/>
			<rect x="34.5" y="107.9" transform="matrix(0.8745 -0.485 0.485 0.8745 -49.27 32.401)" class="st0" width="7" height="7"/>
			<path d="M64.5,150.6l-3.4-6.1l-6.1,3.4l3.4,6.1L64.5,150.6z M53.8,147.5l7.7-4.3l4.3,7.7l-7.7,4.3L53.8,147.5z"/>
			<path d="M74.1,172.1l-3.4-6.1l-6.1,3.4l3.4,6.1L74.1,172.1z M67.6,176.7l-4.3-7.7l7.7-4.3l4.3,7.7L67.6,176.7z"/>
			<path d="M52.6,147.1l9.3-5.1l5.1,9.3l-9.3,5.1L52.6,147.1z M61.5,143.2l-7.7,4.3l4.3,7.7l7.7-4.3L61.5,143.2z"/>
			<path d="M62.1,168.6l9.3-5.1l5.1,9.3l-9.3,5.1L62.1,168.6z M63.4,169l4.3,7.7l7.7-4.3l-4.3-7.7L63.4,169z"/>
			<path d="M50.9,126l-6.1,3.4l3.4,6.1l6.1-3.4L50.9,126z M43.6,129l7.7-4.3l4.3,7.7l-7.7,4.3L43.6,129z"/>
			<path d="M51.3,124.8l-7.7,4.3l4.3,7.7l7.7-4.3L51.3,124.8z M51.6,123.5l5.1,9.3l-9.3,5.1l-5.1-9.3L51.6,123.5z"/>
			<path d="M39.4,106.7l-6.1,3.4l3.4,6.1l6.1-3.4L39.4,106.7z M32,109.7l7.7-4.3l4.3,7.7l-7.7,4.3L32,109.7z"/>
			<path d="M39.7,105.5l-7.7,4.3l4.3,7.7l7.7-4.3L39.7,105.5z M30.8,109.4l9.3-5.1l5.1,9.3l-9.3,5.1L30.8,109.4z"/>
			<path d="M166.1,185c-3.7-14.7-8.6-29.2-14.6-43c-10.4-24.4-24.3-47.3-41.1-68.2c0.3-0.6,0.5-1.3,0.8-1.9
				c13.6,16.8,29.3,39.9,41.9,69.4c6.9,16.1,11.7,31.2,15,44.7l-93,45.4c-0.8-2.2-1.5-4.4-2.3-6.6C56.6,179.3,36,137.5,12.3,99.1
				l76.9-34.2l-0.7,1.6c0.2,0.1,0.5,0.2,0.7,0.3L15,99.9c24.2,39.6,44.3,81.4,59.6,124.3c0.6,1.6,1.1,3.1,1.7,4.7L166.1,185z"/>
			<path d="M89.1,63l21.9,5.7l0.4,0.4c17.9,21.8,32.5,45.8,43.5,71.4c6.2,14.5,11.3,29.6,15.1,45l0.4,1.4l-96.1,46.9l-0.7-1.9
				c-0.8-2.2-1.5-4.4-2.3-6.6C55.7,182.1,35.4,140,10.8,100l-1.1-1.7L89.1,63z M89.9,63.2l-0.7,1.7l0,0L12.3,99.1
				c23.6,38.4,44.2,80.2,60.6,125.7c0.8,2.2,1.6,4.4,2.3,6.6l93-45.4c-3.3-13.5-8.1-28.6-15-44.7c-12.7-29.6-28.3-52.6-41.9-69.4
				c0.1-0.3,0.3-0.6,0.4-1l-1.7-0.6l-1.7-0.6c0,0.1,0,0.1-0.1,0.2l-13.4-3.5C93.4,65,91.7,64,89.9,63.2z"/>
		</g>
	</g>
</g>
<g>
	<g id="XMLID_3_">
		<g>
			<g>
				<g>
					<g>
						<path class="st2" d="M272.4,88.6l-30.8,125.9c-1.6,6.6-8.2,10.6-14.8,8.9l-90.7-23c-6.6-1.7-10.6-8.3-8.9-14.9l30.7-125.9
							c1.6-6.6,8.2-10.6,14.8-8.9l90.7,23C269.8,75.3,273.9,81.9,272.4,88.6z M240.8,214.3l30.7-125.9c1.4-6.1-2.2-12.2-8.3-13.9
							l-21-5.3l-0.8-0.4l-0.2,0.3l-68.8-17.5c-6-1.6-12.2,2.2-13.7,8.2L128,185.7c-1.4,6.1,2.2,12.2,8.3,13.9l20.4,5.2l0.7,0.5
							l0.2-0.3l69.4,17.7C233.1,224.1,239.2,220.4,240.8,214.3z"/>
					</g>
				</g>
			</g>
			<g>
				<g>
					<g>
						<path class="st2" d="M271.5,88.3l-30.7,125.9c-1.5,6.1-7.7,9.8-13.8,8.2l-69.4-17.6l0.5-0.8l69.1,17.6
							c5.7,1.3,11.2-2,12.7-7.7L270.6,88c1.4-5.7-2.1-11.4-7.7-12.8l-20.3-5.1l0.3-0.5l-0.7-0.5l21,5.3
							C269.3,76,272.9,82.2,271.5,88.3z"/>
					</g>
				</g>
			</g>
			<g>
				<g>
					<g>
						<path class="st3" d="M270.7,88.1L240,214c-1.4,5.7-7,9-12.7,7.7L158.2,204l8.5-13.4c6.9,0.9,13.7-3.6,15.5-10.6l3.2-13.5
							c0.5-2,0.5-4,0.2-5.8l25.8-41c-0.2,0.5-0.3,1.1-0.5,1.6l-3.2,13.5c-1.9,7.7,2.8,15.4,10.3,17.2l13.5,3.4
							c7.6,1.9,15.1-2.7,17-10.3l3.2-13.5c1.9-7.7-2.8-15.4-10.3-17.2l-13.5-3.4c-5-1.3-10.1,0.4-13.6,3.9l11.1-17.6l31.7,8.1
							l0.2-0.9l0.9,0.2c1.9-7.7-1.7-15-7.9-16.7L234,83.9l8.8-13.9l20.3,5.1C268.6,76.7,272.1,82.4,270.7,88.1z M236.8,194.2
							l3.2-13.5c1.9-7.7-2.8-15.4-10.3-17.2l-13.5-3.5c-7.6-1.9-15.1,2.7-17,10.3l-3.2,13.5c-1.9,7.7,2.8,15.4,10.3,17.2l13.5,3.5
							C227.4,206.4,235,201.7,236.8,194.2z"/>
					</g>
				</g>
			</g>
			<g>
				<g>
					<g>
						<path class="st2" d="M240.1,180.7l-3.2,13.5c-1.9,7.6-9.5,12.1-17,10.3l-13.5-3.4c-7.6-1.9-12.1-9.7-10.3-17.2l3.2-13.5
							c1.9-7.6,9.5-12.1,17-10.3l13.5,3.4C237.4,165.4,241.9,173.1,240.1,180.7z M236,193.9l3.2-13.5c1.8-7.1-2.6-14.3-9.7-16.1
							l-4.1-1.1l-9.2-2.3c-7.1-1.8-14.2,2.5-16,9.6L197,184c-1.8,7.1,2.6,14.3,9.7,16.2l13.5,3.4C227.1,205.4,234.2,201,236,193.9z"
							/>
					</g>
				</g>
			</g>
			<g>
				<g>
					<g>
						<path class="st2" d="M251.6,131.8l-3.2,13.5c-1.9,7.6-9.5,12.1-17,10.3l-13.5-3.5c-7.6-1.9-12.1-9.7-10.3-17.2l3.2-13.5
							c0.1-0.4,0.3-1.1,0.5-1.6l3.1-4.9c3.3-3.4,8.6-5.1,13.6-3.9l13.5,3.5C248.8,116.5,253.5,124.2,251.6,131.8z M247.4,145.1
							l3.2-13.5c1.8-7.1-2.6-14.3-9.7-16.1l-13.5-3.4c-7.1-1.8-14.2,2.5-16,9.6l-3.2,13.5c-1.8,7.1,2.6,14.3,9.7,16.2l13.5,3.5
							C238.6,156.5,245.7,152.2,247.4,145.1z"/>
					</g>
				</g>
			</g>
			<g>
				<g>
					<g>
						<path class="st4" d="M258.2,104.8l-0.9-0.2l0.2-0.9l0,0c1.3-6.8-2-13.2-7.6-14.8l-16.6-4.1l0.4-0.8l16.4,4.1
							C256.4,89.8,259.9,97.1,258.2,104.8z"/>
					</g>
				</g>
			</g>
			<g>
				<g>
					<g>
						<path class="st2" d="M224.9,164l-9-2.2c-6.7-1.7-13.3,2.3-14.9,9l-3.2,13.5c-1.4,5.9,1.4,11.8,6.8,14.2
							c0.7,0.4,1.5,0.7,2.2,0.9l13.5,3.4c6.7,1.7,13.2-2.3,14.9-9l3.2-13.5c1.6-6.7-2.3-13.5-9-15.1L224.9,164z M225.4,163.2
							l4.1,1.1c7.1,1.8,11.3,9,9.7,16.1l-3.2,13.5c-1.8,7.1-8.9,11.5-15.9,9.6l-13.5-3.5c-7.1-1.8-11.3-9.1-9.7-16.2l3.2-13.5
							c1.8-7.1,8.9-11.5,16-9.6L225.4,163.2z"/>
					</g>
				</g>
			</g>
			<g>
				<g>
					<g>
						<path class="st2" d="M250.8,131.6l-3.2,13.5c-1.8,7.1-8.9,11.5-16,9.6l-13.5-3.5c-7.1-1.8-11.5-9-9.7-16.2l3.2-13.5
							c1.8-7.1,8.9-11.4,16-9.6l13.5,3.4C248.1,117.3,252.5,124.5,250.8,131.6z M246.6,144.9l3.2-13.5c1.6-6.7-2.5-13.5-9.1-15.1
							l-10.1-2.6l-0.8-0.5l-0.1,0.2l-2.5-0.6c-6.7-1.7-13.4,2.3-14.9,9l-3.2,13.5c-0.9,3.6-0.1,7.1,1.8,9.9l-0.2,0.3l0.8,0.4
							c1.7,2.1,4,3.7,6.8,4.5l13.5,3.4C238.3,155.6,245,151.5,246.6,144.9z"/>
					</g>
				</g>
			</g>
			<g>
				<g>
					<g>
						<polygon class="st2" points="257.3,104.6 257.1,105.4 225.4,97.4 225.9,96.6 256.5,104.4 						"/>
					</g>
				</g>
			</g>
			<g>
				<g>
					<g>
						<path class="st2" d="M257.5,103.7l-0.2,0.9C257.4,104.3,257.5,104,257.5,103.7L257.5,103.7z"/>
					</g>
				</g>
			</g>
			<g>
				<g>
					<g>
						<path class="st2" d="M257.3,104.6l-0.9-0.2c0.1-0.3,0.1-0.6,0.2-0.9l0.9,0.2C257.5,104,257.4,104.3,257.3,104.6z"/>
					</g>
				</g>
			</g>
			<g>
				<g>
					<g>
						<path class="st4" d="M257.5,103.7l-0.9-0.2c0.4-2.2,0.3-4.5-0.2-6.5l0,0c-1-3.6-3.3-6.3-6.7-7.2l-16.9-4.3l0.5-0.8L250,89
							C255.5,90.5,258.8,96.9,257.5,103.7z"/>
					</g>
				</g>
			</g>
			<g>
				<g>
					<g>
						<path class="st5" d="M238.4,180.2l-3.2,13.5c-1.6,6.7-8.3,10.7-14.9,9l-13.5-3.4c-0.8-0.2-1.6-0.5-2.2-0.9l20.5-34.5l4.4,1.1
							C236,166.8,240.1,173.6,238.4,180.2z"/>
					</g>
				</g>
			</g>
			<g>
				<g>
					<g>
						<path class="st6" d="M249.9,131.3l-3.2,13.5c-1.6,6.7-8.3,10.7-14.9,9l-13.5-3.4c-2.8-0.7-5-2.2-6.8-4.4l0.8,0.4l19.2-32.4
							l-0.7-0.4l10.1,2.6C247.4,117.9,251.6,124.7,249.9,131.3z"/>
					</g>
				</g>
			</g>
			<g>
				<g>
					<g>
						<path class="st2" d="M256.5,104.4l-30.6-7.8l0.4-0.8l30.3,7.7C256.6,103.8,256.5,104.1,256.5,104.4z"/>
					</g>
				</g>
			</g>
			<g>
				<g>
					<g>
						<path class="st2" d="M256.6,103.5l-30.3-7.7l3.3-5.5l26.6,6.7l0,0C257,99,257.1,101.2,256.6,103.5z"/>
					</g>
				</g>
			</g>
			<g>
				<g>
					<g>
						<path class="st2" d="M256.4,97.1l-26.6-6.7l3.1-4.9l16.9,4.3C253,90.8,255.4,93.5,256.4,97.1z"/>
					</g>
				</g>
			</g>
			<g>
				<g>
					<g>
						<path class="st7" d="M224.9,164l-20.5,34.5c-5.2-2.5-8.1-8.5-6.8-14.2l3.2-13.5c1.6-6.7,8.3-10.7,14.9-9L224.9,164z"/>
					</g>
				</g>
			</g>
			<g>
				<g>
					<g>
						<polygon class="st2" points="242.9,69.5 242.7,70.1 240.9,69.7 241.2,68.9 242.2,69.2 						"/>
					</g>
				</g>
			</g>
			<g>
				<g>
					<g>
						<polygon class="st8" points="242.7,70.1 233.8,84 232,83.6 240.9,69.7 						"/>
					</g>
				</g>
			</g>
			<g>
				<g>
					<g>
						<path class="st9" d="M231.5,114.1l-19.2,32.4l-0.8-0.5c-0.2-0.2-0.4-0.5-0.6-0.8l18.9-31.8l0.9,0.2L231.5,114.1z"/>
					</g>
				</g>
			</g>
			<g>
				<g>
					<g>
						<polygon class="st2" points="242.2,69.2 241.2,68.9 241.5,68.7 						"/>
					</g>
				</g>
			</g>
			<g>
				<g>
					<g>
						<polygon class="st2" points="230.8,113.7 229.9,113.5 230,113.3 						"/>
					</g>
				</g>
			</g>
			<g>
				<g>
					<g>
						<path class="st2" d="M241.2,68.9l-0.4,0.8l-68.5-17.5c-5.7-1.4-11.2,2-12.7,7.6l-30.7,125.9c-1.4,5.7,2.1,11.3,7.6,12.8
							l19.8,5L156,204l0.7,0.5l-20.4-5.2c-6-1.6-9.8-7.7-8.3-13.9l30.7-125.9c1.4-6.1,7.6-9.8,13.7-8.2L241.2,68.9z"/>
					</g>
				</g>
			</g>
			<g>
				<g>
					<g>
						<path class="st8" d="M240.9,69.7l-8.7,13.9l-54.4-13.9c-6.2-1.6-12.8,3.2-14.7,10.9l0.9,0.2l-0.2,0.9L223.9,97l-38.8,61.6
							c-1.6-4.3-5.1-7.9-9.9-9.1l-13.5-3.4c-7.6-1.9-15.1,2.7-17,10.3l-3.2,13.5c-1.9,7.7,2.8,15.4,10.3,17.2l13.2,3.3l-8.6,13.2
							l-19.8-5c-5.7-1.3-9-7.1-7.7-12.8l30.7-125.9c1.4-5.7,7-9,12.7-7.6L240.9,69.7z M193.4,131.3l3.2-13.5
							c1.9-7.7-2.8-15.3-10.3-17.2l-13.5-3.4c-7.6-1.9-15.1,2.7-17,10.3l-3.2,13.5c-1.9,7.7,2.8,15.4,10.3,17.2l13.5,3.5
							C184,143.5,191.5,138.8,193.4,131.3z"/>
					</g>
				</g>
			</g>
			<g>
				<g>
					<g>
						<path class="st9" d="M229.9,113.5L211,145.3c-1.9-2.8-2.7-6.4-1.8-9.9l3.2-13.5c1.6-6.7,8.3-10.7,14.9-9L229.9,113.5z"/>
					</g>
				</g>
			</g>
			<g>
				<g>
					<g>
						<polygon class="st4" points="233.8,84 233.3,84.8 231.6,84.3 232,83.6 						"/>
					</g>
				</g>
			</g>
			<g>
				<g>
					<g>
						<polygon class="st4" points="233.3,84.8 232.9,85.6 231.1,85.1 231.6,84.3 						"/>
					</g>
				</g>
			</g>
			<g>
				<g>
					<g>
						<polygon class="st2" points="232.9,85.6 229.8,90.5 228,89.9 231.1,85.1 						"/>
					</g>
				</g>
			</g>
			<g>
				<g>
					<g>
						<path class="st4" d="M232,83.6l-0.5,0.8l-54.1-13.9c-5.6-1.3-11.3,2.8-13.3,9.4l0,0l-0.2,0.7c0,0.1,0,0.1-0.1,0.2l-0.9-0.2
							c1.9-7.7,8.5-12.5,14.7-10.9L232,83.6z"/>
					</g>
				</g>
			</g>
			<g>
				<g>
					<g>
						<path class="st4" d="M231.6,84.3l-0.5,0.8l-53.8-13.8c-3.3-0.9-6.9,0.6-9.5,3.6c-1.2,1.3-2.2,3.2-2.9,5.2l-0.9-0.2
							c2-6.7,7.8-10.8,13.4-9.4L231.6,84.3z"/>
					</g>
				</g>
			</g>
			<g>
				<g>
					<g>
						<polygon class="st2" points="229.8,90.5 226.4,95.8 224.7,95.4 228,89.9 						"/>
					</g>
				</g>
			</g>
			<g>
				<g>
					<g>
						<path class="st10" d="M231.1,85.1L228,90l-60.3-15c2.5-3,6-4.3,9.5-3.6L231.1,85.1z"/>
					</g>
				</g>
			</g>
			<g>
				<g>
					<g>
						<path class="st10" d="M228,89.9l-3.3,5.5l-59.8-15.3c0.6-2.1,1.6-3.8,2.9-5.2L228,89.9z"/>
					</g>
				</g>
			</g>
			<g>
				<g>
					<g>
						<polygon class="st2" points="226.4,95.8 225.9,96.6 224.1,96.2 224.7,95.4 						"/>
					</g>
				</g>
			</g>
			<g>
				<g>
					<g>
						<polygon class="st2" points="225.9,96.6 225.4,97.4 223.7,96.9 224.1,96.2 						"/>
					</g>
				</g>
			</g>
			<g>
				<g>
					<g>
						<path class="st8" d="M225.4,97.4L214.3,115c-1.3,1.3-2.3,3-3.1,4.9l-25.8,40.9c-0.1-0.8-0.3-1.6-0.6-2.2L223.6,97L225.4,97.4z
							"/>
					</g>
				</g>
			</g>
			<g>
				<g>
					<g>
						<path class="st2" d="M224.7,95.4l-0.5,0.8l-59.5-15.1c0.1-0.3,0.1-0.6,0.2-0.8L224.7,95.4z"/>
					</g>
				</g>
			</g>
			<g>
				<g>
					<g>
						<polygon class="st2" points="224.1,96.2 223.7,96.9 163.6,81.7 163.7,80.8 164.6,80.9 						"/>
					</g>
				</g>
			</g>
			<g>
				<g>
					<g>
						<path class="st2" d="M211.5,146.1l-0.8-0.4l0.2-0.3C211.2,145.6,211.3,145.7,211.5,146.1z"/>
					</g>
				</g>
			</g>
			<g>
				<g>
					<g>
						<path class="st2" d="M214.3,115l-3.1,4.9C212,117.9,213.1,116.4,214.3,115z"/>
					</g>
				</g>
			</g>
			<g>
				<g>
					<g>
						<path class="st2" d="M185.2,166.7l-3.2,13.5c-1.7,7-8.5,11.5-15.5,10.6l0.4-0.8l0,0l0.7,0.4l0.3-0.4c6,0.1,11.5-3.9,13.1-10
							l3.2-13.5c0.2-1,0.4-2,0.4-3l0,0l0.5-0.8l-0.5-0.4c0-0.1,0-0.3,0-0.4l0.7-1.2C185.8,162.8,185.7,164.7,185.2,166.7z"/>
					</g>
				</g>
			</g>
			<g>
				<g>
					<g>
						<path class="st2" d="M196.7,117.8l-3.2,13.5c-1.9,7.7-9.5,12.2-17,10.3l-13.5-3.5c-7.6-1.9-12.1-9.7-10.3-17.2l3.2-13.5
							c1.9-7.7,9.5-12.2,17-10.3l13.5,3.4C194,102.5,198.5,110.3,196.7,117.8z M192.5,131.2l3.2-13.5c1.8-7.1-2.6-14.4-9.7-16.1
							L172.6,98c-7.1-1.8-14.2,2.5-16,9.6l-3.2,13.5c-1.8,7.1,2.6,14.4,9.7,16.2l13.5,3.4C183.6,142.5,190.7,138.3,192.5,131.2z"/>
					</g>
				</g>
			</g>
			<g>
				<g>
					<g>
						<path class="st2" d="M184.4,166.4l-3.2,13.5c-1.5,6.1-7,10.2-13.1,10l0.5-0.9c5.5-0.1,10.3-3.9,11.7-9.4l3.2-13.5
							c0.1-0.4,0.2-0.8,0.2-1.2l1-1.6C184.8,164.5,184.6,165.5,184.4,166.4z"/>
					</g>
				</g>
			</g>
			<g>
				<g>
					<g>
						<path class="st2" d="M185.3,162.8l-0.5,0.8c0-0.4,0-0.8,0-1.1L185.3,162.8z"/>
					</g>
				</g>
			</g>
			<g>
				<g>
					<g>
						<path class="st2" d="M184.8,163.5L184.8,163.5l-1,1.6c0.1-0.6,0.1-1.2,0.1-1.8l0.6-1l0.2,0.1
							C184.8,162.8,184.8,163.1,184.8,163.5z"/>
					</g>
				</g>
			</g>
			<g>
				<g>
					<g>
						<path class="st2" d="M185.4,160.9l-0.7,1.2c-0.1-0.9-0.2-1.7-0.5-2.5l0.6-1C185.2,159.2,185.3,160.1,185.4,160.9z"/>
					</g>
				</g>
			</g>
			<g>
				<g>
					<g>
						<path class="st2" d="M195.9,117.6l-3.2,13.5c-1.8,7.1-8.9,11.5-15.9,9.6l-13.5-3.4c-7.1-1.8-11.5-9-9.7-16.2l3.2-13.5
							c1.8-7.1,8.9-11.4,16-9.6l13.5,3.4C193.3,103.2,197.6,110.5,195.9,117.6z M191.7,130.8l3.2-13.5c1.6-6.7-2.5-13.4-9-15.1l0,0
							l-0.7-0.5L185,102l-12.5-3.2c-6.7-1.7-13.4,2.3-14.9,9l-3.2,13.5c-1.3,5.5,1.2,11,5.8,13.8l-0.1,0.2l1.3,1.1l0.3-0.4
							c0.6,0.3,1.2,0.4,1.8,0.6L177,140C183.4,141.5,190.1,137.6,191.7,130.8z"/>
					</g>
				</g>
			</g>
			<g>
				<g>
					<g>
						<path class="st2" d="M184.7,162.3l-0.2-0.1l0.2-0.3C184.7,162.1,184.7,162.2,184.7,162.3z"/>
					</g>
				</g>
			</g>
			<g>
				<g>
					<g>
						<path class="st2" d="M184.7,161.9l-0.2,0.3l-0.7-0.5c-0.1-0.5-0.1-0.9-0.2-1.3l0.6-1C184.5,160.3,184.6,161.1,184.7,161.9z"/>
					</g>
				</g>
			</g>
			<g>
				<g>
					<g>
						<path class="st2" d="M184.5,162.2l-0.6,1c0-0.4,0-1-0.1-1.4L184.5,162.2z"/>
					</g>
				</g>
			</g>
			<g>
				<g>
					<g>
						<path class="st11" d="M183.5,166.3l-3.2,13.5c-1.4,5.6-6.2,9.3-11.7,9.4l15.1-24C183.7,165.5,183.6,165.9,183.5,166.3z"/>
					</g>
				</g>
			</g>
			<g>
				<g>
					<g>
						<path class="st12" d="M183.8,165.1l-15.1,24c-0.3,0-0.7,0-1,0l16.3-25.8C184,163.8,183.8,164.4,183.8,165.1z"/>
					</g>
				</g>
			</g>
			<g>
				<g>
					<g>
						<path class="st12" d="M184,163.2L167.7,189c-0.3,0-0.6-0.1-1-0.1l17.1-27.2l0,0C183.8,162.2,184,162.8,184,163.2z"/>
					</g>
				</g>
			</g>
			<g>
				<g>
					<g>
						<path class="st13" d="M195.1,117.4l-3.2,13.5c-1.6,6.7-8.3,10.7-14.9,9l-13.5-3.5c-0.6-0.2-1.2-0.4-1.8-0.6l25-33l-0.7-0.5
							C192.5,104,196.6,110.7,195.1,117.4z"/>
					</g>
				</g>
			</g>
			<g>
				<g>
					<g>
						<path class="st2" d="M184.8,158.5l-0.6,1c-1.3-4.3-4.8-8-9.5-9.2l-13.5-3.5c-7.1-1.8-14.2,2.5-16,9.6l-3.2,13.5
							c-1.8,7.1,2.6,14.3,9.7,16.2l13.5,3.5h0.1l-0.5,0.8l-13.2-3.3c-7.6-1.9-12.1-9.7-10.3-17.2l3.2-13.5c1.9-7.6,9.5-12.1,17-10.3
							l13.5,3.5C179.7,150.6,183.3,154.2,184.8,158.5z"/>
					</g>
				</g>
			</g>
			<g>
				<g>
					<g>
						<path class="st12" d="M183.8,161.8L183.8,161.8L166.7,189c-0.3,0-0.6-0.1-0.9-0.2l17.9-28.3
							C183.6,161,183.7,161.3,183.8,161.8z"/>
					</g>
				</g>
			</g>
			<g>
				<g>
					<g>
						<path class="st2" d="M184.3,159.4l-0.6,1c-1-4.4-4.4-8.1-9.1-9.3l-13.5-3.5c-6.7-1.7-13.4,2.3-14.9,9l-3.2,13.5
							c-1.6,6.7,2.5,13.5,9,15.1l13.5,3.4c0.1,0,0.3,0.1,0.4,0.1l-0.5,0.8h-0.1l-13.5-3.5c-7.1-1.8-11.3-9.1-9.7-16.2l3.2-13.5
							c1.8-7.1,8.9-11.5,16-9.6l13.5,3.5C179.4,151.5,183,155.1,184.3,159.4z"/>
					</g>
				</g>
			</g>
			<g>
				<g>
					<g>
						<path class="st12" d="M183.6,160.4l-17.9,28.3c-0.1,0-0.3,0-0.4-0.1l-13.5-3.5c-6.7-1.7-10.7-8.6-9-15.1l3.2-13.5
							c1.6-6.7,8.3-10.7,14.9-9l13.5,3.5C179.2,152.3,182.5,156.1,183.6,160.4z"/>
					</g>
				</g>
			</g>
			<g>
				<g>
					<g>
						<path class="st2" d="M168.6,189.1l-0.5,0.9c-0.3,0-0.7,0-1-0.1l0,0l0,0l0.5-0.8C168,189.1,168.3,189.1,168.6,189.1z"/>
					</g>
				</g>
			</g>
			<g>
				<g>
					<g>
						<path class="st2" d="M168.1,190l-0.3,0.4l-0.7-0.5C167.4,189.9,167.8,189.9,168.1,190z"/>
					</g>
				</g>
			</g>
			<g>
				<g>
					<g>
						<path class="st2" d="M167.6,189.1l-0.5,0.8l-0.7-0.5l0.3-0.5C167,189,167.3,189,167.6,189.1z"/>
					</g>
				</g>
			</g>
			<g>
				<g>
					<g>
						<path class="st2" d="M167.2,189.9L167.2,189.9c-0.6,0-1.3-0.1-1.9-0.3l0.5-0.8c0.3,0.1,0.6,0.1,0.9,0.2l-0.3,0.5L167.2,189.9z
							"/>
					</g>
				</g>
			</g>
			<g>
				<g>
					<g>
						<path class="st2" d="M167.2,189.9l-0.5,0.8c-0.6-0.1-1.1-0.2-1.7-0.3h-0.2l0.5-0.8C165.8,189.8,166.5,189.8,167.2,189.9z"/>
					</g>
				</g>
			</g>
			<g>
				<g>
					<g>
						<path class="st8" d="M166.6,190.7l-8.5,13.3l-1.8-0.5l8.3-13.2h0.2C165.4,190.7,166,190.7,166.6,190.7z"/>
					</g>
				</g>
			</g>
			<g>
				<g>
					<g>
						<path class="st14" d="M186.6,102.8l-25,33c-0.6-0.2-1.1-0.5-1.6-0.8l25-33l0.9,0.2l0,0L186.6,102.8z"/>
					</g>
				</g>
			</g>
			<g>
				<g>
					<g>
						<polygon class="st2" points="186,102.4 185.1,102 185.2,101.7 						"/>
					</g>
				</g>
			</g>
			<g>
				<g>
					<g>
						<path class="st14" d="M185.1,102l-25,33c-4.6-2.8-7-8.3-5.8-13.8l3.2-13.5c1.6-6.7,8.3-10.7,14.9-9L185.1,102z"/>
					</g>
				</g>
			</g>
			<g>
				<g>
					<g>
						<polygon class="st2" points="158.2,204.1 157.7,204.9 156.8,204.6 156.1,204.2 156.4,203.6 						"/>
					</g>
				</g>
			</g>
			<g>
				<g>
					<g>
						<polygon class="st2" points="157.7,204.9 157.5,205.1 156.8,204.6 						"/>
					</g>
				</g>
			</g>
			<g>
				<g>
					<g>
						<path class="st2" d="M161.7,135.8l-0.3,0.4l-1.3-1.1l0.1-0.2C160.6,135.4,161,135.7,161.7,135.8z"/>
					</g>
				</g>
			</g>
			<g>
				<g>
					<g>
						<path class="st2" d="M164,80l0.9,0.2c-0.1,0.3-0.2,0.6-0.2,0.8l-0.9-0.2c0-0.1,0-0.1,0.1-0.2C163.8,80.3,163.9,80.1,164,80z"
							/>
					</g>
				</g>
			</g>
			<g>
				<g>
					<g>
						<path class="st2" d="M164,80c-0.1,0.2-0.1,0.4-0.2,0.6L164,80L164,80z"/>
					</g>
				</g>
			</g>
		</g>
		<g>
			<g>
				<g>
					<g>
						<polygon class="st2" points="256.3,97.5 229.7,90.8 227.9,90.4 167.6,75.4 167.8,74.5 228.1,89.5 229.9,90 256.5,96.6 						
							"/>
					</g>
				</g>
			</g>
		</g>
	</g>
</g>
</svg>
