<?xml version="1.0" encoding="utf-8"?>
<!-- Generator: Adobe Illustrator 25.2.3, SVG Export Plug-In . SVG Version: 6.00 Build 0)  -->
<svg version="1.1" id="Warstwa_1" xmlns="http://www.w3.org/2000/svg" xmlns:xlink="http://www.w3.org/1999/xlink" x="0px" y="0px"
	 viewBox="0 0 283.5 283.5" style="enable-background:new 0 0 283.5 283.5;" xml:space="preserve">
<style type="text/css">
	.st0{fill:#C8C8C8;}
	.st1{fill:#A9A9A9;}
	.st2{fill:#DCCE2A;}
	.st3{fill:#808080;}
	.st4{fill:#00B800;}
	.st5{fill:#FFFFFF;}
	.st6{fill:#D3CACF;}
</style>
<g id="XMLID_1_">
	<g>
		<g>
			<g id="XMLID_2_">
				<g>
					<polygon class="st0" points="92.9,91.5 92.9,185.1 69.2,199.7 69.2,106.1 					"/>
					<polygon points="93.4,90.6 93.9,90.6 93.9,185.4 93.4,185.4 93.1,184.9 92.9,185.1 92.9,91.5 93.6,91 					"/>
					<polygon points="93.4,185.4 93.6,185.8 69.2,200.9 69.2,199.7 92.9,185.1 92.9,185.4 					"/>
					<polygon points="93.4,90.6 93.6,91 92.9,91.5 92.9,91.1 93.4,91.1 					"/>
					<polygon points="93.4,90.6 93.4,91.1 92.9,91.1 92.9,90.9 					"/>
					<polygon points="93.4,90.1 93.4,90.6 93.1,90.1 92.4,90.6 37.8,90.6 37.8,90.1 					"/>
					<polygon points="93.1,90.1 93.4,90.6 92.9,90.6 92.4,90.6 					"/>
					<polygon points="93.1,184.9 93.4,185.4 92.9,185.4 92.9,185.1 					"/>
					<polygon points="93.4,90.6 92.9,90.9 92.9,90.6 					"/>
					<polygon points="92.9,91.1 92.9,91.5 69.2,106.1 69.2,105.5 92.6,91.1 					"/>
					<polygon points="92.9,90.9 92.9,91.1 92.6,91.1 					"/>
					<polygon points="92.9,90.6 92.9,90.9 92.6,91.1 91.6,91.1 92.4,90.6 					"/>
					<polygon points="92.6,91.1 69.2,105.5 69.2,105.3 68.5,105.3 91.6,91.1 					"/>
					<polygon points="92.4,90.6 91.6,91.1 38,91.1 38.1,91 37.8,90.6 					"/>
					<rect x="39.6" y="94.2" width="37.1" height="1"/>
					<polygon points="69.2,199.7 69.2,200.9 68.9,201 68.7,200.6 68.7,200.6 68.7,200 					"/>
					<polygon points="69.2,105.5 69.2,106.1 68.9,106.2 68.7,105.8 					"/>
					<polygon points="69.2,105.3 69.2,105.5 68.7,105.8 68.4,105.4 68.5,105.3 					"/>
					<polygon points="68.9,106.2 69.2,106.1 69.2,199.7 68.7,200 68.7,105.8 					"/>
					<polygon points="68.7,200 68.7,200.6 68.7,200.6 68.4,200.2 					"/>
					<rect x="31.6" y="97.7" width="37.1" height="1"/>
					<polygon points="68.4,105.4 68.7,105.8 14.1,105.8 14.9,105.3 68.5,105.3 					"/>
					<rect x="25.2" y="101.5" width="37.1" height="1"/>
					<path class="st1" d="M53.6,122.8c-0.2,0-0.3,0.1-0.3,0.3c0,0.2,0.1,0.3,0.3,0.3c0.1,0,0.3-0.1,0.3-0.3
						C53.9,122.9,53.7,122.8,53.6,122.8z M52.4,123.1c0-0.7,0.5-1.2,1.2-1.2s1.2,0.6,1.2,1.2c0,0.7-0.5,1.2-1.2,1.2
						C52.9,124.3,52.4,123.7,52.4,123.1z"/>
					<path class="st1" d="M52.4,138.3c0-0.7,0.5-1.2,1.2-1.2s1.2,0.5,1.2,1.2s-0.5,1.2-1.2,1.2C52.9,139.6,52.4,139,52.4,138.3z
						 M53.6,138.1c-0.2,0-0.3,0.1-0.3,0.3s0.1,0.3,0.3,0.3c0.1,0,0.3-0.1,0.3-0.3C53.9,138.2,53.7,138.1,53.6,138.1z"/>
					<path class="st1" d="M53.3,169.7c0,0.2,0.1,0.3,0.3,0.3c0.1,0,0.3-0.1,0.3-0.3s-0.1-0.3-0.3-0.3
						C53.4,169.4,53.3,169.6,53.3,169.7z M53.6,170.9c-0.7,0-1.2-0.5-1.2-1.2s0.5-1.2,1.2-1.2s1.2,0.5,1.2,1.2
						S54.3,170.9,53.6,170.9z"/>
					<path class="st1" d="M53.3,154c0,0.1,0.1,0.3,0.3,0.3c0.1,0,0.3-0.1,0.3-0.3s-0.1-0.3-0.3-0.3C53.4,153.8,53.3,153.9,53.3,154z
						 M53.6,155.2c-0.7,0-1.2-0.6-1.2-1.2c0-0.7,0.5-1.2,1.2-1.2s1.2,0.6,1.2,1.2C54.8,154.7,54.2,155.2,53.6,155.2z"/>
					<ellipse class="st2" cx="51.8" cy="193.2" rx="2.5" ry="2.5"/>
					<path d="M51.8,169.7c0-1,0.8-1.8,1.8-1.8s1.8,0.8,1.8,1.8s-0.8,1.8-1.8,1.8S51.8,170.7,51.8,169.7z M53.6,168.5
						c-0.7,0-1.2,0.5-1.2,1.2s0.5,1.2,1.2,1.2s1.2-0.5,1.2-1.2S54.2,168.5,53.6,168.5z"/>
					<path d="M53.6,137.1c-0.7,0-1.2,0.6-1.2,1.2s0.5,1.2,1.2,1.2s1.2-0.6,1.2-1.2C54.8,137.7,54.3,137.1,53.6,137.1z M51.8,138.3
						c0-1,0.8-1.8,1.8-1.8s1.8,0.8,1.8,1.8s-0.8,1.8-1.8,1.8S51.8,139.3,51.8,138.3z"/>
					<path d="M53.6,121.8c-0.7,0-1.2,0.6-1.2,1.2c0,0.7,0.5,1.2,1.2,1.2s1.2-0.5,1.2-1.2C54.8,122.4,54.2,121.8,53.6,121.8z
						 M51.8,123.1c0-1,0.8-1.8,1.8-1.8s1.8,0.8,1.8,1.8s-0.8,1.8-1.8,1.8C52.6,124.8,51.8,124,51.8,123.1z"/>
					<path d="M51.8,154c0-1,0.8-1.8,1.8-1.8s1.8,0.8,1.8,1.8s-0.8,1.8-1.8,1.8S51.8,155,51.8,154z M53.6,152.8
						c-0.7,0-1.2,0.6-1.2,1.2c0,0.7,0.5,1.2,1.2,1.2s1.2-0.6,1.2-1.2C54.8,153.4,54.2,152.8,53.6,152.8z"/>
					<path d="M48.9,193.2c0-1.6,1.3-2.9,2.9-2.9c1.6,0,2.9,1.3,2.9,2.9c0,1.6-1.3,2.9-2.9,2.9C50.2,196.1,48.9,194.8,48.9,193.2z
						 M51.8,190.7c-1.4,0-2.5,1.1-2.5,2.5s1.1,2.5,2.5,2.5s2.5-1.1,2.5-2.5S53.2,190.7,51.8,190.7z"/>
					<path d="M51.8,190.3c-1.6,0-2.9,1.3-2.9,2.9c0,1.6,1.3,2.9,2.9,2.9c1.6,0,2.9-1.3,2.9-2.9S53.4,190.3,51.8,190.3z M51.8,196.5
						c-1.8,0-3.3-1.5-3.3-3.3s1.5-3.3,3.3-3.3s3.3,1.5,3.3,3.3S53.6,196.5,51.8,196.5z"/>
					<path class="st3" d="M48.5,193.2c0,1.8,1.5,3.3,3.3,3.3s3.3-1.5,3.3-3.3s-1.5-3.3-3.3-3.3S48.5,191.4,48.5,193.2z M44,196.4
						c1.8,0,3.3-1.5,3.3-3.3s-1.5-3.3-3.3-3.3s-3.3,1.5-3.3,3.3C40.8,194.9,42.2,196.4,44,196.4z M68.2,106.3v93.8H13.6v-93.8H68.2z
						 M62.2,170.2v-5.1H19.6v6l5.3,3.7H57L62.2,170.2z M62.2,154.5v-5.1H19.6v6l5.3,3.7H57L62.2,154.5z M62.2,138.8v-5.1H19.6v6
						l5.3,3.7H57L62.2,138.8z M62.2,123.5v-5.1H19.6v6l5.3,3.7H57L62.2,123.5z"/>
					<path class="st1" d="M45.9,122.8c-0.2,0-0.3,0.1-0.3,0.3c0,0.2,0.1,0.3,0.3,0.3c0.1,0,0.3-0.1,0.3-0.3
						C46.1,122.9,46,122.8,45.9,122.8z M44.6,123.1c0-0.7,0.5-1.2,1.2-1.2s1.2,0.6,1.2,1.2c0,0.7-0.6,1.2-1.2,1.2
						C45.2,124.3,44.6,123.7,44.6,123.1z"/>
					<path class="st1" d="M45.6,138.3c0,0.2,0.1,0.3,0.3,0.3c0.1,0,0.3-0.1,0.3-0.3s-0.1-0.3-0.3-0.3
						C45.7,138.1,45.6,138.2,45.6,138.3z M44.6,138.3c0-0.7,0.5-1.2,1.2-1.2s1.2,0.6,1.2,1.2s-0.6,1.2-1.2,1.2
						C45.2,139.6,44.6,139,44.6,138.3z"/>
					<path class="st1" d="M44.6,169.7c0-0.7,0.5-1.2,1.2-1.2s1.2,0.5,1.2,1.2s-0.6,1.2-1.2,1.2C45.2,170.9,44.6,170.4,44.6,169.7z
						 M45.6,169.7c0,0.2,0.1,0.3,0.3,0.3c0.1,0,0.3-0.1,0.3-0.3s-0.1-0.3-0.3-0.3C45.7,169.4,45.6,169.6,45.6,169.7z"/>
					<path class="st1" d="M44.6,154c0-0.7,0.5-1.2,1.2-1.2s1.2,0.6,1.2,1.2c0,0.7-0.6,1.2-1.2,1.2C45.2,155.2,44.6,154.7,44.6,154z
						 M45.6,154c0,0.1,0.1,0.3,0.3,0.3c0.1,0,0.3-0.1,0.3-0.3s-0.1-0.3-0.3-0.3C45.7,153.8,45.6,153.9,45.6,154z"/>
					<path d="M45.9,168.5c-0.7,0-1.2,0.5-1.2,1.2s0.5,1.2,1.2,1.2s1.2-0.5,1.2-1.2C47.1,169,46.5,168.5,45.9,168.5z M44.1,169.7
						c0-1,0.8-1.8,1.8-1.8s1.8,0.8,1.8,1.8s-0.8,1.8-1.8,1.8S44.1,170.7,44.1,169.7z"/>
					<path d="M45.9,137.1c-0.7,0-1.2,0.6-1.2,1.2s0.5,1.2,1.2,1.2s1.2-0.6,1.2-1.2S46.5,137.1,45.9,137.1z M44.1,138.3
						c0-1,0.8-1.8,1.8-1.8s1.8,0.8,1.8,1.8s-0.8,1.8-1.8,1.8S44.1,139.3,44.1,138.3z"/>
					<path d="M45.9,121.8c-0.7,0-1.2,0.6-1.2,1.2c0,0.7,0.5,1.2,1.2,1.2s1.2-0.5,1.2-1.2C47.1,122.4,46.5,121.8,45.9,121.8z
						 M44.1,123.1c0-1,0.8-1.8,1.8-1.8s1.8,0.8,1.8,1.8s-0.8,1.8-1.8,1.8S44.1,124,44.1,123.1z"/>
					<path d="M45.9,152.8c-0.7,0-1.2,0.6-1.2,1.2c0,0.7,0.5,1.2,1.2,1.2s1.2-0.6,1.2-1.2C47.1,153.4,46.5,152.8,45.9,152.8z
						 M44.1,154c0-1,0.8-1.8,1.8-1.8s1.8,0.8,1.8,1.8s-0.8,1.8-1.8,1.8S44.1,155,44.1,154z"/>
					<ellipse class="st4" cx="44" cy="193.1" rx="2.5" ry="2.5"/>
					<path d="M44,196c-1.6,0-2.9-1.3-2.9-2.9c0-1.6,1.3-2.9,2.9-2.9c1.6,0,2.9,1.3,2.9,2.9S45.6,196,44,196z M41.5,193.1
						c0,1.4,1.1,2.5,2.5,2.5s2.5-1.1,2.5-2.5s-1.1-2.5-2.5-2.5S41.5,191.7,41.5,193.1z"/>
					<path d="M44,190.2c-1.6,0-2.9,1.3-2.9,2.9c0,1.6,1.3,2.9,2.9,2.9c1.6,0,2.9-1.3,2.9-2.9S45.6,190.2,44,190.2z M40.8,193.1
						c0-1.8,1.5-3.3,3.3-3.3s3.3,1.5,3.3,3.3s-1.5,3.3-3.3,3.3S40.8,194.9,40.8,193.1z"/>
					<rect x="26.5" y="168.5" width="14.4" height="3"/>
					<rect x="26.5" y="152.8" width="14.4" height="3"/>
					<rect x="26.5" y="137.1" width="14.4" height="3"/>
					<rect x="26.5" y="121.8" width="14.4" height="3"/>
					<polygon points="37.8,90.6 38.1,91 38,91.1 37.8,91.1 					"/>
					<polygon points="38,91.1 14.9,105.3 13.9,105.3 37.8,90.6 37.8,91.1 					"/>
					<polygon points="37.5,90.1 37.8,90.6 13.9,105.3 13,105.3 					"/>
					<path class="st0" d="M62.4,101.5H25.2v1h37.1v-1H62.4z M68.7,97.7H31.6v1h37.1V97.7z M39.6,95.2h37.1v-1H39.6V95.2z
						 M68.5,105.3H14.9L38,91.1h53.6L68.5,105.3z"/>
					<path class="st1" d="M53.6,167.9c-1,0-1.8,0.8-1.8,1.8s0.8,1.8,1.8,1.8s1.8-0.8,1.8-1.8C55.4,168.7,54.6,167.9,53.6,167.9z
						 M45.9,167.9c-1,0-1.8,0.8-1.8,1.8s0.8,1.8,1.8,1.8s1.8-0.8,1.8-1.8C47.6,168.7,46.8,167.9,45.9,167.9z M26.5,171.5h14.4v-3
						H26.5V171.5z M25.2,173.8l-4.6-3.2v-4.4h40.7v3.6l-4.7,4.1H25.2V173.8z"/>
					<path class="st1" d="M53.6,152.2c-1,0-1.8,0.8-1.8,1.8s0.8,1.8,1.8,1.8s1.8-0.8,1.8-1.8S54.6,152.2,53.6,152.2z M45.9,152.2
						c-1,0-1.8,0.8-1.8,1.8s0.8,1.8,1.8,1.8s1.8-0.8,1.8-1.8S46.8,152.2,45.9,152.2z M26.5,155.8h14.4v-3H26.5V155.8z M25.2,158.1
						l-4.6-3.2v-4.4h40.7v3.6l-4.7,4.1H25.2V158.1z"/>
					<path class="st1" d="M53.6,136.6c-1,0-1.8,0.8-1.8,1.8s0.8,1.8,1.8,1.8s1.8-0.8,1.8-1.8C55.4,137.4,54.6,136.6,53.6,136.6z
						 M45.9,136.6c-1,0-1.8,0.8-1.8,1.8s0.8,1.8,1.8,1.8s1.8-0.8,1.8-1.8C47.6,137.4,46.8,136.6,45.9,136.6z M26.5,140.1h14.4v-3
						H26.5V140.1z M25.2,142.4l-4.6-3.2v-4.4h40.7v3.6l-4.7,4.1H25.2V142.4z"/>
					<path class="st1" d="M53.6,121.3c-1,0-1.8,0.8-1.8,1.8s0.8,1.8,1.8,1.8s1.8-0.8,1.8-1.8C55.4,122.1,54.6,121.3,53.6,121.3z
						 M45.9,121.3c-1,0-1.8,0.8-1.8,1.8s0.8,1.8,1.8,1.8s1.8-0.8,1.8-1.8C47.6,122.1,46.8,121.3,45.9,121.3z M26.5,124.8h14.4v-3
						H26.5V124.8z M25.2,127.2l-4.6-3.2v-4.4h40.7v3.6l-4.7,4.1L25.2,127.2L25.2,127.2z"/>
					<path d="M20.6,119.5v4.4l4.6,3.2h31.4l4.7-4.1v-3.6L20.6,119.5L20.6,119.5z M20.1,119h41.7v4.3l-5,4.3H25l-5-3.5V119H20.1z"/>
					<path d="M20.6,134.8v4.4l4.6,3.2h31.4l4.7-4.1v-3.6H20.6V134.8z M25,142.9l-5-3.5v-5.2h41.7v4.3l-5,4.3L25,142.9L25,142.9z"/>
					<path d="M20.6,150.4v4.4l4.6,3.2h31.4l4.7-4.1v-3.6H20.6V150.4z M25,158.6l-5-3.5v-5.2h41.7v4.3l-5,4.3L25,158.6L25,158.6z"/>
					<path d="M20.6,166.1v4.4l4.6,3.2h31.4l4.7-4.1V166H20.6V166.1z M25,174.3l-5-3.5v-5.2h41.7v4.3l-5,4.3L25,174.3L25,174.3z"/>
					<path d="M20.1,119v5.2l5,3.5h31.7l5-4.3V119H20.1z M19.6,118.5h42.7v5.1l-5.3,4.6H24.9l-5.3-3.7
						C19.6,124.5,19.6,118.5,19.6,118.5z"/>
					<path d="M20.1,134.2v5.2l5,3.5h31.7l5-4.3v-4.3L20.1,134.2L20.1,134.2z M19.6,133.8h42.7v5.1l-5.3,4.6H24.9l-5.3-3.7
						C19.6,139.8,19.6,133.8,19.6,133.8z"/>
					<path d="M20.1,149.9v5.2l5,3.5h31.7l5-4.3V150L20.1,149.9L20.1,149.9z M19.6,149.4h42.7v5.1l-5.3,4.6H24.9l-5.3-3.7
						C19.6,155.4,19.6,149.4,19.6,149.4z"/>
					<path d="M20.1,165.6v5.2l5,3.5h31.7l5-4.3v-4.3L20.1,165.6L20.1,165.6z M19.6,165.1h42.7v5.1l-5.3,4.6H24.9l-5.3-3.7
						C19.6,171.1,19.6,165.1,19.6,165.1z"/>
					<polygon points="14.9,105.3 14.1,105.8 13.1,105.8 13.9,105.3 					"/>
					<polygon points="14.1,105.8 13.4,106.2 13.1,105.8 					"/>
					<polygon points="13.9,105.3 13.1,105.8 12.9,105.4 13,105.3 					"/>
					<path d="M13.4,106.2l0.7-0.4h54.6V200l-0.3,0.2l0.2,0.4H13.1v-94.8L13.4,106.2z M13.6,200.1h54.6v-93.8H13.6V200.1z"/>
					<polygon points="13.1,200.6 68.7,200.6 68.9,201 69.2,200.9 69.2,201.1 12.6,201.1 12.6,105.3 13,105.3 12.9,105.4 13.1,105.8 
											"/>
				</g>
			</g>
		</g>
	</g>
</g>
<g>
	<g>
		<g>
			<g>
				<path d="M76.4,78.9c1.3-2.2,2.7-4.4,4.2-6.5c0.3-0.5,0.7-0.9,1-1.4c0.1-0.1,0.9-1.1,0.2-0.3c0.2-0.2,0.3-0.4,0.5-0.6
					C83.2,69,84,68,85,66.9c3.3-3.8,7-7.3,10.9-10.4c0.1-0.1,1.1-0.9,0.3-0.2c0.2-0.2,0.4-0.3,0.6-0.5c0.5-0.4,1-0.8,1.5-1.1
					c1.1-0.8,2.2-1.5,3.3-2.3c2.2-1.4,4.4-2.7,6.7-4c2.2-1.2,4.5-2.3,6.8-3.3c-0.8,0.4-0.2,0.1,0,0c0.4-0.1,0.7-0.3,1.1-0.4
					c0.5-0.2,1.1-0.4,1.6-0.6c1.2-0.5,2.5-0.9,3.8-1.3c2.4-0.8,4.9-1.4,7.3-2c1.2-0.3,2.5-0.5,3.7-0.8c0.6-0.1,1.2-0.2,1.9-0.3
					c0.3,0,0.5-0.1,0.8-0.1c0.9-0.1-0.7,0.1,0.5-0.1c5.2-0.6,10.5-0.8,15.7-0.4c1.3,0.1,2.6,0.2,3.9,0.4c0.3,0,0.5,0.1,0.8,0.1
					c1.3,0.2-0.6-0.1,0.2,0c0.7,0.1,1.4,0.2,2.1,0.3c2.6,0.4,5.2,1,7.8,1.7s5.1,1.5,7.6,2.4c1.1,0.4,2.2,0.8,3.3,1.3
					c0.1,0,1.3,0.6,0.4,0.2c0.2,0.1,0.5,0.2,0.7,0.3c0.7,0.3,1.4,0.6,2.1,1c5.3,2.5,10.3,5.5,15,9c0.1,0.1,1.1,0.9,0.3,0.2
					c0.3,0.2,0.6,0.5,0.9,0.7c0.6,0.4,1.1,0.9,1.6,1.4c1.1,1,2.2,2,3.3,3c2.2,2,4.2,4.2,6.1,6.5c2.6,3,7.8,0.5,7.7-3.2
					c-0.3-13.8-0.7-27.7-1-41.5c-0.1-2.4-2-4.6-4.5-4.5c-2.4,0.1-4.6,2-4.5,4.5c0.3,13.8,0.7,27.7,1,41.5c2.6-1.1,5.1-2.1,7.7-3.2
					c-14.7-17.3-36.3-28-58.7-30.6c-21.7-2.5-44.2,3.7-61.8,16.6c-10,7.3-18.5,16.4-24.8,27.1c-1.2,2-0.5,5,1.6,6.2
					C72.4,81.6,75.1,81.1,76.4,78.9L76.4,78.9z"/>
			</g>
		</g>
	</g>
</g>
<g>
	<g>
		<g>
			<path d="M212.8,60.5c-15.9-8.9-35.9-10.3-52.8-3.3c-2.2,0.9-4,3-3.1,5.5c0.7,2.1,3.2,4.1,5.5,3.1c3.8-1.6,7.8-2.7,11.8-3.4
				c0.5-0.1,1.1-0.2,1.6-0.3c-1,0.1,0.7-0.1,0.8-0.1c1-0.1,1.9-0.2,2.9-0.2c2.1-0.1,4.3-0.1,6.4,0c1,0.1,2.1,0.1,3.1,0.3
				c0.2,0,1.9,0.2,0.8,0.1c0.5,0.1,1,0.1,1.4,0.2c2,0.3,4,0.8,6,1.4c2,0.6,3.9,1.3,5.8,2c0.3,0.1,0.3,0.1-0.1-0.1
				c0.3,0.1,0.5,0.2,0.8,0.3c0.5,0.2,1,0.5,1.5,0.7c1,0.5,2,1,2.9,1.5c2.1,1.1,5,0.6,6.2-1.6C215.5,64.5,215,61.7,212.8,60.5
				L212.8,60.5z"/>
		</g>
	</g>
</g>
<g>
	<g>
		<g>
			<g>
				<path class="st5" d="M73.8,77.4c10.3-17.7,27.4-31,46.8-37.3c20.1-6.5,42.1-4.8,61.1,4.2c10.7,5.1,20.3,12.2,28,21.3
					c0.9,1,2.6,0.2,2.6-1.1c-0.3-13.8-0.7-27.7-1-41.5c0-1.9-3-1.9-3,0c0.3,13.8,0.7,27.7,1,41.5c0.9-0.4,1.7-0.7,2.6-1.1
					c-14.2-16.7-34.9-27.2-56.6-29.8c-21.3-2.5-43,3.6-60.3,16.2c-9.6,7-17.7,15.8-23.7,26C70.3,77.5,72.8,79,73.8,77.4L73.8,77.4z"
					/>
			</g>
		</g>
	</g>
</g>
<g>
	<g>
		<g>
			<path class="st5" d="M211.3,63.1c-15.3-8.5-34.3-9.7-50.5-3c-1.8,0.7-1,3.6,0.8,2.9c15.4-6.4,33.5-5.4,48.1,2.7
				C211.5,66.6,213,64,211.3,63.1L211.3,63.1z"/>
		</g>
	</g>
</g>
<g>
	<g>
		<g>
			<g>
				<path d="M222.2,205.5c-1.3,2.7-2.8,5.3-4.4,7.9c-0.8,1.2-1.5,2.4-2.4,3.5c-0.4,0.6-0.9,1.2-1.3,1.8c-0.2,0.3-0.4,0.6-0.7,0.9
					c0.6-0.8-0.2,0.2-0.3,0.4c-3.7,4.7-7.9,9-12.5,12.9c-0.5,0.4-1,0.8-1.4,1.2c-0.3,0.2-0.6,0.5-0.9,0.7c-0.1,0.1-1.1,0.8-0.3,0.2
					c-1.3,1-2.6,1.9-3.9,2.8c-2.5,1.7-5,3.3-7.6,4.7s-5.3,2.8-8,4c-0.1,0.1-1.3,0.5-0.3,0.1c-0.2,0.1-0.5,0.2-0.7,0.3
					c-0.7,0.3-1.4,0.6-2.1,0.8c-1.5,0.6-3,1.1-4.6,1.6c-2.8,0.9-5.7,1.7-8.6,2.3c-1.3,0.3-2.7,0.5-4,0.8c-0.7,0.1-1.5,0.2-2.2,0.3
					c1.1-0.2-0.1,0-0.3,0c-0.5,0.1-1,0.1-1.5,0.2c-6,0.6-12.2,0.6-18.2-0.1c-0.4,0-0.8-0.1-1.1-0.1c-0.2,0-1.4-0.2-0.3,0
					c-0.6-0.1-1.3-0.2-1.9-0.3c-1.6-0.3-3.3-0.6-4.9-0.9c-3-0.6-5.9-1.4-8.8-2.4c-1.3-0.4-2.6-0.9-4-1.4c-0.7-0.3-1.4-0.5-2.1-0.8
					c-0.4-0.1-0.7-0.3-1.1-0.4c-0.5-0.2-0.5-0.2,0,0c-0.2-0.1-0.5-0.2-0.7-0.3c-2.8-1.2-5.5-2.6-8.2-4c-3-1.7-5.9-3.5-8.7-5.5
					c-0.7-0.5-1.3-1-2-1.5c-0.3-0.2-0.5-0.4-0.8-0.6c0.8,0.6-0.4-0.4-0.6-0.5c-1.4-1.1-2.7-2.2-4-3.4c-2.5-2.3-4.9-4.7-7.2-7.2
					c-1.1-1.2-2.1-2.5-3.1-3.8c0.6,0.8-0.1-0.2-0.2-0.3c-0.3-0.4-0.6-0.8-0.9-1.2c-0.5-0.7-1-1.4-1.5-2.2c-1.3-1.9-3.5-2.7-5.6-1.8
					s-3.1,3.1-2.6,5.3c3.8,17.1,7.5,34.3,11.3,51.4c0.5,2.3,3.3,3.9,5.5,3.1c2.4-0.8,3.7-3.1,3.1-5.5c-3.8-17.1-7.5-34.3-11.3-51.4
					c-2.7,1.2-5.5,2.3-8.2,3.5c14.6,21.5,38.4,36.3,64,40.4c12.9,2.1,26,1.5,38.7-1.8c12.1-3.2,23.6-8.9,33.6-16.5
					c11.4-8.7,21-19.8,27.4-32.7c1-2.1,0.6-5-1.6-6.2C226.3,202.8,223.3,203.2,222.2,205.5L222.2,205.5z"/>
			</g>
		</g>
	</g>
</g>
<g>
	<g>
		<g>
			<g>
				<path d="M69,222.1c16.6,4.9,34.1,5.7,51,2.6c2.3-0.4,3.8-3.4,3.1-5.5c-0.8-2.5-3-3.6-5.5-3.1c-1.1,0.2-2.2,0.4-3.2,0.5
					c-0.1,0-1.4,0.2-0.7,0.1c-0.5,0.1-0.9,0.1-1.4,0.2c-2,0.2-4,0.4-6.1,0.5c-4,0.2-8,0.2-11.9,0c-1.9-0.1-3.9-0.3-5.8-0.5
					c-0.5-0.1-0.9-0.1-1.4-0.2c-0.6-0.1-0.6-0.1-0.2,0c-0.2,0-0.5-0.1-0.7-0.1c-1-0.1-2-0.3-3-0.5c-4-0.7-7.9-1.6-11.8-2.8
					c-2.3-0.7-5,0.8-5.5,3.1C65.3,218.9,66.6,221.4,69,222.1L69,222.1z"/>
			</g>
		</g>
	</g>
</g>
<g>
	<g>
		<g>
			<g>
				<path class="st5" d="M224.8,207c-10.6,21.5-30.4,37.9-53.1,45.2c-23.3,7.5-48.8,4.5-70.2-7.4c-11.9-6.6-22.4-15.9-30-27.1
					c-1-1.4-3.1-0.5-2.7,1.2c3.8,17.1,7.5,34.3,11.3,51.4c0.4,1.9,3.3,1.1,2.9-0.8c-3.8-17.1-7.5-34.3-11.3-51.4
					c-0.9,0.4-1.8,0.8-2.7,1.2c14.2,20.9,37.4,35.1,62.3,39c24.7,3.9,50.1-2.9,70-18.1c11-8.4,20.2-19.2,26.3-31.6
					C228.2,206.8,225.7,205.3,224.8,207L224.8,207z"/>
			</g>
		</g>
	</g>
</g>
<g>
	<g>
		<g>
			<g>
				<path class="st5" d="M69.8,219.2c16,4.7,33,5.6,49.4,2.6c1.9-0.3,1.1-3.2-0.8-2.9c-15.9,2.8-32.3,1.9-47.8-2.6
					C68.7,215.7,67.9,218.6,69.8,219.2L69.8,219.2z"/>
			</g>
		</g>
	</g>
</g>
<g id="XMLID_3_">
	<g>
		<g>
			<g>
				<path class="st6" d="M134.7,150.5v13.3c0,3.8-13,6.9-29,6.9s-29-3.1-29-6.9v-13.3c0,3.8,13,6.9,29,6.9S134.7,154.3,134.7,150.5z
					"/>
			</g>
		</g>
		<g>
			<g>
				<path class="st6" d="M134.7,136.9v13.7c0,3.8-13,6.9-29,6.9s-29-3.1-29-6.9v-13.7c0,3.8,13,6.9,29,6.9S134.7,140.7,134.7,136.9z
					"/>
			</g>
		</g>
		<g>
			<g>
				<path class="st6" d="M134.7,123v13.8c0,3.8-13,6.9-29,6.9s-29-3.1-29-6.9V123c0,3.8,13,6.9,29,6.9S134.7,126.8,134.7,123z"/>
			</g>
		</g>
		<g>
			<g>
				<path class="st6" d="M105.6,116.1c16,0,29,3.1,29,6.9s-13,6.9-29,6.9s-29-3.1-29-6.9S89.6,116.1,105.6,116.1z"/>
			</g>
		</g>
	</g>
	<g>
		<g>
			<g>
				<path d="M105.7,131.4c-10.5,0-30.5-1.8-30.5-8.4s20-8.4,30.5-8.4s30.5,1.8,30.5,8.4S116.2,131.4,105.7,131.4z M105.7,117.6
					c-18.1,0-27.5,3.8-27.5,5.4s9.4,5.4,27.5,5.4s27.5-3.8,27.5-5.4C133.2,121.4,123.8,117.6,105.7,117.6z"/>
			</g>
		</g>
		<g>
			<g>
				<path d="M105.7,172.2c-10.5,0-30.5-1.8-30.5-8.4h3c0,1.6,9.4,5.4,27.5,5.4s27.5-3.8,27.5-5.4h3
					C136.2,170.5,116.2,172.2,105.7,172.2z"/>
			</g>
		</g>
		<g>
			<g>
				<rect x="75.1" y="123" width="3" height="41.2"/>
			</g>
		</g>
		<g>
			<g>
				<rect x="133.2" y="122.1" width="3" height="43"/>
			</g>
		</g>
		<g>
			<g>
				<path d="M105.7,145.3c-10.5,0-30.5-1.8-30.5-8.4h3c0,1.6,9.4,5.4,27.5,5.4s27.5-3.8,27.5-5.4h3
					C136.2,143.6,116.2,145.3,105.7,145.3z"/>
			</g>
		</g>
		<g>
			<g>
				<path d="M105.7,158.9c-10.5,0-30.5-1.8-30.5-8.4h3c0,1.6,9.4,5.4,27.5,5.4s27.5-3.8,27.5-5.4h3
					C136.2,157.2,116.2,158.9,105.7,158.9z"/>
			</g>
		</g>
	</g>
</g>
<g>
	<path d="M192,117.1c-4.2,8.5,0,17.2,4.3,24.6c2.1,3.6,4,7.3,5.1,11.4c1.1,4.1,1.4,8.4,1.1,12.6c-0.1,1.6,1.5,3,3,3
		c1.7,0,2.9-1.4,3-3c0.7-8.7-1.4-17.1-5.6-24.7c-3.3-5.9-9.1-13.9-5.6-20.9c0.7-1.5,0.4-3.2-1.1-4.1
		C194.8,115.3,192.7,115.7,192,117.1L192,117.1z"/>
</g>
<g>
	<path d="M232.4,97.2c-8.3-1.6-16.9-0.6-24.3,3.5c-6.7,3.7-12.3,9.2-15.9,16c-0.8,1.4-0.4,3.3,1.1,4.1c1.4,0.8,3.3,0.4,4.1-1.1
		c3.1-5.8,7.7-10.3,13.4-13.6c6-3.5,13.3-4.4,20.1-3.1c1.6,0.3,3.2-0.4,3.7-2.1C234.9,99.4,234,97.5,232.4,97.2L232.4,97.2z"/>
</g>
<g>
	<path d="M230.8,103c6,1.1,11.6,4.5,14.9,9.7c3.7,5.8,4.4,12.9,2.2,19.3c-0.5,1.5,0.6,3.3,2.1,3.7c1.6,0.5,3.2-0.6,3.7-2.1
		c2.7-7.8,1.7-17-2.8-24c-4.1-6.4-10.9-11.1-18.5-12.5c-1.6-0.3-3.2,0.4-3.7,2.1C228.3,100.7,229.2,102.7,230.8,103L230.8,103z"/>
</g>
<g>
	<path d="M247.9,134.6c0.7,1.3,1.4,2.6,2.1,3.8c0.3,0.6,0.7,1.3,1,1.9c0.2,0.3,0.3,0.6,0.5,0.9c0.1,0.1,0.4,0.9,0.4,0.9
		c-0.1,0-0.2-0.6-0.1-0.1c0,0.1,0.1,0.3,0.1,0.4c0,0.1,0.1,0.7,0.1,0.2c-0.1-0.5,0,0,0,0.1c0,0.4,0.1-0.6,0-0.1
		c-0.1,0.4,0.1-0.3,0.1-0.3c0,0-0.4,0.6,0,0.1c0.4-0.5,0,0,0,0c-0.1,0.1-0.1,0.1-0.2,0.2c0.1-0.1,0.2-0.2,0.4-0.3
		c-0.1,0-0.2,0.1-0.3,0.2c-0.1,0.1-0.5,0.3,0,0c0.5-0.2,0.1-0.1,0,0c-0.3,0.1-0.3-0.1,0.3,0c-0.1,0-0.2,0-0.3,0
		c-0.5,0,0.4,0,0.4,0.1c-0.1,0-0.1,0-0.2-0.1c-0.2-0.1-0.1,0,0.4,0.2c-0.8-0.3-1.5-0.5-2.3-0.3c-0.7,0.2-1.4,0.7-1.8,1.4
		c-0.7,1.3-0.5,3.4,1.1,4.1c1.9,0.8,4,0.9,5.7-0.3c1.8-1.1,2.9-3.1,2.7-5.3c-0.2-2.1-1.3-4-2.3-5.8c-0.9-1.6-1.8-3.3-2.6-4.9
		c-0.7-1.4-2.8-1.9-4.1-1.1C247.6,131.4,247.1,133.1,247.9,134.6L247.9,134.6z"/>
</g>
<g>
	<path d="M248.2,146.6c0.1,0.3,0.2,0.6,0.3,1c0-0.3-0.1-0.5-0.1-0.8c0,0.4,0,0.7,0,1.1c0-0.3,0.1-0.5,0.1-0.8
		c-0.1,0.4-0.2,0.7-0.3,1.1c0.1-0.2,0.2-0.5,0.3-0.7c-0.1,0.3-0.3,0.7-0.5,0.9c0.2-0.2,0.3-0.4,0.5-0.6c-0.2,0.3-0.4,0.5-0.7,0.7
		c0.2-0.2,0.4-0.3,0.6-0.5c-0.1,0.1-0.3,0.2-0.5,0.3c-0.7,0.4-1.2,1.1-1.4,1.8c-0.2,0.7-0.1,1.7,0.3,2.3c0.4,0.6,1,1.2,1.8,1.4
		c0.8,0.2,1.6,0.1,2.3-0.3c1.6-0.9,2.6-2.3,3.2-4c0.2-0.7,0.4-1.5,0.4-2.2c0-0.7-0.1-1.6-0.4-2.3c-0.1-0.4-0.3-0.7-0.5-1
		c-0.2-0.3-0.5-0.6-0.8-0.8c-0.6-0.4-1.6-0.5-2.3-0.3c-0.7,0.2-1.4,0.7-1.8,1.4c-0.1,0.2-0.2,0.5-0.3,0.7
		C248.1,145.5,248.1,146.1,248.2,146.6L248.2,146.6z"/>
</g>
<g>
	<path d="M228.8,178.7c0.4-1.2,0.8-2.5,1.3-3.7c-0.3,0.7,0.1-0.3,0.2-0.4c0.1-0.3,0.3-0.6,0.4-0.9c0.3-0.5,0.5-1.1,0.8-1.6
		c0.6-1.1,1.2-2.2,1.9-3.2c0.4-0.5,0.7-1.1,1.1-1.6c0.2-0.3,0.4-0.5,0.6-0.8c0.2-0.3,0.2-0.3,0,0c0.1-0.1,0.2-0.3,0.3-0.4
		c0.5-0.6,0.9-1.3,0.9-2.1c0-0.7-0.3-1.6-0.9-2.1c-1.1-1-3.2-1.3-4.2,0c-3.6,4.6-6.4,9.6-8.2,15.2c-0.5,1.5,0.6,3.3,2.1,3.7
		C226.7,181.2,228.3,180.3,228.8,178.7L228.8,178.7z"/>
</g>
<g>
	<path d="M234.1,166.1c2.2,0.3,4.4,0.6,6.6,0.8c2.5,0.2,4.9,0.4,7.2-0.7c2-0.9,3.6-2.9,4.1-5c0.6-2.6-0.1-5.1-1.8-7.1
		c-1-1.2-3.2-1.1-4.2,0c-1.2,1.3-1.1,3,0,4.2c-0.2-0.3-0.2-0.3,0,0c0,0.1,0.1,0.1,0.1,0.2c0.1,0.2,0.1,0.1-0.1-0.2
		c0.1,0,0.1,0.4,0.1,0.4c0,0.1,0.2,0.7,0.1,0.3c-0.1-0.5,0,0.8,0,0.7c-0.1,0,0.1-0.7,0,0c0,0.1-0.2,0.5,0,0.1
		c0.2-0.4-0.1,0.1-0.1,0.2c-0.1,0.1-0.4,0.5-0.1,0.2c0.3-0.3-0.1,0-0.1,0.1c-0.3,0.3-0.1,0.3,0,0c-0.1,0.1-0.3,0.2-0.5,0.3
		c-0.1,0-0.5,0.2-0.2,0.1c0.4-0.1-0.3,0.1-0.4,0.1c-0.1,0-0.8,0.1-0.4,0.1c0.4,0-0.2,0-0.2,0c-0.2,0-0.4,0-0.7,0
		c-0.4,0-0.8,0-1.2-0.1c-0.9-0.1-1.8-0.2-2.7-0.3c-1.8-0.2-3.7-0.5-5.5-0.7c-1.6-0.2-3.1,1.5-3,3
		C231.2,164.9,232.4,165.9,234.1,166.1L234.1,166.1z"/>
</g>
<g>
	<path d="M246.8,152.7c0,0.1,0.1,0.1,0.1,0.2c-0.1-0.2-0.2-0.5-0.3-0.7c0.1,0.2,0.2,0.5,0.2,0.7c0-0.3-0.1-0.5-0.1-0.8
		c0,0.3,0,0.5,0,0.8c0-0.3,0.1-0.5,0.1-0.8c0,0.3-0.1,0.6-0.2,0.9c0.1-0.2,0.2-0.5,0.3-0.7c-0.1,0.3-0.2,0.5-0.4,0.7
		c0.2-0.2,0.3-0.4,0.5-0.6c-0.2,0.2-0.3,0.4-0.5,0.5c0.2-0.2,0.4-0.3,0.6-0.5c-0.1,0.1-0.3,0.2-0.4,0.3c-0.6,0.3-1.2,1.1-1.4,1.8
		c-0.1,0.4-0.1,0.8-0.1,1.2c0,0.4,0.1,0.8,0.4,1.1c0.4,0.6,1,1.2,1.8,1.4c0.8,0.2,1.6,0.1,2.3-0.3c1.4-0.8,2.4-2.1,2.9-3.6
		c0.1-0.3,0.1-0.7,0.2-1c0-0.3,0.1-0.7,0.1-1c-0.1-1-0.3-1.8-0.7-2.7c-0.2-0.3-0.4-0.6-0.8-0.8c-0.3-0.3-0.6-0.4-1-0.5
		c-0.4-0.1-0.8-0.1-1.2-0.1c-0.4,0-0.8,0.1-1.1,0.4c-0.6,0.4-1.2,1-1.4,1.8c0,0.3-0.1,0.5-0.1,0.8
		C246.4,151.7,246.6,152.2,246.8,152.7L246.8,152.7z"/>
</g>
</svg>
