<?xml version="1.0" encoding="utf-8"?>
<!-- Generator: Adobe Illustrator 25.2.3, SVG Export Plug-In . SVG Version: 6.00 Build 0)  -->
<svg version="1.1" id="Warstwa_1" xmlns="http://www.w3.org/2000/svg" xmlns:xlink="http://www.w3.org/1999/xlink" x="0px" y="0px"
	 viewBox="0 0 283.5 283.5" style="enable-background:new 0 0 283.5 283.5;" xml:space="preserve">
<style type="text/css">
	.st0{fill:#FFFFFF;}
	.st1{fill:#E6E6E6;}
	.st2{fill:#AEADA8;}
</style>
<g>
	<path class="st0" d="M158.6,204.2H67.8c-3.4,0-6.2-2.7-6.2-6.1l0,0c0-3.4,2.8-6.1,6.2-6.1h90.8c3.4,0,6.2,2.7,6.2,6.1l0,0
		C164.8,201.5,162,204.2,158.6,204.2z"/>
	<path d="M158.6,206.5H67.8c-4.7,0-8.5-3.7-8.5-8.3s3.8-8.3,8.5-8.3h90.8c4.7,0,8.5,3.7,8.5,8.3S163.3,206.5,158.6,206.5z
		 M67.8,194.3c-2.2,0-3.9,1.7-3.9,3.8s1.7,3.8,3.9,3.8h90.8c2.2,0,3.9-1.7,3.9-3.8s-1.7-3.8-3.9-3.8H67.8z"/>
</g>
<g>
	<g id="XMLID_1_">
		<g>
			<path d="M213.7,56.9v97.7c0,4.7-3.9,8.5-8.7,8.5h-86.6v-2.2H205c3.6,0,6.4-2.8,6.4-6.3v-11.8v-0.1V56.9c0-3.5-2.9-6.3-6.4-6.3
				H21.4c-3.6,0-6.4,2.8-6.4,6.3v84.8v2.2v2.1v0.1v8.5c0,3.5,2.9,6.3,6.4,6.3H108v2.1v0.1H21.4c-4.8,0-8.7-3.8-8.7-8.5V56.9
				c0-4.7,3.9-8.5,8.7-8.5H205C209.8,48.4,213.7,52.2,213.7,56.9z"/>
			<path d="M211.4,142.8v11.8c0,3.5-2.9,6.3-6.4,6.3h-86.6h-5.2H108H21.4c-3.5,0-6.4-2.8-6.4-6.2v-8.5h2.3v8.3v0.1
				c0,2.2,1.8,4,4.1,4H205c2.3,0,4.1-1.8,4.1-4v-0.1v-7.2h1.5v-0.1v-4.4H211.4z"/>
			<rect x="210.6" y="142.7" width="0.8" height="0.1"/>
			<path d="M211.4,56.9v85.8h-0.8v0.1h-1.5V56.9c0-0.7-0.2-1.4-0.5-1.9c-0.1-0.2-0.2-0.4-0.3-0.5c-0.2-0.2-0.4-0.5-0.7-0.7
				c-0.1-0.1-0.2-0.2-0.3-0.2c-0.7-0.5-1.5-0.8-2.4-0.8h-48.1l-0.5-0.4l-0.6,0.6H21.4h-0.1c-2.3,0-4.1,1.8-4.1,4v84.8H15V56.9
				c0-3.5,2.9-6.3,6.4-6.3H205C208.5,50.7,211.4,53.5,211.4,56.9z"/>
			<rect x="209.1" y="147.2" width="1.5" height="0.1"/>
			<rect x="209.1" y="142.8" width="1.5" height="4.4"/>
			<path d="M209.1,154.5v0.1c0,2.2-1.8,4-4.1,4H21.4c-2.3,0-4.1-1.8-4.1-4v-0.1c0,2.2,1.8,4,4.1,4H205
				C207.3,158.6,209.1,156.8,209.1,154.5z"/>
			<path class="st0" d="M209.1,147.3v7.2c0,2.2-1.8,4-4.1,4H21.4c-2.3,0-4.1-1.8-4.1-4v-8.3L209.1,147.3z"/>
			<polygon points="209.1,147.2 209.1,147.3 17.3,146.2 17.3,146.1 17.3,141.7 64.7,141.9 64.8,141.9 65.4,142.5 66,141.9 
				209.1,142.8 			"/>
			<path class="st1" d="M209.1,56.9v85.9L66,141.9L156.9,53v-0.1H205c0.9,0,1.7,0.2,2.3,0.7c0.1,0.1,0.2,0.2,0.3,0.2
				c0.2,0.2,0.5,0.4,0.7,0.7c0.1,0.2,0.2,0.3,0.3,0.5C208.9,55.6,209.1,56.3,209.1,56.9z"/>
			<path d="M207.6,53.8c-0.1-0.1-0.2-0.2-0.3-0.2C207.4,53.7,207.5,53.7,207.6,53.8z"/>
			<path d="M207.3,53.6c-0.7-0.4-1.5-0.7-2.3-0.7h-48.1l-0.1-0.1h48.1C205.8,52.8,206.6,53.1,207.3,53.6z"/>
			<polygon class="st1" points="156.9,52.9 156.9,53 66,141.9 			"/>
			<polygon class="st1" points="156.9,52.9 66,141.9 64.8,141.9 64.7,141.9 155.7,52.9 			"/>
			<polygon points="156.9,52.9 155.7,52.9 156.3,52.3 156.7,52.8 			"/>
			<path class="st0" d="M155.7,52.9l-91,89l-47.4-0.2V56.9c0-2.2,1.8-4,4.1-4H155.7z"/>
			<rect x="113.2" y="163.2" width="5.2" height="27.1"/>
			<rect x="113.2" y="160.9" width="5.2" height="2.2"/>
			<polygon points="113.2,163.2 113.2,190.3 108,190.3 108,163.3 108,163.2 			"/>
			<polygon points="113.2,160.9 113.2,163.2 108,163.2 108,161.1 108,160.9 			"/>
			<path d="M108,160.9v0.1H21.4c-3.6,0-6.4-2.8-6.4-6.3c0.1,3.4,2.9,6.2,6.4,6.2H108z"/>
			<polygon points="66,141.9 65.4,142.5 64.8,141.9 			"/>
			<path d="M21.3,52.9h0.1c-2.3,0-4.1,1.8-4.1,4v84.8h-0.1V56.9C17.2,54.7,19,52.9,21.3,52.9z"/>
			<rect x="15" y="146.1" width="2.3" height="0.1"/>
			<polygon points="17.3,141.7 17.3,146.1 15,146.1 15,144 15,141.7 17.2,141.7 			"/>
		</g>
		<g>
		</g>
	</g>
</g>
<g>
	<g id="XMLID_2_">
		<g>
			<path d="M265,129.7l-9.9,68.9c-0.6,3.9-4.2,6.6-8.2,6.1l-33.3-4.6c-4-0.5-6.7-4.2-6.2-8l9.9-68.9c0.6-3.9,4.2-6.6,8.2-6.1
				l33.3,4.6C262.8,122.3,265.6,125.9,265,129.7z M254,198.5l9.9-68.9c0.5-3.3-1.9-6.3-5.2-6.8l-33.3-4.6c-3.3-0.5-6.4,1.8-6.9,5.1
				l-9.9,68.9c-0.5,3.3,1.9,6.3,5.2,6.8l33.3,4.6C250.5,204.1,253.6,201.8,254,198.5z"/>
			<path d="M263.9,129.6l-9.9,68.9c-0.5,3.3-3.6,5.6-6.9,5.1l-33.3-4.6c-3.3-0.5-5.7-3.5-5.2-6.8l9.9-68.9c0.5-3.3,3.6-5.6,6.9-5.1
				l33.3,4.6C262.1,123.3,264.4,126.3,263.9,129.6z M252.9,198.4l9.9-68.9c0.4-2.7-1.5-5.1-4.2-5.5l-3.3-0.5l0,0l-0.3-0.1l0,0.1
				l-29.7-4.1c-2.7-0.4-5.2,1.5-5.6,4.1l-9.9,68.9c-0.4,2.7,1.5,5.1,4.2,5.5l9.8,1.4l23.5,3.2C250,202.9,252.5,201,252.9,198.4z"/>
			<path class="st1" d="M262.8,129.4l-9.9,68.9c-0.4,2.7-2.9,4.5-5.6,4.1l-23.5-3.2l31.4-75.8l3.3,0.5
				C261.3,124.3,263.1,126.8,262.8,129.4z M259.6,128.2c0.1-1-0.5-1.9-1.4-2s-1.8,0.6-1.9,1.5c-0.1,1,0.5,1.8,1.4,2
				S259.5,129.2,259.6,128.2z"/>
			<path d="M258.2,126.3c0.9,0.1,1.5,1,1.4,2c-0.1,1-1,1.6-1.9,1.5s-1.5-1-1.4-2C256.5,126.8,257.3,126.1,258.2,126.3z M259.3,128.2
				c0.1-0.8-0.4-1.6-1.2-1.7s-1.5,0.5-1.6,1.3c-0.1,0.8,0.4,1.5,1.2,1.6S259.2,129,259.3,128.2z"/>
			<path d="M258.2,126.5c0.8,0.1,1.3,0.8,1.2,1.7c-0.1,0.8-0.8,1.4-1.6,1.3s-1.3-0.8-1.2-1.6C256.7,127,257.4,126.4,258.2,126.5z
				 M259.1,128.1c0.1-0.7-0.3-1.3-0.9-1.3s-1.2,0.4-1.3,1c-0.1,0.7,0.3,1.2,0.9,1.3C258.4,129.3,259,128.8,259.1,128.1z"/>
			<path class="st2" d="M258.1,126.8c0.6,0.1,1,0.7,0.9,1.3c-0.1,0.7-0.7,1.1-1.3,1c-0.6-0.1-1-0.7-0.9-1.3
				C257,127.2,257.5,126.7,258.1,126.8z"/>
			<polygon points="255.2,123.5 255.2,123.5 254.9,123.4 255,123.4 			"/>
			<polygon class="st1" points="255.2,123.5 223.8,199.3 223.5,199.2 254.9,123.4 			"/>
			<path class="st0" d="M254.9,123.4l-31.4,75.7l0.3,0.1l-9.8-1.4c-2.7-0.4-4.6-2.8-4.2-5.5l9.9-68.9c0.4-2.7,2.9-4.5,5.6-4.1
				L254.9,123.4z M252.5,127.9l0.3-2.4l-23.4-3.2l-0.3,2.4L252.5,127.9z"/>
			<path d="M252.8,125.5l-0.3,2.4l-23.4-3.2l0.3-2.4L252.8,125.5z M252.2,127.6l0.3-1.8l-22.8-3.1l-0.3,1.8L252.2,127.6z"/>
			<path d="M252.5,125.7l-0.3,1.8l-22.8-3.1l0.3-1.8L252.5,125.7z M252,127.2l0.2-1.3l-22.3-3.1l-0.2,1.3L252,127.2z"/>
			<polygon class="st2" points="252.2,126 252,127.2 229.7,124.2 229.9,122.9 			"/>
		</g>
		<g>
		</g>
	</g>
</g>
</svg>
