<?xml version="1.0" encoding="utf-8"?>
<!-- Generator: Adobe Illustrator 25.2.3, SVG Export Plug-In . SVG Version: 6.00 Build 0)  -->
<svg version="1.1" id="Warstwa_1" xmlns="http://www.w3.org/2000/svg" xmlns:xlink="http://www.w3.org/1999/xlink" x="0px" y="0px"
	 viewBox="0 0 283.5 283.5" style="enable-background:new 0 0 283.5 283.5;" xml:space="preserve">
<style type="text/css">
	.st0{fill:#FFFFFF;}
	.st1{fill:#C7B299;}
	.st2{fill:#998675;}
	.st3{fill:#666666;}
	.st4{fill:#999999;}
	.st5{fill:#707A8F;}
	.st6{fill:#29ABE2;}
	.st7{fill:#ED1C24;}
	.st8{fill:#36ABE2;}
	.st9{fill:#97A39E;}
	.st10{fill:#CF1C24;}
	.st11{fill:#6D7370;}
	.st12{fill:#FCEE21;}
	.st13{fill:#FCD121;}
	.st14{fill:#22B573;}
	.st15{fill:#229C73;}
</style>
<g>
	<g id="XMLID_1_">
		<g>
			<path d="M117.4,63.4C117.4,63.4,117.4,63.4,117.4,63.4l-0.5,0.4c-0.2-0.2-0.3-0.4-0.5-0.7L117.4,63.4z"/>
			<path d="M117.4,63.4c-0.4-0.5-0.7-1-1.2-1.5c0.6,0.3,1.2,0.7,1.7,1.2c0,0,0,0,0,0L117.4,63.4C117.4,63.4,117.4,63.4,117.4,63.4z"
				/>
			<path d="M116.4,63.1c-0.2-0.3-0.4-0.5-0.6-0.8c0.6,0.2,1.1,0.6,1.6,1.1L116.4,63.1z"/>
			<path d="M116.2,61.9c0.5,0.5,0.9,1.1,1.2,1.5c-0.5-0.5-1-0.8-1.6-1.1h0c-0.2-0.3-0.5-0.6-0.8-0.9c0.4,0.1,0.7,0.2,1,0.3
				C116.1,61.9,116.1,61.9,116.2,61.9z"/>
			<path class="st0" d="M115.3,62.8l-0.4-0.1C115,62.7,115.1,62.8,115.3,62.8z"/>
			<path d="M115.8,62.4c0.2,0.2,0.4,0.5,0.6,0.8l-1.2-0.4c-0.1,0-0.2-0.1-0.4-0.1l-2.3-0.7C113.8,61.8,114.8,61.9,115.8,62.4
				L115.8,62.4z"/>
			<path class="st1" d="M88.5,75.8H54.6v3.6h33.9V75.8z M87.1,54.9l5.2,24.2l0.8-0.9c3.5-4.2,15-17.4,21.9-15.5l0.4,0.1
				c0.1,0,0.2,0.1,0.3,0.1c5.6,2.5,5.1,15.9,4.9,21.6c-1.2,35.5-4.9,79.2-7.8,109.8l-91.9,4.4c0.6-8.7,6.3-100.1,3.3-146.3
				L87.1,54.9z M32.8,79.9c0,3.1,2.5,5.6,5.5,5.6h2.2c3,0,5.5-2.5,5.5-5.6v-2.2c0-3.1-2.5-5.6-5.5-5.6h-2.2c-3,0-5.5,2.5-5.5,5.6
				V79.9z M87.7,102.6v-3.6H53.8v3.6H87.7z M85.7,122.7v-3.6H51.7v3.6H85.7z M46.1,101.9v-2.2c0-3.1-2.5-5.6-5.5-5.6h-2.2
				c-3,0-5.5,2.5-5.5,5.6v2.2c0,3.1,2.5,5.6,5.5,5.6h2.2C43.6,107.4,46.1,104.9,46.1,101.9z M44.9,122v-2.2c0-3.1-2.5-5.6-5.5-5.6
				h-2.2c-3,0-5.5,2.5-5.5,5.6v2.2c0,3.1,2.5,5.6,5.5,5.6h2.2C42.4,127.6,44.9,125.1,44.9,122z"/>
			<path class="st1" d="M115,61.5c-1.1-0.3-2.3-0.2-3.6,0.1l-22.6-6.9c4.1-0.6,15.2-1.3,22.3,3.4C112.5,59.1,113.8,60.2,115,61.5z"
				/>
			<path d="M115,61.5c0.3,0.3,0.5,0.6,0.8,0.9c-1-0.4-2-0.5-3.2-0.4l-1.2-0.4C112.7,61.3,113.9,61.2,115,61.5z"/>
			<path class="st1" d="M88.8,54.7l22.6,6.9c-6.5,1.6-14.4,10-18.5,14.9l-4.6-21.7C88.4,54.8,88.6,54.8,88.8,54.7z"/>
			<path d="M111.1,58.1c-7.1-4.7-18.2-4-22.3-3.4l-0.6-0.2l-0.1-0.3c3.4-0.6,15.5-1.7,23.3,3.4c2,1.3,3.6,2.8,4.8,4.3
				c0,0-0.1,0-0.1-0.1c-0.3-0.1-0.7-0.3-1-0.3C113.8,60.2,112.5,59.1,111.1,58.1z"/>
			<path d="M111.4,57.6c-7.7-5.1-19.9-4-23.3-3.4L88,53.8l-0.5,0c2.9-0.7,16-2,24.2,3.4c2.4,1.6,4.4,3.6,6.2,5.9
				c-0.5-0.5-1.1-0.9-1.7-1.2C115,60.5,113.4,59,111.4,57.6z"/>
			<path d="M112.6,62c-7.5,1-17.7,13-20,15.9c-1.6-7.6-3.3-15.3-4.9-22.9c0.2,0,0.3-0.1,0.6-0.1l4.6,21.7c4.1-4.9,12-13.3,18.5-14.9
				L112.6,62z"/>
			<path d="M88.2,54.6l0.6,0.2c-0.2,0-0.4,0.1-0.5,0.1L88.2,54.6z"/>
			<path d="M88.1,54.3l0.1,0.3l-0.6-0.2C87.7,54.3,87.9,54.3,88.1,54.3z"/>
			<path d="M88,53.8l0.1,0.5c-0.2,0-0.4,0.1-0.6,0.1l-0.1-0.6c0,0,0,0,0.1,0L88,53.8z"/>
			<path d="M88.2,54.8c-0.2,0-0.4,0.1-0.6,0.1c0-0.2-0.1-0.4-0.1-0.6l0.6,0.2L88.2,54.8z"/>
			<rect x="55.8" y="77" class="st2" width="31.6" height="1.2"/>
			<rect x="54.9" y="100.1" class="st2" width="31.6" height="1.2"/>
			<rect x="52.9" y="120.3" class="st2" width="31.6" height="1.2"/>
			<path d="M55.2,76.4h32.8v2.4H55.2V76.4z M55.8,78.2h31.6V77H55.8V78.2z"/>
			<path d="M54.6,75.8h33.9v3.6H54.6V75.8z M55.2,78.8h32.8v-2.4H55.2V78.8z"/>
			<path d="M54.3,99.5h32.8v2.4H54.3V99.5z M54.9,101.4h31.6v-1.2H54.9V101.4z"/>
			<path d="M53.8,98.9h33.9v3.6H53.8V98.9z M54.3,102h32.8v-2.4H54.3V102z"/>
			<path d="M84.5,121.5v-1.2H52.9v1.2H84.5z M85.1,119.7v2.4H52.3v-2.4H85.1z"/>
			<path d="M85.1,119.7H52.3v2.4h32.8V119.7z M51.7,119.1h33.9v3.6H51.7V119.1z"/>
			<path class="st2" d="M44.9,99.6v2.2c0,2.4-2,4.4-4.4,4.4h-2.2c-2.4,0-4.4-2-4.4-4.4v-2.2c0-2.4,2-4.4,4.4-4.4h2.2
				C42.9,95.2,44.9,97.2,44.9,99.6z"/>
			<path class="st2" d="M44.8,77.7v2.2c0,2.4-2,4.4-4.4,4.4h-2.2c-2.4,0-4.4-2-4.4-4.4v-2.2c0-2.4,2-4.4,4.4-4.4h2.2
				C42.9,73.3,44.8,75.3,44.8,77.7z"/>
			<path class="st2" d="M43.7,119.8v2.2c0,2.4-2,4.4-4.4,4.4h-2.2c-2.4,0-4.4-2-4.4-4.4v-2.2c0-2.4,2-4.4,4.4-4.4h2.2
				C41.8,115.4,43.7,117.3,43.7,119.8z"/>
			<path d="M33.4,98.9c0-2.3,1.9-4.2,4.2-4.2h3.6c2.3,0,4.2,1.9,4.2,4.2v3.8c0,2.3-1.9,4.2-4.2,4.2h-3.6c-2.3,0-4.2-1.9-4.2-4.2
				V98.9z M34,101.9c0,2.4,2,4.4,4.4,4.4h2.2c2.4,0,4.4-2,4.4-4.4v-2.2c0-2.4-2-4.4-4.4-4.4h-2.2c-2.4,0-4.4,2-4.4,4.4V101.9z"/>
			<path d="M37.6,94.6c-2.3,0-4.2,1.9-4.2,4.2v3.8c0,2.3,1.9,4.2,4.2,4.2h3.6c2.3,0,4.2-1.9,4.2-4.2v-3.8c0-2.3-1.9-4.2-4.2-4.2
				H37.6z M38.3,107.4c-3,0-5.5-2.5-5.5-5.6v-2.2c0-3.1,2.5-5.6,5.5-5.6h2.2c3,0,5.5,2.5,5.5,5.6v2.2c0,3.1-2.5,5.6-5.5,5.6H38.3z"
				/>
			<path d="M33.9,79.9c0,2.4,2,4.4,4.4,4.4h2.2c2.4,0,4.4-2,4.4-4.4v-2.2c0-2.4-2-4.4-4.4-4.4h-2.2c-2.4,0-4.4,2-4.4,4.4V79.9z
				 M37.6,84.9c-2.3,0-4.2-1.9-4.2-4.2v-3.8c0-2.3,1.9-4.2,4.2-4.2h3.6c2.3,0,4.2,1.9,4.2,4.2v3.8c0,2.3-1.9,4.2-4.2,4.2H37.6z"/>
			<path d="M38.3,85.5c-3,0-5.5-2.5-5.5-5.6v-2.2c0-3.1,2.5-5.6,5.5-5.6h2.2c3,0,5.5,2.5,5.5,5.6v2.2c0,3.1-2.5,5.6-5.5,5.6H38.3z
				 M33.3,80.7c0,2.3,1.9,4.2,4.2,4.2h3.6c2.3,0,4.2-1.9,4.2-4.2v-3.8c0-2.3-1.9-4.2-4.2-4.2h-3.6c-2.3,0-4.2,1.9-4.2,4.2V80.7z"/>
			<path d="M32.2,119c0-2.3,1.9-4.2,4.2-4.2h3.6c2.3,0,4.2,1.9,4.2,4.2v3.8c0,2.3-1.9,4.2-4.2,4.2h-3.6c-2.3,0-4.2-1.9-4.2-4.2V119z
				 M32.8,122c0,2.4,2,4.4,4.4,4.4h2.2c2.4,0,4.4-2,4.4-4.4v-2.2c0-2.4-2-4.4-4.4-4.4h-2.2c-2.4,0-4.4,2-4.4,4.4V122z"/>
			<path d="M32.2,122.8c0,2.3,1.9,4.2,4.2,4.2h3.6c2.3,0,4.2-1.9,4.2-4.2V119c0-2.3-1.9-4.2-4.2-4.2h-3.6c-2.3,0-4.2,1.9-4.2,4.2
				V122.8z M37.2,127.6c-3,0-5.5-2.5-5.5-5.6v-2.2c0-3.1,2.5-5.6,5.5-5.6h2.2c3,0,5.5,2.5,5.5,5.6v2.2c0,3.1-2.5,5.6-5.5,5.6H37.2z"
				/>
			<path d="M24.1,52.3c3,46.2-2.7,137.6-3.3,146.3l91.9-4.4c2.9-30.6,6.6-74.3,7.8-109.8c0.2-5.7,0.6-19.1-4.9-21.6
				c-0.1,0-0.2-0.1-0.3-0.1l1.2,0.4c0.2,0.2,0.3,0.4,0.5,0.7l0.5-0.3c4.2,4,3.9,14.9,3.7,21.1c-1.3,38.1-5.4,84.5-7.8,110.3l-93,4.4
				c0,0,6.5-99,3.3-147.6c21.3,0.9,42.7,1.8,64,2.7c0,0.2,0.1,0.4,0.1,0.6c1.6,7.6,3.3,15.3,4.9,22.9c2.4-2.9,12.5-14.9,20-15.9
				l2.3,0.7C108,60.9,96.5,74,93,78.2l-0.8,0.9l-5.2-24.2L24.1,52.3z"/>
			<path d="M23.5,51.7c3.3,48.6-3.3,147.6-3.3,147.6l93-4.4c2.5-25.8,6.6-72.2,7.8-110.3c0.2-6.2,0.5-17.1-3.7-21.1l0.5-0.4
				c4.4,4.3,4,15.7,3.8,21.5c-1.2,35.7-4.9,79.7-7.8,110.4l-0.1,0.5l-0.5,0l-93.7,4.4l0-0.7c0.1-1,6.5-99.5,3.3-147.5l0-0.7
				l64.6,2.7c0,0,0,0-0.1,0l0.1,0.6C66.2,53.5,44.9,52.6,23.5,51.7z"/>
		</g>
	</g>
</g>
<g>
	<g id="XMLID_3_">
		<g>
			<g>
				<g>
					<path class="st3" d="M267.2,79.6L233,219.5c-1.8,7.3-9.1,11.8-16.4,9.9l-100.8-25.6c-7.3-1.9-11.8-9.2-9.9-16.6L140,47.3
						c1.8-7.3,9.1-11.8,16.4-9.9L257.2,63C264.4,64.8,268.9,72.2,267.2,79.6z M232.1,219.3l34.1-139.9c1.6-6.8-2.5-13.6-9.2-15.4
						l-23.3-5.9l-0.9-0.5l-0.2,0.3l-76.4-19.5c-6.7-1.8-13.5,2.4-15.2,9.1l-34.1,139.9c-1.6,6.8,2.5,13.6,9.2,15.4l22.7,5.8l0.8,0.6
						l0.2-0.3l77.1,19.7C223.6,230.2,230.4,226.1,232.1,219.3z"/>
				</g>
			</g>
			<g>
				<g>
					<path class="st3" d="M266.2,79.3l-34.1,139.9c-1.7,6.8-8.5,10.9-15.3,9.1l-77.1-19.6l0.6-0.9l76.8,19.6
						c6.3,1.5,12.5-2.2,14.1-8.5L265.3,79c1.5-6.3-2.3-12.7-8.6-14.2l-22.6-5.7l0.3-0.5l-0.8-0.6l23.3,5.9
						C263.8,65.6,267.8,72.5,266.2,79.3z"/>
				</g>
			</g>
			<g>
				<g>
					<path class="st4" d="M265.3,79l-34.1,139.9c-1.5,6.3-7.8,10-14.1,8.5l-76.8-19.6l9.4-14.9c7.7,1,15.2-4,17.2-11.8l3.6-15
						c0.6-2.2,0.6-4.4,0.2-6.5l28.7-45.5c-0.2,0.5-0.3,1.2-0.6,1.8l-3.6,15c-2.1,8.5,3.1,17.1,11.4,19.1l15,3.8
						c8.4,2.1,16.8-3,18.9-11.4l3.6-15c2.1-8.5-3.1-17.1-11.4-19.1l-15-3.8c-5.6-1.4-11.2,0.4-15.1,4.3l12.3-19.6l35.2,9l0.2-1
						l1,0.2c2.1-8.5-1.9-16.7-8.8-18.5l-18.1-4.6l9.8-15.4l22.6,5.7C263,66.4,266.9,72.7,265.3,79z M227.7,196.9l3.6-15
						c2.1-8.5-3.1-17.1-11.4-19.1l-15-3.9c-8.4-2.1-16.8,3-18.9,11.4l-3.6,15c-2.1,8.5,3.1,17.1,11.4,19.1l15,3.9
						C217.2,210.5,225.7,205.3,227.7,196.9z"/>
				</g>
			</g>
			<g>
				<g>
					<path class="st3" d="M231.4,181.9l-3.6,15c-2.1,8.5-10.6,13.5-18.9,11.4l-15-3.8c-8.4-2.1-13.5-10.8-11.4-19.1l3.6-15
						c2.1-8.5,10.6-13.5,18.9-11.4l15,3.8C228.4,164.9,233.4,173.5,231.4,181.9z M226.8,196.6l3.6-15c2-7.9-2.9-15.9-10.8-17.9
						l-4.6-1.2l-10.2-2.6c-7.9-2-15.8,2.8-17.8,10.7l-3.6,15c-2,7.9,2.9,15.9,10.8,18l15,3.8C216.9,209.4,224.8,204.5,226.8,196.6z"
						/>
				</g>
			</g>
			<g>
				<g>
					<path class="st3" d="M244.1,127.6l-3.6,15c-2.1,8.5-10.6,13.5-18.9,11.4l-15-3.9c-8.4-2.1-13.5-10.8-11.4-19.1l3.6-15
						c0.1-0.5,0.3-1.2,0.5-1.8l3.4-5.4c3.7-3.8,9.5-5.7,15.1-4.3l15,3.9C241,110.6,246.2,119.2,244.1,127.6z M239.5,142.4l3.6-15
						c2-7.9-2.9-15.9-10.8-17.9l-15-3.8c-7.9-2-15.8,2.8-17.8,10.7l-3.6,15c-2,7.9,2.9,15.9,10.8,18l15,3.9
						C229.7,155.1,237.6,150.3,239.5,142.4z"/>
				</g>
			</g>
			<g>
				<g>
					<path class="st5" d="M251.5,97.6l-1-0.2l0.2-1l0,0c1.4-7.6-2.2-14.7-8.4-16.4l-18.5-4.6l0.5-0.9l18.2,4.6
						C249.5,80.9,253.4,89.1,251.5,97.6z"/>
				</g>
			</g>
			<g>
				<g>
					<path class="st3" d="M214.5,163.4l-10-2.5c-7.4-1.9-14.8,2.6-16.6,10l-3.6,15c-1.5,6.5,1.6,13.1,7.5,15.8
						c0.8,0.4,1.7,0.8,2.5,1l15,3.8c7.4,1.9,14.7-2.6,16.6-10l3.6-15c1.8-7.4-2.6-15-10-16.8L214.5,163.4z M215,162.5l4.6,1.2
						c7.9,2,12.6,10,10.8,17.9l-3.6,15c-2,7.9-9.9,12.8-17.7,10.7l-15-3.9c-7.9-2-12.6-10.1-10.8-18l3.6-15
						c2-7.9,9.9-12.8,17.8-10.7L215,162.5z"/>
				</g>
			</g>
			<g>
				<g>
					<path class="st3" d="M243.2,127.4l-3.6,15c-2,7.9-9.9,12.8-17.8,10.7l-15-3.9c-7.9-2-12.8-10-10.8-18l3.6-15
						c2-7.9,9.9-12.7,17.8-10.7l15,3.8C240.2,111.5,245.1,119.5,243.2,127.4z M238.6,142.2l3.6-15c1.8-7.4-2.8-15-10.1-16.8
						l-11.2-2.9l-0.9-0.6l-0.1,0.2l-2.8-0.7c-7.4-1.9-14.9,2.6-16.6,10l-3.6,15c-1,4-0.1,7.9,2,11l-0.2,0.3l0.9,0.4
						c1.9,2.3,4.4,4.1,7.5,5l15,3.8C229.3,154,236.8,149.5,238.6,142.2z"/>
				</g>
			</g>
			<g>
				<g>
					<polygon class="st3" points="250.5,97.4 250.2,98.3 215,89.4 215.6,88.5 249.6,97.2 					"/>
				</g>
			</g>
			<g>
				<g>
					<path class="st3" d="M250.7,96.4l-0.2,1C250.6,97.1,250.7,96.7,250.7,96.4L250.7,96.4z"/>
				</g>
			</g>
			<g>
				<g>
					<path class="st3" d="M250.5,97.4l-1-0.2c0.1-0.3,0.1-0.7,0.2-1l1,0.2C250.7,96.7,250.6,97.1,250.5,97.4z"/>
				</g>
			</g>
			<g>
				<g>
					<path class="st5" d="M250.7,96.4l-1-0.2c0.4-2.5,0.3-5-0.2-7.2l0,0c-1.1-4-3.7-7-7.4-8l-18.8-4.8l0.6-0.9l18.5,4.7
						C248.5,81.7,252.1,88.8,250.7,96.4z"/>
				</g>
			</g>
			<g>
				<g>
					<path class="st6" d="M229.5,181.4l-3.6,15c-1.8,7.4-9.2,11.9-16.6,10l-15-3.8c-0.9-0.2-1.8-0.6-2.5-1l22.8-38.3l4.9,1.2
						C226.8,166.5,231.3,174.1,229.5,181.4z"/>
				</g>
			</g>
			<g>
				<g>
					<path class="st7" d="M242.2,127.1l-3.6,15c-1.8,7.4-9.2,11.9-16.6,10l-15-3.8c-3.1-0.8-5.6-2.5-7.5-4.9l0.9,0.5l21.3-36
						l-0.8-0.4l11.2,2.9C239.5,112.2,244.1,119.7,242.2,127.1z"/>
				</g>
			</g>
			<g>
				<g>
					<path class="st3" d="M249.6,97.2l-34-8.7l0.5-0.9l33.7,8.6C249.7,96.5,249.6,96.8,249.6,97.2z"/>
				</g>
			</g>
			<g>
				<g>
					<path class="st3" d="M249.7,96.2L216,87.6l3.7-6.1l29.6,7.4l0,0C250.1,91.2,250.2,93.6,249.7,96.2z"/>
				</g>
			</g>
			<g>
				<g>
					<path class="st3" d="M249.5,89l-29.6-7.4l3.4-5.4l18.8,4.8C245.7,82,248.4,85.1,249.5,89z"/>
				</g>
			</g>
			<g>
				<g>
					<path class="st8" d="M214.5,163.4l-22.8,38.3c-5.8-2.8-9-9.4-7.5-15.8l3.6-15c1.8-7.4,9.2-11.9,16.6-10L214.5,163.4z"/>
				</g>
			</g>
			<g>
				<g>
					<polygon class="st3" points="234.5,58.4 234.2,59.1 232.2,58.6 232.6,57.7 233.7,58 					"/>
				</g>
			</g>
			<g>
				<g>
					<polygon class="st9" points="234.2,59.1 224.4,74.5 222.4,74 232.2,58.6 					"/>
				</g>
			</g>
			<g>
				<g>
					<path class="st10" d="M221.8,107.9l-21.3,36l-0.9-0.6c-0.2-0.2-0.4-0.6-0.7-0.9l21-35.3l1,0.2L221.8,107.9z"/>
				</g>
			</g>
			<g>
				<g>
					<polygon class="st3" points="233.7,58 232.6,57.7 232.9,57.5 					"/>
				</g>
			</g>
			<g>
				<g>
					<polygon class="st3" points="221,107.5 220,107.3 220.1,107 					"/>
				</g>
			</g>
			<g>
				<g>
					<path class="st3" d="M232.6,57.7l-0.5,0.9L156,39.2c-6.3-1.5-12.5,2.2-14.1,8.5l-34.1,139.9c-1.5,6.3,2.3,12.6,8.5,14.2l22,5.6
						L138,208l0.8,0.6l-22.7-5.8c-6.7-1.8-10.9-8.6-9.2-15.4L141,47.5c1.6-6.8,8.5-10.9,15.2-9.1L232.6,57.7z"/>
				</g>
			</g>
			<g>
				<g>
					<path class="st9" d="M232.2,58.6L222.5,74L162,58.6c-6.9-1.8-14.2,3.6-16.3,12.1l1,0.2l-0.2,1l66.8,17l-43.1,68.4
						c-1.8-4.8-5.7-8.8-11-10.1l-15-3.8c-8.4-2.1-16.8,3-18.9,11.4l-3.6,15c-2.1,8.5,3.1,17.1,11.4,19.1l14.7,3.7l-9.5,14.7l-22-5.6
						c-6.3-1.5-10-7.9-8.5-14.2l34.1-139.9c1.5-6.3,7.8-10,14.1-8.5L232.2,58.6z M179.5,127.1l3.6-15c2.1-8.5-3.1-17-11.4-19.1
						l-15-3.8c-8.4-2.1-16.8,3-18.9,11.4l-3.6,15c-2.1,8.5,3.1,17.1,11.4,19.1l15,3.9C169,140.6,177.4,135.4,179.5,127.1z"/>
				</g>
			</g>
			<g>
				<g>
					<path class="st10" d="M220,107.3l-21,35.3c-2.1-3.1-3-7.1-2-11l3.6-15c1.8-7.4,9.2-11.9,16.6-10L220,107.3z"/>
				</g>
			</g>
			<g>
				<g>
					<polygon class="st5" points="224.4,74.5 223.8,75.4 221.9,74.8 222.4,74 					"/>
				</g>
			</g>
			<g>
				<g>
					<polygon class="st5" points="223.8,75.4 223.3,76.3 221.3,75.7 221.9,74.8 					"/>
				</g>
			</g>
			<g>
				<g>
					<polygon class="st3" points="223.3,76.3 219.9,81.7 217.9,81.1 221.3,75.7 					"/>
				</g>
			</g>
			<g>
				<g>
					<path class="st5" d="M222.4,74l-0.6,0.9l-60.1-15.4c-6.2-1.5-12.6,3.1-14.8,10.4l0,0l-0.2,0.8c0,0.1,0,0.1-0.1,0.2l-1-0.2
						c2.1-8.5,9.4-13.9,16.3-12.1L222.4,74z"/>
				</g>
			</g>
			<g>
				<g>
					<path class="st5" d="M221.9,74.8l-0.6,0.9l-59.8-15.3c-3.7-1-7.7,0.7-10.6,4c-1.3,1.5-2.4,3.5-3.2,5.8l-1-0.2
						c2.2-7.4,8.7-12,14.9-10.5L221.9,74.8z"/>
				</g>
			</g>
			<g>
				<g>
					<polygon class="st3" points="219.9,81.7 216.1,87.6 214.2,87.2 217.9,81.1 					"/>
				</g>
			</g>
			<g>
				<g>
					<path class="st11" d="M221.3,75.7l-3.4,5.4l-67-16.7c2.8-3.3,6.7-4.8,10.6-4L221.3,75.7z"/>
				</g>
			</g>
			<g>
				<g>
					<path class="st11" d="M217.9,81.1l-3.7,6.1l-66.5-17c0.7-2.3,1.8-4.2,3.2-5.8L217.9,81.1z"/>
				</g>
			</g>
			<g>
				<g>
					<polygon class="st3" points="216.1,87.6 215.6,88.5 213.6,88 214.2,87.2 					"/>
				</g>
			</g>
			<g>
				<g>
					<polygon class="st3" points="215.6,88.5 215,89.4 213.1,88.8 213.6,88 					"/>
				</g>
			</g>
			<g>
				<g>
					<path class="st9" d="M215,89.4l-12.3,19.5c-1.4,1.5-2.6,3.3-3.4,5.4l-28.7,45.5c-0.1-0.9-0.3-1.8-0.7-2.5L213,88.9L215,89.4z"
						/>
				</g>
			</g>
			<g>
				<g>
					<path class="st3" d="M214.2,87.2l-0.6,0.9l-66.1-16.8c0.1-0.3,0.1-0.7,0.2-0.9L214.2,87.2z"/>
				</g>
			</g>
			<g>
				<g>
					<polygon class="st3" points="213.6,88 213.1,88.8 146.3,71.9 146.5,70.9 147.5,71.1 					"/>
				</g>
			</g>
			<g>
				<g>
					<path class="st3" d="M199.6,143.5l-0.9-0.4l0.2-0.3C199.2,142.9,199.4,143.1,199.6,143.5z"/>
				</g>
			</g>
			<g>
				<g>
					<path class="st3" d="M202.7,108.9l-3.4,5.4C200.1,112.2,201.3,110.5,202.7,108.9z"/>
				</g>
			</g>
			<g>
				<g>
					<path class="st3" d="M170.4,166.4l-3.6,15c-1.9,7.8-9.4,12.8-17.2,11.8l0.5-0.9l0,0l0.8,0.5l0.3-0.4
						c6.7,0.1,12.8-4.3,14.5-11.1l3.6-15c0.2-1.1,0.4-2.2,0.4-3.3l0,0l0.6-0.9l-0.6-0.4c0-0.1,0-0.3,0-0.4l0.8-1.3
						C171,162,170.9,164.2,170.4,166.4z"/>
				</g>
			</g>
			<g>
				<g>
					<path class="st3" d="M183.1,112.1l-3.6,15c-2.1,8.5-10.6,13.5-18.9,11.4l-15-3.9c-8.4-2.1-13.5-10.8-11.4-19.1l3.6-15
						c2.1-8.5,10.6-13.5,18.9-11.4l15,3.8C180.1,95.1,185.1,103.7,183.1,112.1z M178.5,126.9l3.6-15c2-7.9-2.9-16-10.8-17.9l-15-3.9
						c-7.9-2-15.8,2.8-17.8,10.7l-3.6,15c-2,7.9,2.9,16,10.8,18l15,3.8C168.6,139.5,176.5,134.8,178.5,126.9z"/>
				</g>
			</g>
			<g>
				<g>
					<path class="st3" d="M169.5,166.1l-3.6,15c-1.7,6.8-7.8,11.3-14.5,11.1l0.6-1c6.1-0.1,11.4-4.3,13-10.5l3.6-15
						c0.1-0.4,0.2-0.9,0.2-1.3l1.1-1.8C169.9,163.9,169.7,165,169.5,166.1z"/>
				</g>
			</g>
			<g>
				<g>
					<path class="st3" d="M170.5,162l-0.6,0.9c0-0.4,0-0.9,0-1.2L170.5,162z"/>
				</g>
			</g>
			<g>
				<g>
					<path class="st3" d="M169.9,162.8L169.9,162.8l-1.1,1.8c0.1-0.7,0.1-1.3,0.1-2l0.7-1.1l0.2,0.1
						C169.9,162,169.9,162.4,169.9,162.8z"/>
				</g>
			</g>
			<g>
				<g>
					<path class="st3" d="M170.6,159.9l-0.8,1.3c-0.1-1-0.2-1.9-0.6-2.8l0.7-1.1C170.3,158.1,170.5,159,170.6,159.9z"/>
				</g>
			</g>
			<g>
				<g>
					<path class="st3" d="M182.2,111.8l-3.6,15c-2,7.9-9.9,12.8-17.7,10.7l-15-3.8c-7.9-2-12.8-10-10.8-18l3.6-15
						c2-7.9,9.9-12.7,17.8-10.7l15,3.8C179.3,95.8,184.1,103.9,182.2,111.8z M177.6,126.5l3.6-15c1.8-7.4-2.8-14.9-10-16.8l0,0
						l-0.8-0.5l-0.2,0.3L156.3,91c-7.4-1.9-14.9,2.6-16.6,10l-3.6,15c-1.4,6.1,1.3,12.2,6.4,15.3l-0.1,0.2l1.5,1.2l0.3-0.4
						c0.7,0.3,1.3,0.5,2,0.7l15,3.8C168.3,138.4,175.8,134,177.6,126.5z"/>
				</g>
			</g>
			<g>
				<g>
					<path class="st3" d="M169.8,161.5l-0.2-0.1l0.2-0.3C169.8,161.3,169.8,161.4,169.8,161.5z"/>
				</g>
			</g>
			<g>
				<g>
					<path class="st3" d="M169.8,161.1l-0.2,0.3l-0.8-0.6c-0.1-0.6-0.1-1-0.2-1.4l0.7-1.1C169.6,159.3,169.7,160.2,169.8,161.1z"/>
				</g>
			</g>
			<g>
				<g>
					<path class="st3" d="M169.6,161.4l-0.7,1.1c0-0.5,0-1.1-0.1-1.6L169.6,161.4z"/>
				</g>
			</g>
			<g>
				<g>
					<path class="st12" d="M168.5,165.9l-3.6,15c-1.5,6.2-6.9,10.3-13,10.4l16.8-26.7C168.7,165,168.6,165.5,168.5,165.9z"/>
				</g>
			</g>
			<g>
				<g>
					<path class="st13" d="M168.8,164.6L152,191.3c-0.3,0-0.8,0-1.1,0l18.1-28.7C169,163.2,168.8,163.8,168.8,164.6z"/>
				</g>
			</g>
			<g>
				<g>
					<path class="st13" d="M169,162.5l-18.1,28.7c-0.3,0-0.7-0.1-1.1-0.1l19-30.2l0,0C168.8,161.4,169,162,169,162.5z"/>
				</g>
			</g>
			<g>
				<g>
					<path class="st14" d="M181.3,111.6l-3.6,15c-1.8,7.4-9.2,11.9-16.6,10l-15-3.9c-0.7-0.2-1.3-0.4-2-0.7l27.8-36.7l-0.8-0.6
						C178.5,96.7,183,104.2,181.3,111.6z"/>
				</g>
			</g>
			<g>
				<g>
					<path class="st3" d="M169.9,157.3l-0.7,1.1c-1.4-4.8-5.3-8.9-10.6-10.2l-15-3.9c-7.9-2-15.8,2.8-17.8,10.7l-3.6,15
						c-2,7.9,2.9,15.9,10.8,18l15,3.9h0.1l-0.6,0.9l-14.7-3.7c-8.4-2.1-13.5-10.8-11.4-19.1l3.6-15c2.1-8.5,10.6-13.5,18.9-11.4
						l15,3.9C164.2,148.5,168.2,152.5,169.9,157.3z"/>
				</g>
			</g>
			<g>
				<g>
					<path class="st13" d="M168.8,160.9L168.8,160.9l-19,30.2c-0.3,0-0.7-0.1-1-0.2l19.9-31.5C168.6,160,168.7,160.4,168.8,160.9z"
						/>
				</g>
			</g>
			<g>
				<g>
					<path class="st3" d="M169.3,158.3l-0.7,1.1c-1.1-4.9-4.9-9-10.1-10.3l-15-3.9c-7.4-1.9-14.9,2.6-16.6,10l-3.6,15
						c-1.8,7.4,2.8,15,10,16.8l15,3.8c0.1,0,0.3,0.1,0.4,0.1l-0.6,0.9H148l-15-3.9c-7.9-2-12.6-10.1-10.8-18l3.6-15
						c2-7.9,9.9-12.8,17.8-10.7l15,3.9C163.9,149.5,167.9,153.5,169.3,158.3z"/>
				</g>
			</g>
			<g>
				<g>
					<path class="st13" d="M168.6,159.4l-19.9,31.5c-0.1,0-0.3,0-0.4-0.1l-15-3.9c-7.4-1.9-11.9-9.5-10-16.8l3.6-15
						c1.8-7.4,9.2-11.9,16.6-10l15,3.9C163.7,150.4,167.4,154.6,168.6,159.4z"/>
				</g>
			</g>
			<g>
				<g>
					<path class="st3" d="M151.9,191.3l-0.6,1c-0.3,0-0.8,0-1.1-0.1l0,0l0,0l0.6-0.9C151.2,191.3,151.6,191.3,151.9,191.3z"/>
				</g>
			</g>
			<g>
				<g>
					<path class="st3" d="M151.4,192.3l-0.3,0.4l-0.8-0.5C150.6,192.2,151,192.2,151.4,192.3z"/>
				</g>
			</g>
			<g>
				<g>
					<path class="st3" d="M150.8,191.3l-0.6,0.9l-0.8-0.6l0.3-0.6C150.1,191.2,150.5,191.2,150.8,191.3z"/>
				</g>
			</g>
			<g>
				<g>
					<path class="st3" d="M150.3,192.2L150.3,192.2c-0.7,0-1.4-0.1-2.1-0.3l0.6-0.9c0.3,0.1,0.7,0.1,1,0.2l-0.3,0.6L150.3,192.2z"/>
				</g>
			</g>
			<g>
				<g>
					<path class="st3" d="M150.3,192.2l-0.6,0.9c-0.7-0.1-1.2-0.2-1.9-0.3h-0.2l0.6-0.9C148.8,192,149.6,192.1,150.3,192.2z"/>
				</g>
			</g>
			<g>
				<g>
					<path class="st9" d="M149.7,193.1l-9.4,14.8l-2-0.6l9.2-14.7h0.2C148.4,193,149,193.1,149.7,193.1z"/>
				</g>
			</g>
			<g>
				<g>
					<path class="st15" d="M171.9,95.4l-27.8,36.7c-0.7-0.2-1.2-0.6-1.8-0.9l27.8-36.7l1,0.2l0,0L171.9,95.4z"/>
				</g>
			</g>
			<g>
				<g>
					<polygon class="st3" points="171.2,94.9 170.2,94.5 170.4,94.2 					"/>
				</g>
			</g>
			<g>
				<g>
					<path class="st15" d="M170.2,94.5l-27.8,36.7c-5.1-3.1-7.8-9.2-6.4-15.3l3.6-15c1.8-7.4,9.2-11.9,16.6-10L170.2,94.5z"/>
				</g>
			</g>
			<g>
				<g>
					<polygon class="st3" points="140.4,207.9 139.8,208.8 138.8,208.5 138,208 138.4,207.4 					"/>
				</g>
			</g>
			<g>
				<g>
					<polygon class="st3" points="139.8,208.8 139.6,209 138.8,208.5 					"/>
				</g>
			</g>
			<g>
				<g>
					<path class="st3" d="M144.2,132.1l-0.3,0.4l-1.5-1.2l0.1-0.2C143,131.6,143.5,131.9,144.2,132.1z"/>
				</g>
			</g>
			<g>
				<g>
					<path class="st3" d="M146.8,70l1,0.2c-0.1,0.3-0.2,0.7-0.2,0.9l-1-0.2c0-0.1,0-0.1,0.1-0.2C146.6,70.4,146.7,70.2,146.8,70z"/>
				</g>
			</g>
			<g>
				<g>
					<path class="st3" d="M146.8,70c-0.1,0.2-0.1,0.4-0.2,0.7L146.8,70L146.8,70z"/>
				</g>
			</g>
		</g>
		<g>
			<g>
				<g>
					<polygon class="st3" points="249.4,89.5 219.8,82.1 217.8,81.6 150.8,64.9 151,63.9 218,80.6 220,81.2 249.6,88.5 					"/>
				</g>
			</g>
		</g>
	</g>
</g>
</svg>
