<?xml version="1.0" encoding="utf-8"?>
<!-- Generator: Adobe Illustrator 25.2.3, SVG Export Plug-In . SVG Version: 6.00 Build 0)  -->
<svg version="1.1" id="Warstwa_1" xmlns="http://www.w3.org/2000/svg" xmlns:xlink="http://www.w3.org/1999/xlink" x="0px" y="0px"
	 viewBox="0 0 283.5 283.5" style="enable-background:new 0 0 283.5 283.5;" xml:space="preserve">
<style type="text/css">
	.st0{fill:#666666;}
	.st1{fill:#999999;}
	.st2{fill:#707A8F;}
	.st3{fill:#29ABE2;}
	.st4{fill:#ED1C24;}
	.st5{fill:#36ABE2;}
	.st6{fill:#97A39E;}
	.st7{fill:#CF1C24;}
	.st8{fill:#6D7370;}
	.st9{fill:#FCEE21;}
	.st10{fill:#FCD121;}
	.st11{fill:#22B573;}
	.st12{fill:#229C73;}
	.st13{fill:none;stroke:#666666;stroke-miterlimit:10;}
	.st14{fill:#E7DED0;stroke:#C9B594;stroke-width:2;stroke-miterlimit:10;}
	.st15{fill:#D6B594;}
	.st16{fill:#C9B594;}
</style>
<g>
	<g id="XMLID_3_">
		<g>
			<path class="st0" d="M271.1,83.8L240,211c-1.6,6.6-8.3,10.7-14.9,9l-91.6-23.3c-6.6-1.7-10.7-8.4-9-15.1l31-127.2
				c1.6-6.6,8.3-10.7,14.9-9L262,68.7C268.6,70.4,272.7,77.1,271.1,83.8z M239.2,210.8l31-127.2c1.5-6.2-2.3-12.4-8.4-14l-21.2-5.4
				l-0.8-0.5l-0.2,0.3l-69.5-17.7c-6.1-1.6-12.3,2.2-13.8,8.3l-31,127.2c-1.5,6.2,2.3,12.4,8.4,14l20.6,5.3l0.7,0.5l0.2-0.3
				l70.1,17.9C231.5,220.7,237.7,217,239.2,210.8z"/>
			<path class="st0" d="M270.2,83.6l-31,127.2c-1.5,6.2-7.7,9.9-13.9,8.3l-70.1-17.9l0.5-0.8l69.8,17.8c5.7,1.4,11.4-2,12.8-7.7
				l31-127.2c1.4-5.7-2.1-11.5-7.8-12.9l-20.5-5.2l0.3-0.5l-0.7-0.5l21.2,5.4C268,71.1,271.7,77.4,270.2,83.6z"/>
			<path class="st1" d="M269.4,83.3l-31,127.2c-1.4,5.7-7.1,9.1-12.8,7.7l-69.8-17.8l8.5-13.5c7,0.9,13.8-3.6,15.6-10.7l3.3-13.6
				c0.5-2,0.5-4,0.2-5.9l26.1-41.4c-0.2,0.5-0.3,1.1-0.5,1.6l-3.3,13.6c-1.9,7.7,2.8,15.5,10.4,17.4l13.6,3.5
				c7.6,1.9,15.3-2.7,17.2-10.4l3.3-13.6c1.9-7.7-2.8-15.5-10.4-17.4l-13.6-3.5c-5.1-1.3-10.2,0.4-13.7,3.9l11.2-17.8l32,8.2
				l0.2-0.9l0.9,0.2c1.9-7.7-1.7-15.2-8-16.8l-16.5-4.2l8.9-14l20.5,5.2C267.3,71.8,270.8,77.6,269.4,83.3z M235.2,190.5l3.3-13.6
				c1.9-7.7-2.8-15.5-10.4-17.4l-13.6-3.5c-7.6-1.9-15.3,2.7-17.2,10.4L194,180c-1.9,7.7,2.8,15.5,10.4,17.4l13.6,3.5
				C225.7,202.8,233.4,198.1,235.2,190.5z"/>
			<path class="st0" d="M238.6,176.8l-3.3,13.6c-1.9,7.7-9.6,12.3-17.2,10.4l-13.6-3.5c-7.6-1.9-12.3-9.8-10.4-17.4l3.3-13.6
				c1.9-7.7,9.6-12.3,17.2-10.4l13.6,3.5C235.8,161.4,240.4,169.2,238.6,176.8z M234.4,190.2l3.3-13.6c1.8-7.2-2.6-14.5-9.8-16.3
				l-4.2-1.1l-9.3-2.4c-7.2-1.8-14.4,2.5-16.2,9.7l-3.3,13.6c-1.8,7.2,2.6,14.5,9.8,16.4l13.6,3.5
				C225.4,201.8,232.6,197.4,234.4,190.2z"/>
			<path class="st0" d="M250.1,127.5l-3.3,13.6c-1.9,7.7-9.6,12.3-17.2,10.4L216,148c-7.6-1.9-12.3-9.8-10.4-17.4l3.3-13.6
				c0.1-0.5,0.3-1.1,0.5-1.6l3.1-4.9c3.4-3.5,8.6-5.2,13.7-3.9l13.6,3.5C247.3,112,252,119.8,250.1,127.5z M245.9,140.9l3.3-13.6
				c1.8-7.2-2.6-14.5-9.8-16.3l-13.6-3.5c-7.2-1.8-14.4,2.5-16.2,9.7l-3.3,13.6c-1.8,7.2,2.6,14.5,9.8,16.4l13.6,3.5
				C237,152.5,244.2,148.1,245.9,140.9z"/>
			<path class="st2" d="M256.8,100.2l-0.9-0.2l0.2-0.9l0,0c1.3-6.9-2-13.4-7.6-14.9L231.7,80l0.5-0.8l16.5,4.2
				C255,85,258.6,92.5,256.8,100.2z"/>
			<path class="st0" d="M223.2,160l-9.1-2.3c-6.7-1.7-13.5,2.4-15.1,9.1l-3.3,13.6c-1.4,5.9,1.5,11.9,6.8,14.4
				c0.7,0.4,1.5,0.7,2.3,0.9l13.6,3.5c6.7,1.7,13.4-2.4,15.1-9.1l3.3-13.6c1.6-6.7-2.4-13.6-9.1-15.3L223.2,160z M223.7,159.2
				l4.2,1.1c7.2,1.8,11.5,9.1,9.8,16.3l-3.3,13.6c-1.8,7.2-9,11.6-16.1,9.7l-13.6-3.5c-7.2-1.8-11.5-9.2-9.8-16.4l3.3-13.6
				c1.8-7.2,9-11.6,16.2-9.7L223.7,159.2z"/>
			<path class="st0" d="M249.3,127.3l-3.3,13.6c-1.8,7.2-9,11.6-16.2,9.7l-13.6-3.5c-7.2-1.8-11.6-9.1-9.8-16.4l3.3-13.6
				c1.8-7.2,9-11.5,16.2-9.7l13.6,3.5C246.6,112.8,251,120.1,249.3,127.3z M245.1,140.7l3.3-13.6c1.6-6.7-2.5-13.6-9.2-15.3
				l-10.2-2.6l-0.8-0.5l-0.1,0.2l-2.5-0.6c-6.7-1.7-13.5,2.4-15.1,9.1l-3.3,13.6c-0.9,3.6-0.1,7.2,1.8,10l-0.2,0.3l0.8,0.4
				c1.7,2.1,4,3.7,6.8,4.5l13.6,3.5C236.7,151.5,243.5,147.4,245.1,140.7z"/>
			<polygon class="st0" points="255.9,100 255.7,100.8 223.7,92.7 224.2,91.9 255.1,99.8 			"/>
			<path class="st0" d="M256.1,99.1l-0.2,0.9C256,99.7,256.1,99.4,256.1,99.1L256.1,99.1z"/>
			<path class="st0" d="M255.9,100l-0.9-0.2c0.1-0.3,0.1-0.6,0.2-0.9l0.9,0.2C256.1,99.4,256,99.7,255.9,100z"/>
			<path class="st2" d="M256.1,99.1l-0.9-0.2c0.4-2.3,0.3-4.5-0.2-6.5l0,0c-1-3.6-3.4-6.4-6.7-7.3l-17.1-4.4l0.5-0.8l16.8,4.3
				C254.1,85.7,257.4,92.2,256.1,99.1z"/>
			<path class="st3" d="M236.8,176.4l-3.3,13.6c-1.6,6.7-8.4,10.8-15.1,9.1l-13.6-3.5c-0.8-0.2-1.6-0.5-2.3-0.9l20.7-34.8l4.5,1.1
				C234.4,162.8,238.5,169.7,236.8,176.4z"/>
			<path class="st4" d="M248.4,127l-3.3,13.6c-1.6,6.7-8.4,10.8-15.1,9.1l-13.6-3.5c-2.8-0.7-5.1-2.3-6.8-4.5l0.8,0.5l19.4-32.7
				l-0.7-0.4l10.2,2.6C245.9,113.5,250.1,120.3,248.4,127z"/>
			<path class="st0" d="M255.1,99.8l-30.9-7.9l0.5-0.8l30.6,7.8C255.2,99.2,255.1,99.5,255.1,99.8z"/>
			<path class="st0" d="M255.2,98.9l-30.6-7.8l3.4-5.5l26.9,6.7l0,0C255.6,94.4,255.7,96.6,255.2,98.9z"/>
			<path class="st0" d="M255,92.4l-26.9-6.7l3.1-4.9l17.1,4.4C251.6,86,254,88.8,255,92.4z"/>
			<path class="st5" d="M223.2,160l-20.7,34.8c-5.3-2.5-8.2-8.5-6.8-14.4l3.3-13.6c1.6-6.7,8.4-10.8,15.1-9.1L223.2,160z"/>
			<polygon class="st0" points="241.4,64.6 241.1,65.2 239.3,64.7 239.7,63.9 240.7,64.2 			"/>
			<polygon class="st6" points="241.1,65.2 232.2,79.2 230.4,78.7 239.3,64.7 			"/>
			<path class="st7" d="M229.8,109.6l-19.4,32.7l-0.8-0.5c-0.2-0.2-0.4-0.5-0.6-0.8l19.1-32.1l0.9,0.2L229.8,109.6z"/>
			<polygon class="st0" points="240.7,64.2 239.7,63.9 239.9,63.7 			"/>
			<polygon class="st0" points="229.1,109.2 228.2,109 228.3,108.7 			"/>
			<path class="st0" d="M239.7,63.9l-0.5,0.8L170,47.1c-5.7-1.4-11.4,2-12.8,7.7l-31,127.2c-1.4,5.7,2.1,11.5,7.7,12.9l20,5.1
				l-0.3,0.5l0.7,0.5l-20.6-5.3c-6.1-1.6-9.9-7.8-8.4-14l31-127.2c1.5-6.2,7.7-9.9,13.8-8.3L239.7,63.9z"/>
			<path class="st6" d="M239.3,64.7l-8.8,14l-55-14c-6.3-1.6-12.9,3.3-14.8,11l0.9,0.2l-0.2,0.9l60.7,15.5l-39.2,62.2
				c-1.6-4.4-5.2-8-10-9.2l-13.6-3.5c-7.6-1.9-15.3,2.7-17.2,10.4l-3.3,13.6c-1.9,7.7,2.8,15.5,10.4,17.4l13.4,3.4L154,200l-20-5.1
				c-5.7-1.4-9.1-7.2-7.7-12.9l31-127.2c1.4-5.7,7.1-9.1,12.8-7.7L239.3,64.7z M191.4,127l3.3-13.6c1.9-7.7-2.8-15.5-10.4-17.4
				l-13.6-3.5c-7.6-1.9-15.3,2.7-17.2,10.4l-3.3,13.6c-1.9,7.7,2.8,15.5,10.4,17.4l13.6,3.5C181.8,139.3,189.5,134.6,191.4,127z"/>
			<path class="st7" d="M228.2,109l-19.1,32.1c-1.9-2.8-2.7-6.5-1.8-10l3.3-13.6c1.6-6.7,8.4-10.8,15.1-9.1L228.2,109z"/>
			<polygon class="st2" points="232.2,79.2 231.7,80 229.9,79.5 230.4,78.7 			"/>
			<polygon class="st2" points="231.7,80 231.2,80.8 229.4,80.3 229.9,79.5 			"/>
			<polygon class="st0" points="231.2,80.8 228.1,85.7 226.3,85.2 229.4,80.3 			"/>
			<path class="st2" d="M230.4,78.7l-0.5,0.8l-54.7-13.9c-5.6-1.4-11.5,2.8-13.5,9.5l0,0l-0.2,0.7c0,0.1,0,0.1-0.1,0.2l-0.9-0.2
				c1.9-7.7,8.5-12.6,14.8-11L230.4,78.7z"/>
			<path class="st2" d="M229.9,79.5l-0.5,0.8L175,66.4c-3.4-0.9-7,0.6-9.6,3.6c-1.2,1.4-2.2,3.2-2.9,5.3l-0.9-0.2
				c2-6.7,7.9-10.9,13.5-9.5L229.9,79.5z"/>
			<polygon class="st0" points="228.1,85.7 224.7,91.1 222.9,90.7 226.3,85.2 			"/>
			<path class="st8" d="M229.4,80.3l-3.1,4.9L165.4,70c2.5-3,6.1-4.4,9.6-3.6L229.4,80.3z"/>
			<path class="st8" d="M226.3,85.2l-3.4,5.5l-60.4-15.4c0.6-2.1,1.6-3.8,2.9-5.3L226.3,85.2z"/>
			<polygon class="st0" points="224.7,91.1 224.2,91.9 222.4,91.5 222.9,90.7 			"/>
			<polygon class="st0" points="224.2,91.9 223.7,92.7 221.9,92.2 222.4,91.5 			"/>
			<path class="st6" d="M223.7,92.7l-11.2,17.8c-1.3,1.4-2.4,3-3.1,4.9l-26.1,41.4c-0.1-0.8-0.3-1.6-0.6-2.3l39.2-62.2L223.7,92.7z"
				/>
			<path class="st0" d="M222.9,90.7l-0.5,0.8l-60.1-15.3c0.1-0.3,0.1-0.6,0.2-0.8L222.9,90.7z"/>
			<polygon class="st0" points="222.4,91.5 221.9,92.2 161.2,76.8 161.4,75.9 162.3,76.1 			"/>
			<path class="st0" d="M209.7,141.9l-0.8-0.4l0.2-0.3C209.3,141.4,209.5,141.6,209.7,141.9z"/>
			<path class="st0" d="M212.5,110.5l-3.1,4.9C210.1,113.5,211.2,111.9,212.5,110.5z"/>
			<path class="st0" d="M183.1,162.7l-3.3,13.6c-1.7,7.1-8.5,11.6-15.6,10.7l0.5-0.8l0,0l0.7,0.5l0.3-0.4
				c6.1,0.1,11.6-3.9,13.2-10.1l3.3-13.6c0.2-1,0.4-2,0.4-3l0,0l0.5-0.8l-0.5-0.4c0-0.1,0-0.3,0-0.4l0.7-1.2
				C183.7,158.7,183.6,160.7,183.1,162.7z"/>
			<path class="st0" d="M194.7,113.4l-3.3,13.6c-1.9,7.7-9.6,12.3-17.2,10.4l-13.6-3.5c-7.6-1.9-12.3-9.8-10.4-17.4l3.3-13.6
				c1.9-7.7,9.6-12.3,17.2-10.4l13.6,3.5C191.9,97.9,196.5,105.7,194.7,113.4z M190.5,126.8l3.3-13.6c1.8-7.2-2.6-14.5-9.8-16.3
				l-13.6-3.5c-7.2-1.8-14.4,2.5-16.2,9.7l-3.3,13.6c-1.8,7.2,2.6,14.5,9.8,16.4l13.6,3.5C181.5,138.3,188.7,134,190.5,126.8z"/>
			<path class="st0" d="M182.3,162.5l-3.3,13.6c-1.5,6.2-7.1,10.3-13.2,10.1l0.5-0.9c5.5-0.1,10.4-3.9,11.8-9.5l3.3-13.6
				c0.1-0.4,0.2-0.8,0.2-1.2l1-1.6C182.7,160.5,182.5,161.5,182.3,162.5z"/>
			<path class="st0" d="M183.2,158.7l-0.5,0.8c0-0.4,0-0.8,0-1.1L183.2,158.7z"/>
			<path class="st0" d="M182.7,159.5L182.7,159.5l-1,1.6c0.1-0.6,0.1-1.2,0.1-1.8l0.6-1l0.2,0.1
				C182.7,158.7,182.7,159.1,182.7,159.5z"/>
			<path class="st0" d="M183.3,156.8l-0.7,1.2c-0.1-0.9-0.2-1.7-0.5-2.5l0.6-1C183,155.2,183.2,156,183.3,156.8z"/>
			<path class="st0" d="M193.8,113.1l-3.3,13.6c-1.8,7.2-9,11.6-16.1,9.7l-13.6-3.5c-7.2-1.8-11.6-9.1-9.8-16.4l3.3-13.6
				c1.8-7.2,9-11.5,16.2-9.7l13.6,3.5C191.2,98.6,195.6,105.9,193.8,113.1z M189.7,126.5l3.3-13.6c1.6-6.7-2.5-13.5-9.1-15.3l0,0
				l-0.7-0.5l-0.2,0.3l-12.6-3.2c-6.7-1.7-13.5,2.4-15.1,9.1l-3.3,13.6c-1.3,5.5,1.2,11.1,5.8,13.9l-0.1,0.2l1.4,1.1l0.3-0.4
				c0.6,0.3,1.2,0.5,1.8,0.6l13.6,3.5C181.2,137.3,188,133.3,189.7,126.5z"/>
			<path class="st0" d="M182.6,158.3l-0.2-0.1l0.2-0.3C182.6,158.1,182.6,158.2,182.6,158.3z"/>
			<path class="st0" d="M182.6,157.9l-0.2,0.3l-0.7-0.5c-0.1-0.5-0.1-0.9-0.2-1.3l0.6-1C182.4,156.3,182.5,157.1,182.6,157.9z"/>
			<path class="st0" d="M182.4,158.2l-0.6,1c0-0.5,0-1-0.1-1.5L182.4,158.2z"/>
			<path class="st9" d="M181.4,162.3l-3.3,13.6c-1.4,5.6-6.3,9.4-11.8,9.5l15.3-24.3C181.6,161.5,181.5,161.9,181.4,162.3z"/>
			<path class="st10" d="M181.7,161.1l-15.3,24.3c-0.3,0-0.7,0-1,0l16.5-26.1C181.8,159.8,181.7,160.4,181.7,161.1z"/>
			<path class="st10" d="M181.8,159.2l-16.5,26.1c-0.3,0-0.6-0.1-1-0.1l17.3-27.5l0,0C181.7,158.2,181.8,158.7,181.8,159.2z"/>
			<path class="st11" d="M193,112.9l-3.3,13.6c-1.6,6.7-8.4,10.8-15.1,9.1l-13.6-3.5c-0.6-0.2-1.2-0.4-1.8-0.6l25.3-33.4l-0.7-0.5
				C190.5,99.4,194.6,106.2,193,112.9z"/>
			<path class="st0" d="M182.7,154.5l-0.6,1c-1.3-4.4-4.8-8.1-9.6-9.3l-13.6-3.5c-7.2-1.8-14.4,2.5-16.2,9.7l-3.3,13.6
				c-1.8,7.2,2.6,14.5,9.8,16.4l13.6,3.5c0,0,0.1,0,0.1,0l-0.5,0.8l-13.4-3.4c-7.6-1.9-12.3-9.8-10.4-17.4l3.3-13.6
				c1.9-7.7,9.6-12.3,17.2-10.4l13.6,3.5C177.5,146.5,181.1,150.1,182.7,154.5z"/>
			<path class="st10" d="M181.7,157.7L181.7,157.7l-17.3,27.5c-0.3,0-0.6-0.1-0.9-0.2l18.1-28.6
				C181.5,156.9,181.6,157.3,181.7,157.7z"/>
			<path class="st0" d="M182.1,155.4l-0.6,1c-1-4.5-4.5-8.2-9.2-9.4l-13.6-3.5c-6.7-1.7-13.5,2.4-15.1,9.1l-3.3,13.6
				c-1.6,6.7,2.5,13.6,9.1,15.3L163,185c0.1,0,0.3,0.1,0.4,0.1l-0.5,0.8c0,0-0.1,0-0.1,0l-13.6-3.5c-7.2-1.8-11.5-9.2-9.8-16.4
				l3.3-13.6c1.8-7.2,9-11.6,16.2-9.7l13.6,3.5C177.2,147.4,180.8,151,182.1,155.4z"/>
			<path class="st10" d="M181.5,156.4l-18.1,28.6c-0.1,0-0.3,0-0.4-0.1l-13.6-3.5c-6.7-1.7-10.8-8.6-9.1-15.3l3.3-13.6
				c1.6-6.7,8.4-10.8,15.1-9.1l13.6,3.5C177,148.2,180.4,152,181.5,156.4z"/>
			<path class="st0" d="M166.3,185.4l-0.5,0.9c-0.3,0-0.7,0-1-0.1l0,0l0,0l0.5-0.8C165.7,185.4,166,185.4,166.3,185.4z"/>
			<path class="st0" d="M165.8,186.3l-0.3,0.4l-0.7-0.5C165.1,186.2,165.5,186.2,165.8,186.3z"/>
			<path class="st0" d="M165.3,185.4l-0.5,0.8l-0.7-0.5l0.3-0.5C164.7,185.3,165,185.3,165.3,185.4z"/>
			<path class="st0" d="M164.8,186.2L164.8,186.2c-0.6,0-1.3-0.1-1.9-0.3l0.5-0.8c0.3,0.1,0.6,0.1,0.9,0.2l-0.3,0.5L164.8,186.2z"/>
			<path class="st0" d="M164.8,186.2l-0.5,0.8c-0.6-0.1-1.1-0.2-1.7-0.3l-0.2,0l0.5-0.8C163.5,186,164.2,186.1,164.8,186.2z"/>
			<path class="st6" d="M164.3,187l-8.5,13.5L154,200l8.4-13.4l0.2,0C163.1,186.9,163.7,187,164.3,187z"/>
			<path class="st12" d="M184.5,98.2l-25.3,33.4c-0.6-0.2-1.1-0.5-1.6-0.8l25.3-33.4l0.9,0.2l0,0L184.5,98.2z"/>
			<polygon class="st0" points="183.8,97.7 182.9,97.4 183.1,97.1 			"/>
			<path class="st12" d="M182.9,97.4l-25.3,33.4c-4.6-2.8-7.1-8.4-5.8-13.9l3.3-13.6c1.6-6.7,8.4-10.8,15.1-9.1L182.9,97.4z"/>
			<polygon class="st0" points="155.8,200.5 155.3,201.3 154.4,201 153.7,200.6 154,200 			"/>
			<polygon class="st0" points="155.3,201.3 155.1,201.5 154.4,201 			"/>
			<path class="st0" d="M159.3,131.6l-0.3,0.4l-1.4-1.1l0.1-0.2C158.2,131.1,158.7,131.4,159.3,131.6z"/>
			<path class="st0" d="M161.7,75.1l0.9,0.2c-0.1,0.3-0.2,0.6-0.2,0.8l-0.9-0.2c0-0.1,0-0.1,0.1-0.2
				C161.5,75.5,161.6,75.3,161.7,75.1z"/>
			<path class="st0" d="M161.7,75.1c-0.1,0.2-0.1,0.4-0.2,0.6L161.7,75.1L161.7,75.1z"/>
		</g>
		<g>
			<polyline class="st13" points="165.4,70 226.3,85.2 228.1,85.7 255,92.4 255,92.4 			"/>
		</g>
	</g>
</g>
<image style="overflow:visible;" width="231" height="248" xlink:href="1F54D7F7.png"  transform="matrix(1 0 0 1 -26 16)">
</image>
<image style="overflow:visible;" width="201" height="237" xlink:href="1F54D7F5.png"  transform="matrix(1 0 0 1 -2 33)">
</image>
<g>
	<path class="st14" d="M150.6,238.6"/>
</g>
<g>
	<g>
		<path class="st15" d="M53.8,111c-1.8,0-3.3,1.8-2.9,3.6c0.4,1.9,2.4,2.9,4.1,2.8c1.8-0.1,3.6-1.3,4.3-2.9c0.8-1.7,0.5-3.8-0.5-5.4
			c-1.3-1.8-3.5-2.7-5.7-2.6c-0.3,0-0.8,0.2-0.8,0.6c0,0.4,0.4,0.5,0.7,0.5c3-0.1,5.6,2.4,5.3,5.4c-0.1,1.4-0.9,2.6-2.1,3.2
			c-1.2,0.6-2.6,0.2-3.4-0.8c-0.5-0.6-0.7-1.3-0.5-2c0.2-0.6,0.6-1.2,1.3-1.2c0.3,0,0.8-0.2,0.8-0.6C54.5,111.1,54.1,111,53.8,111
			L53.8,111z"/>
	</g>
</g>
<g>
	<g>
		<path class="st15" d="M81.3,114c-0.1-3.3,4.8-2,6.9-1.8c2.4,0.3,4.8,0.6,7.2,0.9c3.4,0.4,7.1,0.7,10.1-1.4
			c-0.4,0.1-0.8,0.2-1.2,0.3c1,0.4,2,0.7,3,1.1c0.3,0.1,1.3-0.1,1.3-0.5c-0.1-3.6,5.5-2.1,7.6-1.8c2,0.3,4.2,0.9,6.3,0.4
			c1.4-0.3,2.7-1.2,2.7-2.8c0.1-2.3-2-3.6-3.8-4.6c-0.4-0.2-1.6,0.4-1.4,0.5c1.8,1,4.4,2.6,3.6,5.1c-0.5,1.6-2.2,1.3-3.5,1.1
			c-1.3-0.2-2.6-0.4-3.9-0.5c-2.1-0.3-4.3-0.9-6.4-0.2c-1.4,0.5-2.7,1.6-2.7,3.2c0.4-0.2,0.9-0.3,1.3-0.5c-1-0.4-2.4-1.2-3.5-1.1
			c-0.4,0-0.7,0.3-1,0.5c-0.8,0.5-1.7,0.8-2.7,0.9c-2.9,0.3-6-0.4-8.8-0.7c-1.6-0.2-3.2-0.4-4.8-0.6c-1.3-0.2-2.6-0.4-3.9-0.3
			c-1.8,0.2-4,1.2-3.9,3.3C79.9,114.7,81.4,114.5,81.3,114L81.3,114z"/>
	</g>
</g>
<g>
	<g>
		<path class="st16" d="M57.9,138.6c0,0-0.1-0.1-0.1-0.1C57.8,138.6,57.9,138.6,57.9,138.6c-0.3-0.5-0.5-1-0.4-1.6c0,0,0,0.1,0,0.1
			c0-0.4,0.2-0.7,0.4-1c0,0.1-0.1,0.1-0.1,0.2c0.1-0.1,0.1-0.2,0.2-0.2c0,0,0.1-0.1,0.1-0.1c-0.2,0.2-0.1,0.1-0.1,0
			c0.2-0.1-0.1,0-0.1,0.1c0,0,0.3-0.1,0,0c-0.3,0.1-0.1,0,0,0c0,0-0.4,0.1-0.2,0.1c-0.5,0.1-0.3,0.1-0.2,0c0.2,0-0.4,0-0.2,0
			c0.3,0-0.2,0-0.1,0c0.1,0,0.1,0,0.2,0c0.1,0,0.2,0.1-0.1,0c0,0,0.1,0,0.1,0c0.1,0,0.2,0.1,0.3,0.1c-0.1,0-0.1-0.1-0.2-0.1
			c0.3,0.1,0.5,0.3,0.7,0.6c0,0-0.1-0.1-0.1-0.1c0.2,0.3,0.4,0.7,0.4,1.1c0,0,0-0.1,0-0.1c0,0.2-0.1,0.4-0.2,0.5
			c0-0.1,0.1-0.1,0.1-0.2c0,0-0.1,0.1-0.1,0.1c-0.1,0.1,0.2-0.2,0.1-0.1c-0.1,0.1,0.3-0.2,0.1-0.1c-0.1,0,0,0,0.2-0.1
			c0.3-0.1,0.4-0.1,0.3-0.1c0.3-0.1,0.4-0.1,0.3-0.1c0.1,0,0.2,0,0.3,0c-0.1,0,0,0,0.2,0c0,0,0,0-0.1,0c0,0,0.3,0.1,0.1,0
			c0,0-0.1,0-0.1,0c0.1,0,0.1,0.1,0.2,0.1c-0.1-0.1-0.2-0.1-0.3-0.2c0,0,0.1,0.1,0.1,0.1c0,0,0-0.1-0.1-0.1
			c-0.1-0.2-0.3-0.2-0.5-0.2c-0.3,0-0.7,0-1.1,0.1c-0.3,0.1-0.7,0.2-1,0.4c-0.1,0.1-0.4,0.3-0.3,0.5c0.2,0.4,0.7,0.6,1.2,0.6
			c0.5,0,0.9,0,1.4-0.2c0.5-0.1,0.9-0.3,1.3-0.6c0.5-0.3,0.7-0.7,0.8-1.3c0-0.5-0.2-0.9-0.4-1.2c-0.7-0.9-2-0.9-3-0.8
			c-1.2,0.2-2.7,0.8-3.3,2c-0.2,0.4-0.3,0.9-0.2,1.4c0.1,0.5,0.3,0.9,0.6,1.3c0.1,0.1,0.6,0.1,0.7,0.1c0.4,0,0.8-0.1,1.1-0.2
			c0.3-0.1,0.6-0.2,0.8-0.5c0-0.1,0.1-0.1,0.1-0.2C58,138.8,58,138.7,57.9,138.6L57.9,138.6z"/>
	</g>
</g>
<g>
	<g>
		<path class="st16" d="M76.1,135.9c0.6,0,1.5-0.1,2-0.5c0.4-0.3,0.5-0.6-0.2-0.6c-0.6,0-1.5,0.1-2,0.5
			C75.6,135.6,75.5,135.9,76.1,135.9L76.1,135.9z"/>
	</g>
</g>
<g>
	<g>
		<path class="st15" d="M55.8,136.7c-1.4,1.5-1.4,4,0.1,5.5c1.7,1.5,4.5,1.2,6.1-0.3c0.8-0.8,1.3-2,1.2-3.1c0-0.3-1.5,0-1.4,0.4
			c0.1,0.9-0.2,1.8-0.7,2.5c-0.2,0.3-0.6,0.6-0.9,0.8c-0.3,0.1-0.4,0.2-0.7,0.2c-1.8,0-3.1-1.6-3.2-3.3c-0.1-1,0.3-2,0.9-2.7
			c0.2-0.2-0.2-0.3-0.3-0.3C56.5,136.4,56,136.5,55.8,136.7L55.8,136.7z"/>
	</g>
</g>
<g>
	<g>
		<path class="st15" d="M78.7,136.1c0.4-0.7,1-1.4,1.9-1.3c0.8,0.1,1.5,0.7,1.9,1.3c0.8,1.2,1.3,2.3,2.8,2.4
			c1.3,0.1,2.7-0.5,3.5-1.5c1.1-1.2,1.3-3,1.4-4.5c-0.5,0.1-0.9,0.2-1.4,0.4c0.6,0.5,1.3,1,1.9,1.4c0.3,0.3,1.6-0.3,1.4-0.5
			c-0.6-0.5-1.3-1-1.9-1.4c-0.3-0.2-1.4,0-1.4,0.4c-0.2,1.5-0.3,3.4-1.5,4.6c-0.6,0.5-1.3,0.8-2,0.3c-0.7-0.4-1-1.2-1.4-1.8
			c-1.6-2.5-5.4-2.1-6.8,0.5C77.1,136.6,78.5,136.5,78.7,136.1L78.7,136.1z"/>
	</g>
</g>
<g>
	<g>
		<path class="st15" d="M98.7,137.1c0.2,0,0.4,0,0.6,0c0.2,0,0.4,0,0.5-0.1c0.1,0,0.2-0.1,0.3-0.1c0.1,0,0.2-0.1,0.2-0.1
			c0,0,0.1,0,0.1-0.1c0,0,0.1-0.1,0.1-0.1c0,0,0,0,0,0c-0.1,0-0.1,0-0.2,0c-0.2,0-0.4,0-0.6,0c-0.2,0-0.4,0-0.5,0.1
			c-0.1,0-0.2,0.1-0.3,0.1c-0.1,0-0.2,0.1-0.2,0.1c0,0-0.1,0-0.1,0.1c0,0-0.1,0.1-0.1,0.1c0,0,0,0,0,0
			C98.6,137.1,98.7,137.1,98.7,137.1L98.7,137.1z"/>
	</g>
</g>
<g>
	<g>
		<path class="st15" d="M111.3,136.4c-0.2-0.2-0.2-0.5-0.1-0.7c0-0.1,0.1-0.3,0.2-0.3c-0.2,0.1,0.3,0.2,0.3,0.2
			c0.6,0.2,1.1,0.6,1.6,0.9c1.3,0.5,2.7,0.3,4,0.2c1.4-0.1,2.9-0.1,4.3-0.3c0.8-0.1,2.5-0.7,2-1.8c-0.1-0.4-1.6,0.1-1.4,0.4
			c0.1,0.3,0.1,0.6-0.1,0.8c-0.2,0.2-0.7,0.1-0.9,0.1c-0.8,0-1.5,0.1-2.3,0.1c-1.4,0.1-3.1,0.4-4.4-0.2c-1.1-0.5-1.9-1.2-3.1-0.9
			c-0.8,0.2-2.1,1-1.4,1.9C110.1,137.2,111.5,136.6,111.3,136.4L111.3,136.4z"/>
	</g>
</g>
<g>
	<g>
		<path class="st16" d="M60.7,161.9c-0.2-0.3-0.4-0.5-0.6-0.8c0,0.1,0.1,0.1,0.1,0.2c-0.2-0.3-0.3-0.6-0.3-0.9c0,0.1,0,0.1,0,0.2
			c0-0.2,0-0.3,0.1-0.5c0,0.1-0.1,0.1-0.1,0.2c0-0.1,0.1-0.1,0.1-0.2c0.1-0.1-0.2,0.2-0.1,0.1c0.1-0.1-0.2,0.2-0.1,0.1
			c0.1,0,0,0-0.1,0c-0.1,0-0.2,0.1-0.3,0.1c-0.2,0.1-0.5,0.1-0.7,0.1c-0.1,0-0.2,0-0.2,0c-0.1,0-0.1,0-0.2-0.1c0,0,0.1,0.1,0.1,0.1
			c-0.1,0-0.1-0.1-0.2-0.1c0.1,0.1,0.1,0.1,0.2,0.2c0-0.1-0.1-0.1-0.1-0.2c0.1,0.1,0.1,0.3,0.1,0.4c0-0.1,0-0.1,0-0.2
			c0,0.2,0,0.3-0.1,0.5c0-0.1,0.1-0.1,0.1-0.2c0,0.1-0.1,0.1-0.1,0.2c0,0-0.1,0.1,0,0c0.1-0.1,0,0,0,0c-0.1,0.1,0.2-0.1,0.2-0.1
			c-0.1,0.1,0.2-0.1,0.2-0.1c0.3-0.1,0.3-0.1,0.2-0.1c-0.1,0,0,0,0.1,0c0.4-0.1-0.2,0,0.2,0c0.3,0,0,0,0,0c0,0,0.3,0,0.1,0
			c0,0-0.1,0-0.1,0c-0.2,0,0.2,0.1,0,0c-0.2-0.1-0.4-0.2-0.6-0.3c-0.3-0.2-0.7-0.4-1-0.6c-0.4-0.2-0.8-0.4-1.3-0.5
			c-0.4-0.1-0.7,0-1.1,0.1c-0.3,0.1-0.7,0.2-1,0.5c-0.2,0.1-0.4,0.4-0.3,0.6c0.1,0.2,0.3,0.4,0.6,0.4c0.1,0,0.1,0,0.2,0
			c0.1,0,0.1,0.1,0,0c0.1,0.1,0.2,0.1,0.3,0.1c0.2,0.1,0.4,0.2,0.5,0.3c0.4,0.2,0.7,0.5,1.1,0.7c0.6,0.3,1.3,0.4,2,0.3
			c0.7-0.1,1.5-0.3,2.1-0.9c0.3-0.3,0.5-0.7,0.6-1.1c0-0.4,0-0.8-0.3-1c-0.6-0.5-1.5-0.5-2.2-0.3c-0.7,0.2-1.4,0.6-1.7,1.2
			c-0.2,0.5-0.3,1-0.1,1.5c0.2,0.5,0.5,0.9,0.9,1.3c0.2,0.2,0.5,0.2,0.8,0.2c0.4,0,0.8-0.1,1.1-0.2
			C60.3,162.9,61.1,162.4,60.7,161.9L60.7,161.9z"/>
	</g>
</g>
<g>
	<g>
		<path class="st15" d="M58.3,159.1c-1.1-0.3-2.5,0.1-3.2,1c-0.6,0.8-0.7,1.8-0.1,2.6c0.6,0.9,1.7,1.2,2.7,1c1.1-0.2,2.2-0.9,2.6-2
			c0.4-1.1,0-2.3-0.8-3c-0.2-0.2-0.7,0-0.9,0.1c-0.1,0-0.6,0.3-0.4,0.5c0.6,0.5,0.9,1.3,0.9,2.1c0,0.4-0.1,0.8-0.3,1.1
			c-0.1,0.1-0.2,0.3-0.3,0.4c0,0-0.1,0.1-0.1,0.1c0,0-0.1,0.1-0.1,0.1c0,0,0,0,0,0c0,0-0.1,0-0.1,0c0,0-0.1,0.1-0.1,0
			c0.1,0-0.1,0-0.1,0c0,0,0.2,0,0,0c-0.1,0,0,0,0,0c-0.1,0-0.1,0,0,0c0,0-0.2,0-0.1,0c0,0-0.2,0-0.2,0c-0.3-0.1-0.7-0.3-0.9-0.5
			c-0.5-0.5-0.8-1.3-0.6-2c0.1-0.4,0.4-0.7,0.6-0.9c0.1-0.1,0,0,0,0c0.1,0,0.1-0.1,0.2-0.1c-0.1,0.1,0,0,0,0c-0.1,0-0.1,0,0,0
			c0,0-0.1,0-0.1,0c0,0,0.2,0,0.1,0c-0.1,0,0,0,0,0c-0.1,0-0.1,0,0,0c0.1,0,0.1,0,0.2,0c0.3,0.1,0.7,0,1-0.2
			C58.2,159.4,58.6,159.2,58.3,159.1L58.3,159.1z"/>
	</g>
</g>
<g>
	<g>
		<path class="st15" d="M76.4,162.8c0-0.3,0.1-0.5,0.3-0.7c0.2-0.2,0.4-0.1,0.6,0c0.6,0.1,1.1,0.5,1.6,0.7c0.9,0.4,1.9,0.5,2.8,0.2
			c0.8-0.3,1.5-0.8,1.4-1.7c0-0.8-0.6-1.4-1.3-1.5c-0.3-0.1-0.7,0.1-0.9,0.2c-0.1,0-0.4,0.3-0.2,0.4c2,1.3,4.6,1.6,6.9,0.8
			c0.2-0.1,0.7-0.2,0.6-0.5c-0.1-0.3-0.7-0.1-0.8-0.1c-1.8,0.6-3.8,0.2-5.4-0.8c-0.4,0.2-0.8,0.4-1.1,0.6c0.7,0.1,1.1,1.3,0.6,1.9
			c-0.5,0.5-1.9-0.4-2.4-0.6c-0.9-0.4-1.8-0.5-2.7-0.1c-0.7,0.3-1.4,0.8-1.4,1.6C74.9,163.5,76.4,163.3,76.4,162.8L76.4,162.8z"/>
	</g>
</g>
<g>
	<g>
		<path class="st15" d="M98.4,160.9c-1.6,0.1-3.3,0.1-4.9,0.2c-0.5,0-1.6,0.7-0.6,0.7c9.2-0.1,18.5-0.2,27.7-0.3
			c0.5,0,1.6-0.7,0.6-0.7c-9.2,0.1-18.5,0.2-27.7,0.3c-0.2,0.2-0.4,0.5-0.6,0.7c1.6-0.1,3.3-0.1,4.9-0.2
			C98.3,161.6,99.4,160.9,98.4,160.9L98.4,160.9z"/>
	</g>
</g>
<g>
	<g>
		<path class="st16" d="M83.1,161.5c3.3,0,6.7,0.1,10,0.1c0.6,0,1.5-0.2,1.9-0.8c0.4-0.6-0.3-0.8-0.8-0.8c-3.3,0-6.7-0.1-10-0.1
			c-0.6,0-1.5,0.2-1.9,0.8C82,161.3,82.7,161.5,83.1,161.5L83.1,161.5z"/>
	</g>
</g>
<g>
	<g>
		<path class="st15" d="M122.4,160.5c1.9,0.4,4.1-0.4,5.3-2c0.6-0.9,0.7-1.9,1.1-2.9c0.1-0.2,0.2-0.5,0.3-0.7
			c0.1-0.1,0.2-0.2,0.3-0.3c0,0,0,0,0.1-0.1c0.1-0.1,0.1-0.1-0.1,0c0,0,0.3,0.1,0.3,0.1c0.2,0.1,0.3,0.3,0.4,0.5
			c0.1,0.4,1.6,0,1.4-0.4c-0.3-1-1.6-1-2.5-0.7c-1.1,0.4-1.6,1.3-1.9,2.4c-0.3,1-0.5,2-1.4,2.7c-0.6,0.5-1.4,0.8-2.2,0.7
			c-0.3-0.1-0.7,0-1,0.2C122.4,160.1,122,160.4,122.4,160.5L122.4,160.5z"/>
	</g>
</g>
<g>
	<g>
		<path class="st15" d="M60.3,185.4c-0.1,0-0.1-0.1-0.2-0.1c0.1,0-0.1-0.1-0.1-0.1c0,0-0.1-0.1-0.1-0.1c0,0-0.1-0.1,0,0
			c0,0,0-0.1-0.1-0.1c0-0.1-0.1-0.2-0.1-0.3c0-0.1,0-0.2,0-0.3c0-0.1,0-0.1,0-0.2c0,0,0,0,0-0.1c0,0.1,0,0,0,0
			c0-0.1,0.1-0.1,0.1-0.1c-0.1,0.1,0,0,0,0c0,0,0,0,0.1,0c0.1,0,0,0,0,0c0,0,0.1,0,0.1,0c0.1-0.1,0,0,0,0c0,0,0,0,0,0
			c0.1,0,0.1,0-0.1,0c0,0,0.1,0,0.1,0c-0.1,0.1-0.2,0-0.1,0c0.2,0,0,0,0,0c0,0,0.1,0,0.1,0c0,0,0,0,0.1,0c0,0,0,0,0,0
			c0.1,0,0.2,0,0.2,0c0,0-0.1,0,0,0c0,0,0.1,0,0.1,0c0.2,0.1,0.2,0.1,0.3,0.2c0.2,0.2,0.4,0.5,0.5,0.8c0.2,0.6,0.1,1.3-0.2,1.8
			c0,0,0,0.1-0.1,0.1c0,0-0.1,0.1,0,0c0,0-0.1,0.1-0.1,0.1c0.1-0.1,0,0,0,0c0,0,0.2-0.1,0,0c0.1,0,0.1,0,0.1,0c0,0,0.1,0,0.1,0
			c0,0-0.2,0,0,0c0.1,0,0.1,0,0,0c-0.1,0-0.1,0,0,0c0,0-0.1,0-0.1,0c-0.1,0,0.1,0,0,0c0,0-0.1,0-0.1,0c0,0,0,0-0.1,0c0,0,0,0,0,0
			c-0.1-0.1-0.2-0.2-0.2-0.3c-0.1-0.3-0.6-0.2-0.8-0.2c-0.2,0.1-0.7,0.3-0.6,0.6c0.1,0.4,0.5,0.7,0.9,0.8c0.6,0.1,1.2,0,1.7-0.3
			c0.8-0.5,1.2-1.5,1-2.4c-0.1-0.9-0.7-1.6-1.6-1.8c-0.5-0.1-1.1-0.1-1.6,0.1c-0.4,0.2-0.9,0.5-1.1,0.9c-0.4,0.7-0.2,1.8,0.7,2.1
			c0.3,0.1,0.7,0.1,1-0.1C60.3,185.8,60.6,185.5,60.3,185.4L60.3,185.4z"/>
	</g>
</g>
<g>
	<g>
		<path class="st15" d="M77.1,183.6c6.6,0,13.1,0.1,19.7,0.1c3.2,0,6.4,0.1,9.5,0c2.1,0,4.4-0.2,5.9-1.9c0.6-0.7-0.8-0.8-1.2-0.4
			c-1.7,2-5.3,1.3-7.6,1.3c-2.9,0-5.8,0-8.6,0c-5.8,0-11.5-0.1-17.3-0.1C77,182.6,76.1,183.5,77.1,183.6L77.1,183.6z"/>
	</g>
</g>
<g>
	<g>
		<path class="st15" d="M110.5,181.4c1.1,1.3,2.7,2,4.4,2c0.2,0,1.6-0.4,1.1-0.6c-1.4-0.5-2.8-0.9-4.1-1.4c-0.4,0.2-0.8,0.4-1.2,0.6
			c4.3,1.1,8.8,0.6,13.2,0.1c4.8-0.5,9.6-1,14.4-1.4c0.4,0,1.6-0.7,0.6-0.6c-4.5,0.4-9,0.9-13.4,1.3c-4.5,0.4-9.2,1.2-13.6,0
			c-0.3-0.1-1.6,0.4-1.2,0.6c1.4,0.5,2.8,0.9,4.1,1.4c0.4-0.2,0.7-0.4,1.1-0.6c-1.6,0-2.9-0.7-4-1.9
			C111.6,180.6,110.3,181.1,110.5,181.4L110.5,181.4z"/>
	</g>
</g>
</svg>
