<?xml version="1.0" encoding="utf-8"?>
<!-- Generator: Adobe Illustrator 25.2.3, SVG Export Plug-In . SVG Version: 6.00 Build 0)  -->
<svg version="1.1" id="Warstwa_1" xmlns="http://www.w3.org/2000/svg" xmlns:xlink="http://www.w3.org/1999/xlink" x="0px" y="0px"
	 viewBox="0 0 283.5 283.5" style="enable-background:new 0 0 283.5 283.5;" xml:space="preserve">
<style type="text/css">
	.st0{fill:#C8C8C8;}
	.st1{fill:#A9A9A9;}
	.st2{fill:#DCCE2A;}
	.st3{fill:#808080;}
	.st4{fill:#00B800;}
	.st5{fill:#FFFFFF;}
	.st6{fill:#D3CACF;}
</style>
<g id="XMLID_1_">
	<g>
		<g>
			<g id="XMLID_2_">
				<g>
					<polygon class="st0" points="99.3,86.5 99.3,180.1 75.6,194.7 75.6,101.1 					"/>
					<polygon points="99.8,85.6 100.3,85.6 100.3,180.4 99.8,180.4 99.5,179.9 99.3,180.1 99.3,86.5 100,86 					"/>
					<polygon points="99.8,180.4 100,180.8 75.6,195.9 75.6,194.7 99.3,180.1 99.3,180.4 					"/>
					<polygon points="99.8,85.6 100,86 99.3,86.5 99.3,86.1 99.8,86.1 					"/>
					<polygon points="99.8,85.6 99.8,86.1 99.3,86.1 99.3,85.9 					"/>
					<polygon points="99.8,85.1 99.8,85.6 99.5,85.1 98.8,85.6 44.2,85.6 44.2,85.1 					"/>
					<polygon points="99.5,85.1 99.8,85.6 99.3,85.6 98.8,85.6 					"/>
					<polygon points="99.5,179.9 99.8,180.4 99.3,180.4 99.3,180.1 					"/>
					<polygon points="99.8,85.6 99.3,85.9 99.3,85.6 					"/>
					<polygon points="99.3,86.1 99.3,86.5 75.6,101.1 75.6,100.5 99,86.1 					"/>
					<polygon points="99.3,85.9 99.3,86.1 99,86.1 					"/>
					<polygon points="99.3,85.6 99.3,85.9 99,86.1 98,86.1 98.8,85.6 					"/>
					<polygon points="99,86.1 75.6,100.5 75.6,100.3 74.9,100.3 98,86.1 					"/>
					<polygon points="98.8,85.6 98,86.1 44.4,86.1 44.5,86 44.2,85.6 					"/>
					<rect x="46" y="89.2" width="37.1" height="1"/>
					<polygon points="75.6,194.7 75.6,195.9 75.3,196 75.1,195.6 75.1,195.6 75.1,195 					"/>
					<polygon points="75.6,100.5 75.6,101.1 75.3,101.2 75.1,100.8 					"/>
					<polygon points="75.6,100.3 75.6,100.5 75.1,100.8 74.8,100.4 74.9,100.3 					"/>
					<polygon points="75.3,101.2 75.6,101.1 75.6,194.7 75.1,195 75.1,100.8 					"/>
					<polygon points="75.1,195 75.1,195.6 75.1,195.6 74.8,195.2 					"/>
					<rect x="38" y="92.7" width="37.1" height="1"/>
					<polygon points="74.8,100.4 75.1,100.8 20.5,100.8 21.3,100.3 74.9,100.3 					"/>
					<rect x="31.6" y="96.5" width="37.1" height="1"/>
					<path class="st1" d="M60,117.8c-0.2,0-0.3,0.1-0.3,0.3c0,0.2,0.1,0.3,0.3,0.3c0.1,0,0.3-0.1,0.3-0.3
						C60.3,117.9,60.1,117.8,60,117.8z M58.8,118.1c0-0.7,0.5-1.2,1.2-1.2s1.2,0.6,1.2,1.2c0,0.7-0.5,1.2-1.2,1.2
						C59.3,119.3,58.8,118.7,58.8,118.1z"/>
					<path class="st1" d="M58.8,133.3c0-0.7,0.5-1.2,1.2-1.2s1.2,0.5,1.2,1.2s-0.5,1.2-1.2,1.2C59.3,134.6,58.8,134,58.8,133.3z
						 M60,133.1c-0.2,0-0.3,0.1-0.3,0.3s0.1,0.3,0.3,0.3c0.1,0,0.3-0.1,0.3-0.3C60.3,133.2,60.1,133.1,60,133.1z"/>
					<path class="st1" d="M59.7,164.7c0,0.2,0.1,0.3,0.3,0.3c0.1,0,0.3-0.1,0.3-0.3s-0.1-0.3-0.3-0.3
						C59.8,164.4,59.7,164.6,59.7,164.7z M60,165.9c-0.7,0-1.2-0.5-1.2-1.2s0.5-1.2,1.2-1.2s1.2,0.5,1.2,1.2S60.7,165.9,60,165.9z"
						/>
					<path class="st1" d="M59.7,149c0,0.1,0.1,0.3,0.3,0.3c0.1,0,0.3-0.1,0.3-0.3s-0.1-0.3-0.3-0.3C59.8,148.8,59.7,148.9,59.7,149z
						 M60,150.2c-0.7,0-1.2-0.6-1.2-1.2c0-0.7,0.5-1.2,1.2-1.2s1.2,0.6,1.2,1.2C61.2,149.7,60.6,150.2,60,150.2z"/>
					<ellipse class="st2" cx="58.2" cy="188.2" rx="2.5" ry="2.5"/>
					<path d="M58.2,164.7c0-1,0.8-1.8,1.8-1.8s1.8,0.8,1.8,1.8s-0.8,1.8-1.8,1.8S58.2,165.7,58.2,164.7z M60,163.5
						c-0.7,0-1.2,0.5-1.2,1.2s0.5,1.2,1.2,1.2s1.2-0.5,1.2-1.2S60.6,163.5,60,163.5z"/>
					<path d="M60,132.1c-0.7,0-1.2,0.6-1.2,1.2s0.5,1.2,1.2,1.2s1.2-0.6,1.2-1.2C61.2,132.7,60.7,132.1,60,132.1z M58.2,133.3
						c0-1,0.8-1.8,1.8-1.8s1.8,0.8,1.8,1.8s-0.8,1.8-1.8,1.8S58.2,134.3,58.2,133.3z"/>
					<path d="M60,116.8c-0.7,0-1.2,0.6-1.2,1.2c0,0.7,0.5,1.2,1.2,1.2s1.2-0.5,1.2-1.2C61.2,117.4,60.6,116.8,60,116.8z M58.2,118.1
						c0-1,0.8-1.8,1.8-1.8s1.8,0.8,1.8,1.8s-0.8,1.8-1.8,1.8C59,119.8,58.2,119,58.2,118.1z"/>
					<path d="M58.2,149c0-1,0.8-1.8,1.8-1.8s1.8,0.8,1.8,1.8s-0.8,1.8-1.8,1.8S58.2,150,58.2,149z M60,147.8c-0.7,0-1.2,0.6-1.2,1.2
						c0,0.7,0.5,1.2,1.2,1.2s1.2-0.6,1.2-1.2C61.2,148.4,60.6,147.8,60,147.8z"/>
					<path d="M55.3,188.2c0-1.6,1.3-2.9,2.9-2.9c1.6,0,2.9,1.3,2.9,2.9c0,1.6-1.3,2.9-2.9,2.9C56.6,191.1,55.3,189.8,55.3,188.2z
						 M58.2,185.7c-1.4,0-2.5,1.1-2.5,2.5s1.1,2.5,2.5,2.5s2.5-1.1,2.5-2.5S59.6,185.7,58.2,185.7z"/>
					<path d="M58.2,185.3c-1.6,0-2.9,1.3-2.9,2.9c0,1.6,1.3,2.9,2.9,2.9c1.6,0,2.9-1.3,2.9-2.9S59.8,185.3,58.2,185.3z M58.2,191.5
						c-1.8,0-3.3-1.5-3.3-3.3s1.5-3.3,3.3-3.3s3.3,1.5,3.3,3.3S60,191.5,58.2,191.5z"/>
					<path class="st3" d="M54.9,188.2c0,1.8,1.5,3.3,3.3,3.3s3.3-1.5,3.3-3.3s-1.5-3.3-3.3-3.3S54.9,186.4,54.9,188.2z M50.4,191.4
						c1.8,0,3.3-1.5,3.3-3.3s-1.5-3.3-3.3-3.3s-3.3,1.5-3.3,3.3C47.2,189.9,48.6,191.4,50.4,191.4z M74.6,101.3v93.8H20v-93.8H74.6z
						 M68.6,165.2v-5.1H26v6l5.3,3.7h32.1L68.6,165.2z M68.6,149.5v-5.1H26v6l5.3,3.7h32.1L68.6,149.5z M68.6,133.8v-5.1H26v6
						l5.3,3.7h32.1L68.6,133.8z M68.6,118.5v-5.1H26v6l5.3,3.7h32.1L68.6,118.5z"/>
					<path class="st1" d="M52.3,117.8c-0.2,0-0.3,0.1-0.3,0.3c0,0.2,0.1,0.3,0.3,0.3c0.1,0,0.3-0.1,0.3-0.3
						C52.5,117.9,52.4,117.8,52.3,117.8z M51,118.1c0-0.7,0.5-1.2,1.2-1.2s1.2,0.6,1.2,1.2c0,0.7-0.6,1.2-1.2,1.2
						C51.6,119.3,51,118.7,51,118.1z"/>
					<path class="st1" d="M52,133.3c0,0.2,0.1,0.3,0.3,0.3c0.1,0,0.3-0.1,0.3-0.3s-0.1-0.3-0.3-0.3C52.1,133.1,52,133.2,52,133.3z
						 M51,133.3c0-0.7,0.5-1.2,1.2-1.2s1.2,0.6,1.2,1.2s-0.6,1.2-1.2,1.2C51.6,134.6,51,134,51,133.3z"/>
					<path class="st1" d="M51,164.7c0-0.7,0.5-1.2,1.2-1.2s1.2,0.5,1.2,1.2s-0.6,1.2-1.2,1.2C51.6,165.9,51,165.4,51,164.7z
						 M52,164.7c0,0.2,0.1,0.3,0.3,0.3c0.1,0,0.3-0.1,0.3-0.3s-0.1-0.3-0.3-0.3C52.1,164.4,52,164.6,52,164.7z"/>
					<path class="st1" d="M51,149c0-0.7,0.5-1.2,1.2-1.2s1.2,0.6,1.2,1.2c0,0.7-0.6,1.2-1.2,1.2C51.6,150.2,51,149.7,51,149z
						 M52,149c0,0.1,0.1,0.3,0.3,0.3c0.1,0,0.3-0.1,0.3-0.3s-0.1-0.3-0.3-0.3C52.1,148.8,52,148.9,52,149z"/>
					<path d="M52.3,163.5c-0.7,0-1.2,0.5-1.2,1.2s0.5,1.2,1.2,1.2s1.2-0.5,1.2-1.2C53.5,164,52.9,163.5,52.3,163.5z M50.5,164.7
						c0-1,0.8-1.8,1.8-1.8s1.8,0.8,1.8,1.8s-0.8,1.8-1.8,1.8S50.5,165.7,50.5,164.7z"/>
					<path d="M52.3,132.1c-0.7,0-1.2,0.6-1.2,1.2s0.5,1.2,1.2,1.2s1.2-0.6,1.2-1.2S52.9,132.1,52.3,132.1z M50.5,133.3
						c0-1,0.8-1.8,1.8-1.8s1.8,0.8,1.8,1.8s-0.8,1.8-1.8,1.8S50.5,134.3,50.5,133.3z"/>
					<path d="M52.3,116.8c-0.7,0-1.2,0.6-1.2,1.2c0,0.7,0.5,1.2,1.2,1.2s1.2-0.5,1.2-1.2C53.5,117.4,52.9,116.8,52.3,116.8z
						 M50.5,118.1c0-1,0.8-1.8,1.8-1.8s1.8,0.8,1.8,1.8s-0.8,1.8-1.8,1.8S50.5,119,50.5,118.1z"/>
					<path d="M52.3,147.8c-0.7,0-1.2,0.6-1.2,1.2c0,0.7,0.5,1.2,1.2,1.2s1.2-0.6,1.2-1.2C53.5,148.4,52.9,147.8,52.3,147.8z
						 M50.5,149c0-1,0.8-1.8,1.8-1.8s1.8,0.8,1.8,1.8s-0.8,1.8-1.8,1.8S50.5,150,50.5,149z"/>
					<ellipse class="st4" cx="50.4" cy="188.1" rx="2.5" ry="2.5"/>
					<path d="M50.4,191c-1.6,0-2.9-1.3-2.9-2.9c0-1.6,1.3-2.9,2.9-2.9c1.6,0,2.9,1.3,2.9,2.9S52,191,50.4,191z M47.9,188.1
						c0,1.4,1.1,2.5,2.5,2.5s2.5-1.1,2.5-2.5s-1.1-2.5-2.5-2.5S47.9,186.7,47.9,188.1z"/>
					<path d="M50.4,185.2c-1.6,0-2.9,1.3-2.9,2.9c0,1.6,1.3,2.9,2.9,2.9c1.6,0,2.9-1.3,2.9-2.9S52,185.2,50.4,185.2z M47.2,188.1
						c0-1.8,1.5-3.3,3.3-3.3s3.3,1.5,3.3,3.3s-1.5,3.3-3.3,3.3S47.2,189.9,47.2,188.1z"/>
					<rect x="32.9" y="163.5" width="14.4" height="3"/>
					<rect x="32.9" y="147.8" width="14.4" height="3"/>
					<rect x="32.9" y="132.1" width="14.4" height="3"/>
					<rect x="32.9" y="116.8" width="14.4" height="3"/>
					<polygon points="44.2,85.6 44.5,86 44.4,86.1 44.2,86.1 					"/>
					<polygon points="44.4,86.1 21.3,100.3 20.3,100.3 44.2,85.6 44.2,86.1 					"/>
					<polygon points="43.9,85.1 44.2,85.6 20.3,100.3 19.4,100.3 					"/>
					<path class="st0" d="M68.8,96.5H31.6v1h37.1v-1H68.8z M75.1,92.7H38v1h37.1V92.7z M46,90.2h37.1v-1H46V90.2z M74.9,100.3H21.3
						l23.1-14.2H98L74.9,100.3z"/>
					<path class="st1" d="M60,162.9c-1,0-1.8,0.8-1.8,1.8s0.8,1.8,1.8,1.8s1.8-0.8,1.8-1.8C61.8,163.7,61,162.9,60,162.9z
						 M52.3,162.9c-1,0-1.8,0.8-1.8,1.8s0.8,1.8,1.8,1.8s1.8-0.8,1.8-1.8C54,163.7,53.2,162.9,52.3,162.9z M32.9,166.5h14.4v-3H32.9
						V166.5z M31.6,168.8l-4.6-3.2v-4.4h40.7v3.6l-4.7,4.1H31.6V168.8z"/>
					<path class="st1" d="M60,147.2c-1,0-1.8,0.8-1.8,1.8s0.8,1.8,1.8,1.8s1.8-0.8,1.8-1.8S61,147.2,60,147.2z M52.3,147.2
						c-1,0-1.8,0.8-1.8,1.8s0.8,1.8,1.8,1.8s1.8-0.8,1.8-1.8S53.2,147.2,52.3,147.2z M32.9,150.8h14.4v-3H32.9V150.8z M31.6,153.1
						l-4.6-3.2v-4.4h40.7v3.6l-4.7,4.1H31.6V153.1z"/>
					<path class="st1" d="M60,131.6c-1,0-1.8,0.8-1.8,1.8s0.8,1.8,1.8,1.8s1.8-0.8,1.8-1.8C61.8,132.4,61,131.6,60,131.6z
						 M52.3,131.6c-1,0-1.8,0.8-1.8,1.8s0.8,1.8,1.8,1.8s1.8-0.8,1.8-1.8C54,132.4,53.2,131.6,52.3,131.6z M32.9,135.1h14.4v-3H32.9
						V135.1z M31.6,137.4l-4.6-3.2v-4.4h40.7v3.6l-4.7,4.1H31.6V137.4z"/>
					<path class="st1" d="M60,116.3c-1,0-1.8,0.8-1.8,1.8s0.8,1.8,1.8,1.8s1.8-0.8,1.8-1.8C61.8,117.1,61,116.3,60,116.3z
						 M52.3,116.3c-1,0-1.8,0.8-1.8,1.8s0.8,1.8,1.8,1.8s1.8-0.8,1.8-1.8C54,117.1,53.2,116.3,52.3,116.3z M32.9,119.8h14.4v-3H32.9
						V119.8z M31.6,122.2L27,119v-4.4h40.7v3.6l-4.7,4.1L31.6,122.2L31.6,122.2z"/>
					<path d="M27,114.5v4.4l4.6,3.2H63l4.7-4.1v-3.6L27,114.5L27,114.5z M26.5,114h41.7v4.3l-5,4.3H31.4l-5-3.5V114H26.5z"/>
					<path d="M27,129.8v4.4l4.6,3.2H63l4.7-4.1v-3.6H27V129.8z M31.4,137.9l-5-3.5v-5.2h41.7v4.3l-5,4.3L31.4,137.9L31.4,137.9z"/>
					<path d="M27,145.4v4.4l4.6,3.2H63l4.7-4.1v-3.6H27V145.4z M31.4,153.6l-5-3.5v-5.2h41.7v4.3l-5,4.3L31.4,153.6L31.4,153.6z"/>
					<path d="M27,161.1v4.4l4.6,3.2H63l4.7-4.1V161H27V161.1z M31.4,169.3l-5-3.5v-5.2h41.7v4.3l-5,4.3L31.4,169.3L31.4,169.3z"/>
					<path d="M26.5,114v5.2l5,3.5h31.7l5-4.3V114H26.5z M26,113.5h42.7v5.1l-5.3,4.6H31.3l-5.3-3.7C26,119.5,26,113.5,26,113.5z"/>
					<path d="M26.5,129.2v5.2l5,3.5h31.7l5-4.3v-4.3L26.5,129.2L26.5,129.2z M26,128.8h42.7v5.1l-5.3,4.6H31.3l-5.3-3.7
						C26,134.8,26,128.8,26,128.8z"/>
					<path d="M26.5,144.9v5.2l5,3.5h31.7l5-4.3V145L26.5,144.9L26.5,144.9z M26,144.4h42.7v5.1l-5.3,4.6H31.3l-5.3-3.7
						C26,150.4,26,144.4,26,144.4z"/>
					<path d="M26.5,160.6v5.2l5,3.5h31.7l5-4.3v-4.3L26.5,160.6L26.5,160.6z M26,160.1h42.7v5.1l-5.3,4.6H31.3l-5.3-3.7
						C26,166.1,26,160.1,26,160.1z"/>
					<polygon points="21.3,100.3 20.5,100.8 19.5,100.8 20.3,100.3 					"/>
					<polygon points="20.5,100.8 19.8,101.2 19.5,100.8 					"/>
					<polygon points="20.3,100.3 19.5,100.8 19.3,100.4 19.4,100.3 					"/>
					<path d="M19.8,101.2l0.7-0.4h54.6V195l-0.3,0.2l0.2,0.4H19.5v-94.8L19.8,101.2z M20,195.1h54.6v-93.8H20V195.1z"/>
					<polygon points="19.5,195.6 75.1,195.6 75.3,196 75.6,195.9 75.6,196.1 19,196.1 19,100.3 19.4,100.3 19.3,100.4 19.5,100.8 
											"/>
				</g>
			</g>
		</g>
	</g>
</g>
<g>
	<g>
		<g>
			<g>
				<path d="M82.8,73.9c1.3-2.2,2.7-4.4,4.2-6.5c0.3-0.5,0.7-0.9,1-1.4c0.1-0.1,0.9-1.1,0.2-0.3c0.2-0.2,0.3-0.4,0.5-0.6
					c0.9-1.1,1.7-2.1,2.7-3.2c3.3-3.8,7-7.3,10.9-10.4c0.1-0.1,1.1-0.9,0.3-0.2c0.2-0.2,0.4-0.3,0.6-0.5c0.5-0.4,1-0.8,1.5-1.1
					c1.1-0.8,2.2-1.5,3.3-2.3c2.2-1.4,4.4-2.7,6.7-4c2.2-1.2,4.5-2.3,6.8-3.3c-0.8,0.4-0.2,0.1,0,0c0.4-0.1,0.7-0.3,1.1-0.4
					c0.5-0.2,1.1-0.4,1.6-0.6c1.2-0.5,2.5-0.9,3.8-1.3c2.4-0.8,4.9-1.4,7.3-2c1.2-0.3,2.5-0.5,3.7-0.8c0.6-0.1,1.2-0.2,1.9-0.3
					c0.3,0,0.5-0.1,0.8-0.1c0.9-0.1-0.7,0.1,0.5-0.1c5.2-0.6,10.5-0.8,15.7-0.4c1.3,0.1,2.6,0.2,3.9,0.4c0.3,0,0.5,0.1,0.8,0.1
					c1.3,0.2-0.6-0.1,0.2,0c0.7,0.1,1.4,0.2,2.1,0.3c2.6,0.4,5.2,1,7.8,1.7s5.1,1.5,7.6,2.4c1.1,0.4,2.2,0.8,3.3,1.3
					c0.1,0,1.3,0.6,0.4,0.2c0.2,0.1,0.5,0.2,0.7,0.3c0.7,0.3,1.4,0.6,2.1,1c5.3,2.5,10.3,5.5,15,9c0.1,0.1,1.1,0.9,0.3,0.2
					c0.3,0.2,0.6,0.5,0.9,0.7c0.6,0.4,1.1,0.9,1.6,1.4c1.1,1,2.2,2,3.3,3c2.2,2,4.2,4.2,6.1,6.5c2.6,3,7.8,0.5,7.7-3.2
					c-0.3-13.8-0.7-27.7-1-41.5c-0.1-2.4-2-4.6-4.5-4.5c-2.4,0.1-4.6,2-4.5,4.5c0.3,13.8,0.7,27.7,1,41.5c2.6-1.1,5.1-2.1,7.7-3.2
					c-14.7-17.3-36.3-28-58.7-30.6c-21.7-2.5-44.2,3.7-61.8,16.6c-10,7.3-18.5,16.4-24.8,27.1c-1.2,2-0.5,5,1.6,6.2
					C78.8,76.6,81.5,76.1,82.8,73.9L82.8,73.9z"/>
			</g>
		</g>
	</g>
</g>
<g>
	<g>
		<g>
			<path d="M219.2,55.5c-15.9-8.9-35.9-10.3-52.8-3.3c-2.2,0.9-4,3-3.1,5.5c0.7,2.1,3.2,4.1,5.5,3.1c3.8-1.6,7.8-2.7,11.8-3.4
				c0.5-0.1,1.1-0.2,1.6-0.3c-1,0.1,0.7-0.1,0.8-0.1c1-0.1,1.9-0.2,2.9-0.2c2.1-0.1,4.3-0.1,6.4,0c1,0.1,2.1,0.1,3.1,0.3
				c0.2,0,1.9,0.2,0.8,0.1c0.5,0.1,1,0.1,1.4,0.2c2,0.3,4,0.8,6,1.4c2,0.6,3.9,1.3,5.8,2c0.3,0.1,0.3,0.1-0.1-0.1
				c0.3,0.1,0.5,0.2,0.8,0.3c0.5,0.2,1,0.5,1.5,0.7c1,0.5,2,1,2.9,1.5c2.1,1.1,5,0.6,6.2-1.6C221.9,59.5,221.4,56.7,219.2,55.5
				L219.2,55.5z"/>
		</g>
	</g>
</g>
<g>
	<g>
		<g>
			<g>
				<path class="st5" d="M80.2,72.4c10.3-17.7,27.4-31,46.8-37.3c20.1-6.5,42.1-4.8,61.1,4.2c10.7,5.1,20.3,12.2,28,21.3
					c0.9,1,2.6,0.2,2.6-1.1c-0.3-13.8-0.7-27.7-1-41.5c0-1.9-3-1.9-3,0c0.3,13.8,0.7,27.7,1,41.5c0.9-0.4,1.7-0.7,2.6-1.1
					c-14.2-16.7-34.9-27.2-56.6-29.8c-21.3-2.5-43,3.6-60.3,16.2c-9.6,7-17.7,15.8-23.7,26C76.7,72.5,79.2,74,80.2,72.4L80.2,72.4z"
					/>
			</g>
		</g>
	</g>
</g>
<g>
	<g>
		<g>
			<path class="st5" d="M217.7,58.1c-15.3-8.5-34.3-9.7-50.5-3c-1.8,0.7-1,3.6,0.8,2.9c15.4-6.4,33.5-5.4,48.1,2.7
				C217.9,61.6,219.4,59,217.7,58.1L217.7,58.1z"/>
		</g>
	</g>
</g>
<g>
	<g>
		<g>
			<g>
				<path d="M228.6,200.5c-1.3,2.7-2.8,5.3-4.4,7.9c-0.8,1.2-1.5,2.4-2.4,3.5c-0.4,0.6-0.9,1.2-1.3,1.8c-0.2,0.3-0.4,0.6-0.7,0.9
					c0.6-0.8-0.2,0.2-0.3,0.4c-3.7,4.7-7.9,9-12.5,12.9c-0.5,0.4-1,0.8-1.4,1.2c-0.3,0.2-0.6,0.5-0.9,0.7c-0.1,0.1-1.1,0.8-0.3,0.2
					c-1.3,1-2.6,1.9-3.9,2.8c-2.5,1.7-5,3.3-7.6,4.7s-5.3,2.8-8,4c-0.1,0.1-1.3,0.5-0.3,0.1c-0.2,0.1-0.5,0.2-0.7,0.3
					c-0.7,0.3-1.4,0.6-2.1,0.8c-1.5,0.6-3,1.1-4.6,1.6c-2.8,0.9-5.7,1.7-8.6,2.3c-1.3,0.3-2.7,0.5-4,0.8c-0.7,0.1-1.5,0.2-2.2,0.3
					c1.1-0.2-0.1,0-0.3,0c-0.5,0.1-1,0.1-1.5,0.2c-6,0.6-12.2,0.6-18.2-0.1c-0.4,0-0.8-0.1-1.1-0.1c-0.2,0-1.4-0.2-0.3,0
					c-0.6-0.1-1.3-0.2-1.9-0.3c-1.6-0.3-3.3-0.6-4.9-0.9c-3-0.6-5.9-1.4-8.8-2.4c-1.3-0.4-2.6-0.9-4-1.4c-0.7-0.3-1.4-0.5-2.1-0.8
					c-0.4-0.1-0.7-0.3-1.1-0.4c-0.5-0.2-0.5-0.2,0,0c-0.2-0.1-0.5-0.2-0.7-0.3c-2.8-1.2-5.5-2.6-8.2-4c-3-1.7-5.9-3.5-8.7-5.5
					c-0.7-0.5-1.3-1-2-1.5c-0.3-0.2-0.5-0.4-0.8-0.6c0.8,0.6-0.4-0.4-0.6-0.5c-1.4-1.1-2.7-2.2-4-3.4c-2.5-2.3-4.9-4.7-7.2-7.2
					c-1.1-1.2-2.1-2.5-3.1-3.8c0.6,0.8-0.1-0.2-0.2-0.3c-0.3-0.4-0.6-0.8-0.9-1.2c-0.5-0.7-1-1.4-1.5-2.2c-1.3-1.9-3.5-2.7-5.6-1.8
					s-3.1,3.1-2.6,5.3c3.8,17.1,7.5,34.3,11.3,51.4c0.5,2.3,3.3,3.9,5.5,3.1c2.4-0.8,3.7-3.1,3.1-5.5c-3.8-17.1-7.5-34.3-11.3-51.4
					c-2.7,1.2-5.5,2.3-8.2,3.5c14.6,21.5,38.4,36.3,64,40.4c12.9,2.1,26,1.5,38.7-1.8c12.1-3.2,23.6-8.9,33.6-16.5
					c11.4-8.7,21-19.8,27.4-32.7c1-2.1,0.6-5-1.6-6.2C232.7,197.8,229.7,198.2,228.6,200.5L228.6,200.5z"/>
			</g>
		</g>
	</g>
</g>
<g>
	<g>
		<g>
			<g>
				<path d="M75.4,217.1c16.6,4.9,34.1,5.7,51,2.6c2.3-0.4,3.8-3.4,3.1-5.5c-0.8-2.5-3-3.6-5.5-3.1c-1.1,0.2-2.2,0.4-3.2,0.5
					c-0.1,0-1.4,0.2-0.7,0.1c-0.5,0.1-0.9,0.1-1.4,0.2c-2,0.2-4,0.4-6.1,0.5c-4,0.2-8,0.2-11.9,0c-1.9-0.1-3.9-0.3-5.8-0.5
					c-0.5-0.1-0.9-0.1-1.4-0.2c-0.6-0.1-0.6-0.1-0.2,0c-0.2,0-0.5-0.1-0.7-0.1c-1-0.1-2-0.3-3-0.5c-4-0.7-7.9-1.6-11.8-2.8
					c-2.3-0.7-5,0.8-5.5,3.1C71.7,213.9,73,216.4,75.4,217.1L75.4,217.1z"/>
			</g>
		</g>
	</g>
</g>
<g>
	<g>
		<g>
			<g>
				<path class="st5" d="M231.2,202c-10.6,21.5-30.4,37.9-53.1,45.2c-23.3,7.5-48.8,4.5-70.2-7.4c-11.9-6.6-22.4-15.9-30-27.1
					c-1-1.4-3.1-0.5-2.7,1.2c3.8,17.1,7.5,34.3,11.3,51.4c0.4,1.9,3.3,1.1,2.9-0.8c-3.8-17.1-7.5-34.3-11.3-51.4
					c-0.9,0.4-1.8,0.8-2.7,1.2c14.2,20.9,37.4,35.1,62.3,39c24.7,3.9,50.1-2.9,70-18.1c11-8.4,20.2-19.2,26.3-31.6
					C234.6,201.8,232.1,200.3,231.2,202L231.2,202z"/>
			</g>
		</g>
	</g>
</g>
<g>
	<g>
		<g>
			<g>
				<path class="st5" d="M76.2,214.2c16,4.7,33,5.6,49.4,2.6c1.9-0.3,1.1-3.2-0.8-2.9c-15.9,2.8-32.3,1.9-47.8-2.6
					C75.1,210.7,74.3,213.6,76.2,214.2L76.2,214.2z"/>
			</g>
		</g>
	</g>
</g>
<g id="XMLID_3_">
	<g>
		<g>
			<g>
				<path class="st6" d="M141.1,145.5v13.3c0,3.8-13,6.9-29,6.9s-29-3.1-29-6.9v-13.3c0,3.8,13,6.9,29,6.9S141.1,149.3,141.1,145.5z
					"/>
			</g>
		</g>
		<g>
			<g>
				<path class="st6" d="M141.1,131.9v13.7c0,3.8-13,6.9-29,6.9s-29-3.1-29-6.9v-13.7c0,3.8,13,6.9,29,6.9S141.1,135.7,141.1,131.9z
					"/>
			</g>
		</g>
		<g>
			<g>
				<path class="st6" d="M141.1,118v13.8c0,3.8-13,6.9-29,6.9s-29-3.1-29-6.9V118c0,3.8,13,6.9,29,6.9S141.1,121.8,141.1,118z"/>
			</g>
		</g>
		<g>
			<g>
				<path class="st6" d="M112,111.1c16,0,29,3.1,29,6.9s-13,6.9-29,6.9s-29-3.1-29-6.9S96,111.1,112,111.1z"/>
			</g>
		</g>
	</g>
	<g>
		<g>
			<g>
				<path d="M112.1,126.4c-10.5,0-30.5-1.8-30.5-8.4s20-8.4,30.5-8.4s30.5,1.8,30.5,8.4S122.6,126.4,112.1,126.4z M112.1,112.6
					c-18.1,0-27.5,3.8-27.5,5.4s9.4,5.4,27.5,5.4s27.5-3.8,27.5-5.4C139.6,116.4,130.2,112.6,112.1,112.6z"/>
			</g>
		</g>
		<g>
			<g>
				<path d="M112.1,167.2c-10.5,0-30.5-1.8-30.5-8.4h3c0,1.6,9.4,5.4,27.5,5.4s27.5-3.8,27.5-5.4h3
					C142.6,165.5,122.6,167.2,112.1,167.2z"/>
			</g>
		</g>
		<g>
			<g>
				<rect x="81.5" y="118" width="3" height="41.2"/>
			</g>
		</g>
		<g>
			<g>
				<rect x="139.6" y="117.1" width="3" height="43"/>
			</g>
		</g>
		<g>
			<g>
				<path d="M112.1,140.3c-10.5,0-30.5-1.8-30.5-8.4h3c0,1.6,9.4,5.4,27.5,5.4s27.5-3.8,27.5-5.4h3
					C142.6,138.6,122.6,140.3,112.1,140.3z"/>
			</g>
		</g>
		<g>
			<g>
				<path d="M112.1,153.9c-10.5,0-30.5-1.8-30.5-8.4h3c0,1.6,9.4,5.4,27.5,5.4s27.5-3.8,27.5-5.4h3
					C142.6,152.2,122.6,153.9,112.1,153.9z"/>
			</g>
		</g>
	</g>
</g>
<g>
	<path d="M200.9,114c-3.7,7.5-0.1,15.2,3.7,21.8c1.8,3.2,3.5,6.3,4.4,9.8c1,3.6,1.3,7.3,0.9,11.1c-0.1,1.6,1.5,3,3,3
		c1.7,0,2.9-1.4,3-3c0.6-7.6-1.2-15-4.9-21.6c-2.8-5.1-8-12-5-18.1c0.7-1.5,0.4-3.2-1.1-4.1C203.7,112.2,201.6,112.6,200.9,114
		L200.9,114z"/>
</g>
<g>
	<path d="M236.5,96.6c-7.4-1.4-15.1-0.4-21.9,3c-5.9,3.1-10.9,8-14,13.9c-0.8,1.4-0.4,3.3,1.1,4.1c1.4,0.8,3.3,0.4,4.1-1.1
		c5.6-10.5,17.4-16.5,29.2-14.2c1.6,0.3,3.2-0.4,3.7-2.1C239,98.9,238.1,97,236.5,96.6L236.5,96.6z"/>
</g>
<g>
	<path d="M235,102.2c5.2,1,10,3.9,12.9,8.4c3.1,5,3.7,11.1,1.8,16.6c-0.5,1.5,0.6,3.3,2.1,3.7c1.6,0.5,3.2-0.6,3.7-2.1
		c2.4-6.9,1.5-15-2.4-21.2c-3.7-5.8-9.7-9.9-16.4-11.2c-1.6-0.3-3.2,0.4-3.7,2.1C232.5,100,233.4,101.9,235,102.2L235,102.2z"/>
</g>
<g>
	<path d="M249.8,129.7c0.7,1.3,1.4,2.7,2.2,4c0.3,0.6,0.7,1.3,1,1.9c0.1,0.1,0.1,0.3,0.2,0.4c0.2,0.4,0,0.1,0-0.1
		c0.1,0.4,0.2,0.7,0.3,1.1c0-0.3-0.1-0.5-0.1-0.8c0,0.2,0,0.5,0,0.7c0-0.3,0.1-0.5,0.1-0.8c0,0.1-0.1,0.3-0.1,0.4
		c0,0.3,0.4-0.7,0.1-0.3c-0.2,0.4,0.5-0.5,0.2-0.2c0,0-0.2,0.2-0.2,0.2c0,0,0.7-0.4,0.3-0.2c-0.1,0-0.2,0.1-0.3,0.2
		c-0.3,0.2,0.7-0.2,0.3-0.1c-0.1,0-0.3,0.1-0.4,0.1c0.3,0,0.5-0.1,0.8-0.1c-0.2,0-0.4,0-0.6,0c0.3,0,0.5,0.1,0.8,0.1
		c-0.3,0-0.8-0.3,0.1,0.1c-0.8-0.3-1.5-0.5-2.3-0.3c-0.7,0.2-1.4,0.7-1.8,1.4c-0.7,1.3-0.5,3.4,1.1,4.1c0.9,0.4,1.7,0.7,2.7,0.6
		c0.9-0.1,1.9-0.3,2.7-0.8c1.7-1.1,2.8-2.9,2.5-4.9c-0.2-1.9-1.2-3.6-2.1-5.3c-0.8-1.4-1.5-2.9-2.3-4.3c-0.7-1.4-2.8-1.9-4.1-1.1
		C249.4,126.5,249,128.2,249.8,129.7L249.8,129.7z"/>
</g>
<g>
	<path d="M250,140.1c0.1,0.3,0.2,0.6,0.2,0.9c0-0.3-0.1-0.5-0.1-0.8c0,0.3,0,0.6,0,1c0-0.3,0.1-0.5,0.1-0.8c0,0.3-0.1,0.6-0.3,0.9
		c0.1-0.2,0.2-0.5,0.3-0.7c-0.1,0.3-0.3,0.6-0.5,0.8c0.2-0.2,0.3-0.4,0.5-0.6c-0.2,0.2-0.4,0.4-0.6,0.6c0.2-0.2,0.4-0.3,0.6-0.5
		c-0.1,0.1-0.3,0.2-0.4,0.3c-0.7,0.4-1.2,1.1-1.4,1.8c-0.1,0.4-0.1,0.8-0.1,1.2c0,0.4,0.1,0.8,0.4,1.1c0.4,0.6,1,1.2,1.8,1.4
		c0.8,0.2,1.6,0.1,2.3-0.3c0.6-0.3,1.2-0.8,1.6-1.3c0.3-0.3,0.6-0.7,0.8-1.1c0.2-0.4,0.4-0.9,0.6-1.3c0.2-0.6,0.3-1.4,0.3-2.1
		c0-0.7-0.1-1.4-0.4-2.1c-0.1-0.4-0.3-0.7-0.5-1c-0.2-0.3-0.5-0.6-0.8-0.8c-0.3-0.2-0.7-0.3-1.1-0.4c-0.4-0.1-0.8-0.1-1.2,0.1
		c-0.7,0.2-1.4,0.7-1.8,1.4c-0.1,0.2-0.2,0.5-0.3,0.7C249.9,139.1,249.9,139.6,250,140.1L250,140.1z"/>
</g>
<g>
	<path d="M233.7,168.2c0.3-1.1,0.7-2.2,1.2-3.2c-0.4,0.8,0.1-0.1,0.1-0.3c0.1-0.3,0.2-0.5,0.4-0.8c0.2-0.5,0.5-1,0.7-1.4
		c0.5-1,1.1-1.9,1.7-2.8c0.3-0.5,0.6-0.9,1-1.4c0.2-0.2,0.3-0.5,0.5-0.7c0.2-0.3,0.2-0.2-0.1,0.1c0.1-0.1,0.2-0.2,0.3-0.3
		c0.5-0.6,0.9-1.3,0.9-2.1c0-0.7-0.3-1.6-0.9-2.1c-1.1-1-3.2-1.3-4.2,0c-3.2,4-5.7,8.5-7.2,13.5c-0.5,1.5,0.6,3.3,2.1,3.7
		C231.7,170.7,233.2,169.8,233.7,168.2L233.7,168.2z"/>
</g>
<g>
	<path d="M238,157.5c1.9,0.2,3.9,0.5,5.8,0.7c2.2,0.2,4.4,0.3,6.5-0.6c1.8-0.8,3.3-2.7,3.7-4.6c0.6-2.4-0.1-4.7-1.7-6.5
		c-1-1.2-3.2-1.1-4.2,0c-1.2,1.3-1.1,3,0,4.2c-0.2-0.2-0.3-0.4-0.1,0c0.2,0.3,0.1,0.4,0-0.1c0,0.1,0.1,0.3,0.1,0.4
		c0,0.1,0.1,0.7,0.1,0.2c-0.1-0.5,0,0.1,0,0.2c0,0.1,0,0.3,0,0.4c0-0.2,0.1-0.6,0-0.1c0,0.1-0.2,0.5,0,0.1c0.2-0.6-0.5,0.8-0.2,0.3
		c0.2-0.4,0,0-0.1,0.1c-0.5,0.5,0.1-0.1,0.1,0c0.1,0.1-1,0.4-0.5,0.3c0.4-0.1-0.2,0-0.3,0.1c-0.1,0-0.7,0.2-0.3,0.1
		c0.4-0.1,0,0-0.2,0c-0.2,0-0.4,0-0.6,0c-0.3,0-0.7,0-1-0.1c-0.8-0.1-1.6-0.1-2.3-0.2c-1.6-0.2-3.2-0.4-4.8-0.6
		c-0.7-0.1-1.6,0.4-2.1,0.9c-0.5,0.5-0.9,1.4-0.9,2.1c0,0.8,0.3,1.6,0.9,2.1C236.5,157.2,237.2,157.4,238,157.5L238,157.5z"/>
</g>
<g>
	<path d="M248.8,145.5c0,0.1,0.1,0.1,0.1,0.2c-0.1-0.2-0.2-0.5-0.3-0.7c0.1,0.2,0.1,0.4,0.2,0.6c0-0.3-0.1-0.5-0.1-0.8
		c0,0.2,0,0.5,0,0.7c0-0.3,0.1-0.5,0.1-0.8c0,0.3-0.1,0.5-0.2,0.8c0.1-0.2,0.2-0.5,0.3-0.7c-0.1,0.2-0.2,0.4-0.4,0.6
		c0.2-0.2,0.3-0.4,0.5-0.6c-0.1,0.2-0.3,0.3-0.5,0.5c0.2-0.2,0.4-0.3,0.6-0.5c-0.1,0.1-0.2,0.2-0.4,0.2c-0.3,0.2-0.6,0.4-0.8,0.8
		c-0.3,0.3-0.4,0.6-0.5,1c-0.1,0.4-0.1,0.8-0.1,1.2c0,0.4,0.1,0.8,0.4,1.1c0.4,0.6,1,1.2,1.8,1.4c0.8,0.2,1.6,0.1,2.3-0.3
		c1.3-0.7,2.2-2,2.7-3.4c0.1-0.3,0.1-0.6,0.2-0.9c0-0.3,0.1-0.6,0.1-0.9c-0.1-0.9-0.3-1.7-0.7-2.5c-0.2-0.3-0.4-0.6-0.8-0.8
		c-0.3-0.3-0.6-0.4-1-0.5c-0.4-0.1-0.8-0.1-1.2-0.1c-0.4,0-0.8,0.1-1.1,0.4c-0.6,0.4-1.2,1-1.4,1.8c0,0.3-0.1,0.5-0.1,0.8
		C248.4,144.6,248.6,145.1,248.8,145.5L248.8,145.5z"/>
</g>
<g>
	<path d="M210.2,121.5c-0.1-0.3-0.1-0.5-0.1-0.8c0.1,0.9,0.1,1.1,0.1,0.4c0-0.4,0-0.8-0.1-1.2c0-0.5,0-1.1,0.1-1.6
		c0.1-1.2-0.3,1.3,0,0c0.2-0.9,0.4-1.8,0.7-2.7c0.1-0.2,0.1-0.4,0.2-0.6c0.2-0.4,0.1-0.2-0.2,0.5c-0.1-0.2,0.6-1.2,0.7-1.4
		c0.2-0.3,0.4-0.7,0.6-1c0.1-0.1,1.1-1.5,0.5-0.7c-0.6,0.8,0.4-0.5,0.6-0.6c0.3-0.3,0.5-0.6,0.8-0.9c0.4-0.4,0.8-0.7,1.2-1.1
		c0.9-0.8-1,0.7,0,0c0.8-0.5,1.5-1,2.4-1.5c0.4-0.2,0.7-0.3,1.1-0.5c0.6-0.3,0.5-0.2-0.3,0.1c0.2-0.1,0.5-0.2,0.7-0.3
		c0.8-0.3,1.6-0.6,2.5-0.8c0.4-0.1,2.2-0.8,2.5-0.5c-0.9,0.1-1,0.1-0.3,0.1c0.3,0,0.6-0.1,0.9-0.1c0.5,0,0.9,0,1.4-0.1
		c1.1,0,2.1,0,3.2,0.1c0.3,0,0.6,0.1,0.9,0.1c-0.8-0.1-0.9-0.1-0.5-0.1c0.5,0.1,1,0.2,1.6,0.3c2.1,0.4,4.1,1,6.1,1.8
		c2.9,1.1,6.7-1.2,7.4-4.2c0.8-3.4-1-6.2-4.2-7.4c-9.5-3.6-20.6-3.7-29.6,1.5c-9.2,5.3-14.3,15.6-12.2,26.1c0.6,3.1,4.4,5.1,7.4,4.2
		C209.3,127.8,210.9,124.8,210.2,121.5L210.2,121.5z"/>
</g>
<g>
	<path d="M236.6,107.9c0.1,0.1,1.3,0.9,1.3,0.9c-0.7-0.6-0.8-0.6-0.3-0.2c0.2,0.2,0.4,0.3,0.6,0.5c0.8,0.7,1.5,1.4,2.1,2.2
		c0.2,0.2,0.3,0.4,0.5,0.6c-0.5-0.7-0.6-0.8-0.3-0.3c0.3,0.4,0.6,0.8,0.8,1.3c0.3,0.4,0.5,0.9,0.7,1.3c0.1,0.2,0.2,0.5,0.3,0.7
		c0.3,0.6,0.2,0.5-0.1-0.4c-0.1,0.1,0.5,1.4,0.6,1.6c0.2,0.6,0.3,1.1,0.5,1.7c0.1,0.3,0.1,0.6,0.2,0.9c0.1,0.7,0.1,0.6,0-0.3
		c0.2,0.5,0.1,1.3,0.1,1.8c0,0.6,0,1.2,0,1.8c0,0.3,0,0.6-0.1,0.9c-0.1,0.7-0.1,0.6,0.1-0.3c0.1,1-0.5,2.5-0.8,3.4
		c-1,3,1.1,6.7,4.2,7.4c3.3,0.7,6.3-1,7.4-4.2c3.8-11.9-1.2-24.9-11.6-31.6c-2.6-1.7-6.7-0.6-8.2,2.2
		C232.8,102.7,233.7,106.1,236.6,107.9L236.6,107.9z"/>
</g>
<g>
	<path d="M201,127.2c1.5,2.8,2.9,5.5,4.2,8.4c0.1,0.3,0.3,0.6,0.4,0.9c0.6,1.4-0.3-0.7,0,0.1c0.3,0.7,0.6,1.4,0.8,2.2
		c0.5,1.4,1,2.9,1.3,4.4c0.4,1.4,0.7,2.8,0.9,4.2c0.1,0.4,0.1,0.7,0.2,1.1c0.1,0.8,0.2,0.7,0,0c0.2,0.7,0.2,1.5,0.2,2.3
		c0.2,3,0.2,6.1-0.1,9.1c-0.3,3.1,3,6.1,6,6c3.5-0.2,5.7-2.6,6-6c0.6-6.6,0-13.5-1.7-19.9c-1.7-6.6-4.8-12.7-8-18.7
		c-1.5-2.8-5.6-3.9-8.2-2.2C200.4,120.8,199.4,124.3,201,127.2L201,127.2z"/>
</g>
<g>
	<path d="M210.4,146.1c-0.8,4.3-1.5,8.5-2.3,12.8c-0.3,1.6-0.3,3.2,0.6,4.6c0.7,1.2,2.2,2.4,3.6,2.8c1.5,0.3,3.3,0.3,4.6-0.6
		c1.2-0.8,2.5-2.1,2.8-3.6c0.8-4.3,1.5-8.5,2.3-12.8c0.3-1.6,0.3-3.2-0.6-4.6c-0.7-1.2-2.2-2.4-3.6-2.8c-1.5-0.3-3.3-0.3-4.6,0.6
		C211.9,143.3,210.7,144.6,210.4,146.1L210.4,146.1z"/>
</g>
<g>
	<path d="M214.7,165.9c3.1,0,6.1-2.8,6-6c-0.1-3.3-2.6-6-6-6c-3.1,0-6.1,2.8-6,6C208.9,163.2,211.4,165.9,214.7,165.9L214.7,165.9z"
		/>
</g>
<g>
	<path d="M208.7,161.6c0.6,2.9,3.1,4.7,5.7,5.7c1.1,0.4,2.3,0.8,3.4,1.2c-0.5-0.2-1-0.4-1.4-0.6c2,0.9,3.9,2,5.7,3.3
		c-0.4-0.3-0.8-0.6-1.2-0.9c1.5,1.1,2.8,2.4,4,3.9c0.6,0.7,1.8,1.3,2.6,1.5c1.3,0.4,2.7,0.2,3.9-0.3c2.3-1,3.5-3,3.7-5.5
		c0.2-2.2,0.3-4.4,0.5-6.6c0.1-1.5-0.7-3.2-1.8-4.2c-1-1-2.7-1.8-4.2-1.8c-1.6,0.1-3.2,0.6-4.2,1.8c-1.1,1.2-1.6,2.6-1.8,4.2
		c-0.2,2.2-0.3,4.4-0.5,6.6c3.4-1.4,6.8-2.8,10.2-4.2c-2.1-2.4-4.6-4.5-7.2-6.2c-1.1-0.7-2.3-1.3-3.6-1.9c-1.6-0.7-3.3-1.2-5-1.9
		c0.5,0.2,1,0.4,1.4,0.6c-0.3-0.1-0.6-0.3-0.8-0.5c0.4,0.3,0.8,0.6,1.2,0.9c-0.1-0.1-0.3-0.2-0.4-0.4c0.3,0.4,0.6,0.8,0.9,1.2
		c-0.1-0.1-0.1-0.2-0.2-0.3c0.2,0.5,0.4,1,0.6,1.4c0-0.1-0.1-0.2-0.1-0.4c-0.3-1.4-1.5-2.9-2.8-3.6c-1.3-0.8-3.2-1.1-4.6-0.6
		c-1.5,0.5-2.9,1.4-3.6,2.8C208.5,158.5,208.3,160,208.7,161.6L208.7,161.6z"/>
</g>
<g>
	<path d="M213.7,162.6c2.3,1.4,4.5,2.9,6.8,4.3c1.7,1.1,3.7,2.1,5.8,2c2.3-0.1,4.4-1.2,5.9-2.8c3.7-4.1,7.1-8.5,10.6-12.7
		c1-1.3,1.8-2.6,1.8-4.2c0-1.5-0.7-3.2-1.8-4.2c-2.2-2-6.3-2.6-8.5,0c-3.1,3.7-6.2,7.4-9.3,11.1c-0.4,0.4-0.7,0.9-1.1,1.3
		c-0.1,0.2-0.3,0.3-0.4,0.5c-0.2,0.2-0.1,0.2,0.2-0.2c0.2-0.2,0.5-0.4,0.8-0.4c0.9-0.3,2.1-0.3,3,0c0.8,0.2,0.1,0-0.1-0.1
		c-0.5-0.3-1.1-0.7-1.6-1c-2-1.3-4-2.6-6.1-3.9c-2.7-1.7-6.7-0.6-8.2,2.2C210,157.3,210.9,160.8,213.7,162.6L213.7,162.6z"/>
</g>
<g>
	<path d="M248,131.9c0.9-1.2,1.7-2.5,2.3-3.8c0.8-1.8,1.6-3.6,2-5.5c0.4-1.5,0.2-3.2-0.6-4.6c-0.4-0.7-0.9-1.3-1.5-1.7
		c-0.6-0.5-1.3-0.9-2-1.1c-1.5-0.3-3.3-0.3-4.6,0.6c-1.3,0.8-2.4,2.1-2.8,3.6c-0.3,1.2-0.6,2.3-1.1,3.4c0.2-0.5,0.4-1,0.6-1.4
		c-0.7,1.6-1.5,3.1-2.6,4.5c-0.4,0.7-0.7,1.4-0.7,2.2c-0.2,0.8-0.1,1.6,0.1,2.4c0.2,0.8,0.5,1.5,1.1,2c0.4,0.7,1,1.2,1.7,1.5
		c1.4,0.7,3.1,1.1,4.6,0.6c0.5-0.2,1-0.4,1.4-0.6C246.8,133.5,247.5,132.8,248,131.9L248,131.9z"/>
</g>
<g>
	<path d="M239.7,126.8c-0.1,0.3-0.2,0.6-0.4,0.9c-0.5,1.3-0.1,3.5,0.6,4.6c0.7,1.1,1.6,1.9,2.9,2.5c2.6,1.1,6.2,0.2,7.5-2.5
		c4.3-9,2.8-19.6-4.1-26.8c-6.4-6.7-16.2-9.1-25.1-7c-9.4,2.2-18.4,9.8-18.5,20c-0.1,4.9,2.4,8.9,5,12.9c0.5,0.8,1.1,1.6,1.6,2.5
		c0.3,0.4,0.5,0.9,0.7,1.4c0.1,0.2,0.2,0.4,0.3,0.6c0.5,1.1-0.1,0.2,0,0c-0.1,0.1,0.5,1.3,0.5,1.4c0.2,0.5,0.3,1,0.5,1.5
		c0.3,1.1,0.5,2.1,0.7,3.2c0,0.2,0,0.5,0.1,0.6c0-0.2-0.1-0.5-0.1-0.7c0,0.2,0,0.4,0.1,0.7c0.1,0.6,0.1,1.3,0.1,1.9
		c0.1,1.5,0.2,2.9,0.4,4.4c0.3,2.6,1.1,5.3,2.7,7.4c1.8,2.5,4.2,4.5,7.3,5.1c3.6,0.6,6.9-0.1,9.6-2.7c-3.4-1.4-6.8-2.8-10.2-4.2
		c0,0.2-0.1,0.7,0,0.8c0,0,0.2-1.3,0.1-0.6c0,0.1,0,0.1,0,0.2c0.1-0.6,0.5-1.1,1-1.5c0.2-0.2,0.5-0.5,0.7-0.7
		c1.1-0.1,2.3-0.3,3.4-0.4c1.1,0.2,1.9,1,2.5,1.9c-0.4-0.6,0.4,0.1,0.2,0.6c0-0.1-0.1-0.4-0.1-0.5c-0.1-0.7,0.1,1.6,0.1,0.5
		c0-0.9,0-1.8,0-2.7c0-0.4,0.1-0.9,0.1-1.3c0-0.2,0.1-1.1,0-0.2c-0.1,1,0,0.1,0-0.1c0.3-1.9,0.8-3.7,1.5-5.5c0.1-0.3,0.6-1,0.5-1.2
		c0,0.1-0.6,1.4-0.1,0.4c0.1-0.2,0.2-0.3,0.2-0.5c0.4-0.9,0.9-1.7,1.3-2.5c0.5-0.8,1-1.6,1.6-2.4c0.8-1.1-0.6,0.6,0.1-0.2
		c0.3-0.4,0.6-0.8,1-1.2c0.6-0.7,1.2-1.3,1.9-1.9c0.3-0.3,0.7-0.6,1-0.9c0.2-0.2,0.4-0.3,0.6-0.5c0.4-0.3,1-0.5-0.2,0.1
		c0.4-0.2,0.7-0.5,1.1-0.8c0.2-0.1,0.3-0.2,0.5-0.3c-2.1-0.6-4.1-1.3-6.2-1.9c-0.2-0.8-0.4-1.5-0.6-2.3c0,0.2-0.1,0.8,0.1-0.2
		c0.1-1,0.1-0.3-0.1-0.1c-0.2,0.5-0.4,1-0.6,1.6c-0.9,2.3-1.9,4.6-2.8,6.9c-2.1,5.1-4.2,10.2-6.2,15.3c3.9,1.1,7.7,2.1,11.6,3.2
		c3.1-8.3,6.2-16.6,9.4-24.9c1.5-4,3.1-8.2,2.7-12.6c-0.4-4.7-2.4-9.3-6-12.4c-3.5-3.1-8-5-12.7-5c-4.7,0-9.2,1.9-13.3,4.2
		c-3.4,2-7.2,4.5-8.8,8.2c-1.2,2.8-1.6,5.8-0.7,8.8c0.8,2.6,2.2,4.7,3.9,6.8c0.6,0.8,1.3,1.6,2,2.3c0.1,0.2,0.4,0.5,0.5,0.6
		c-0.2-0.1-0.7-0.9-0.2-0.2c0.3,0.4,0.5,0.8,0.8,1.2c0.1,0.2,0.2,0.4,0.3,0.5c0.6,1.1-0.2-0.8-0.1-0.1c0,0.2,0.2,1.4,0.4,1.5
		c0,0-0.1-1.2-0.1-0.5c0,0.4,0.1,0.7,0.1,1.1c0,0.5,0,1,0,1.5c0,4.9,0.4,10.3,4.4,13.8c2.3,2,6.2,2.6,8.5,0c1.3-1.5,2.6-3,3.9-4.5
		c-3.4-1.4-6.8-2.8-10.2-4.2c-0.2,3.5-0.5,6.9-0.7,10.4c-0.2,3,2.4,5.5,5.2,5.9c2.7,0.4,6.1-1.3,6.6-4.3c0.5-3.2,1.3-6.4,2.4-9.5
		c0.2-0.7,0.5-1.4,0.8-2.1c0.1-0.2,0.6-1.7,0.1-0.2c0.1-0.4,0.4-0.8,0.5-1.2c0.7-1.5,1.4-2.9,2.2-4.4c-3.7-0.5-7.3-1-11-1.4
		c-0.3-1.6-0.1-0.6,0-0.2c0,0.3,0,0.7,0,1c0,0.2-0.1,1.4,0,0.4c0.1-1-0.1,0.2-0.1,0.4c-0.1,0.3-0.2,0.5-0.2,0.8
		c-0.3,1.2,0.4-0.7,0.1-0.1c-0.2,0.3-0.3,0.6-0.5,0.9c-0.2,0.3-1,1.3,0,0.1c3.3,1.9,6.7,3.9,10,5.8c3-8.7,6.1-17.4,9.1-26.1
		c1-2.8-0.9-6-3.5-7.1c-2.5-1.1-6.3-0.3-7.5,2.5c-1.8,4.1-3.7,8.1-5.6,12.1c-1,2-2,4-3,5.9c-0.5,1-1,2-1.6,2.9
		c-0.2,0.4-0.5,0.8-0.6,1.2c-0.3,0.5-0.3,0.5,0.2-0.2c1.6-1.3,3.3-1.5,5.1-0.7c0.7,0.7,1.4,1.4,2.2,2.2c0.1,0.7,0.3,1.4,0.4,2
		c0-0.1,0-0.3,0-0.4c0-0.2,0.2-1.4,0-0.4c-0.1,0.9,0,0,0-0.2c0-0.3,0.1-0.5,0.1-0.8c0.2-1.1,0.5-2.2,0.8-3.3c0.3-1.1,0.7-2.2,1-3.2
		c0.1-0.3,0.2-0.6,0.4-0.9c0.3-0.7,0,0-0.1,0.3c0.3-0.5,0.5-1.1,0.8-1.6c1-2,2.2-4,3.5-5.8c0.2-0.2,0.3-0.4,0.5-0.6
		c0.5-0.6-0.7,0.9-0.2,0.3c0.4-0.5,0.8-0.9,1.2-1.4c0.8-0.9,1.6-1.8,2.5-2.6c-2.8-2.8-5.7-5.7-8.5-8.5c-5.9,6.6-10.9,14-14.5,22.1
		c3.7,1,7.5,2,11.2,3c-0.1-1-0.2-2-0.1-3c0-0.3,0-0.6,0.1-0.9c-0.1,0.9-0.1,1,0,0.3c0.1-0.4,0.2-0.9,0.3-1.3
		c0.1-0.6,0.3-1.1,0.5-1.7c0.1-0.3,0.5-1.7,0-0.2c0.3-0.9,0.9-1.9,1.4-2.7c0.5-0.9,1.1-1.8,1.7-2.6c0.1-0.2,1-1.5,0.1-0.2
		c0.3-0.5,0.8-0.9,1.1-1.4c1.4-1.6,2.8-3.2,4.2-4.7c2.1-2.3,2.4-6.2,0-8.5c-2.6-2.4-5.9-2.2-8.5,0c-6.5,5.5-11.2,12.6-14.1,20.6
		c3.9,0.5,7.9,1.1,11.8,1.6c0-0.5,0-0.9,0.1-1.4c0-0.5,0.4-1.9,0-0.1c0.2-0.8,0.3-1.5,0.4-2.3c0.2-0.9,0.5-1.7,0.8-2.6
		c0.1-0.2,0.1-0.4,0.2-0.5c0.2-0.4,0.1-0.2-0.2,0.5c0,0,0.5-1.1,0.6-1.2c0.4-0.8,0.8-1.5,1.3-2.2c0.2-0.3,0.4-0.6,0.7-1
		c0.1-0.2,0.3-0.4,0.5-0.6c-0.5,0.6-0.6,0.8-0.3,0.5c1.2-1.3,2.4-2.6,3.7-3.7c1.1-0.9,1.8-2.9,1.8-4.2c-0.1-1.4-0.5-2.6-1.3-3.6
		c-1.9-2.5-5-2.9-7.7-1.5c-8,4-14.2,12.1-15.8,20.9c3.9,0.5,7.9,1.1,11.8,1.6c0-0.4,0-0.8,0.1-1.2c0-0.3,0-0.5,0.1-0.8
		c0,0.3-0.1,0.6-0.1,0.8c0.3-0.5,0.3-1.7,0.5-2.3c0.2-0.7,0.4-1.5,0.7-2.2c0.5-1.4,0.1,0,0,0c0,0,0.5-1.1,0.6-1.2
		c0.4-0.7,0.8-1.3,1.2-2c0.2-0.3,0.4-0.6,0.7-0.9c0.3-0.4,0.2-0.2-0.3,0.5c0.1-0.1,0.2-0.3,0.4-0.4c0.5-0.6,1-1.1,1.6-1.7
		c0.3-0.3,0.6-0.5,0.9-0.8c1.2-1-0.8,0.6,0.2-0.1c1.3-0.9,2.3-2,2.8-3.6c0.4-1.4,0.2-3.3-0.6-4.6c-1.8-2.8-5.3-3.8-8.2-2.2
		c-7.1,3.9-12.2,10.3-15,17.7c3.9,0.5,7.9,1.1,11.8,1.6c0-0.5-0.1-1,0-1.5c0-0.3,0-0.6,0.1-0.9c0-0.8-0.3,1.2-0.1,0.5
		c0.1-0.5,0.2-1,0.4-1.5c0.1-0.2,0.1-0.5,0.2-0.7c0.2-0.6,0.6-0.7-0.1,0.2c0.3-0.4,0.5-0.9,0.7-1.3c0.3-0.4,0.6-0.8,0.8-1.2
		c-0.1,0.3-0.8,0.9-0.2,0.3c0.2-0.2,0.4-0.5,0.6-0.7c0.4-0.4,0.8-0.8,1.3-1.1c1.1-0.8,1.8-2.9,1.8-4.2c-0.1-1.4-0.5-2.6-1.3-3.6
		c-1.7-2.2-5.3-3.3-7.7-1.5c-4,2.9-7.5,6.6-9.7,11c-0.8,1.6-1.4,3-1.5,4.8c-0.2,2.6,1.2,5,3.3,6.4c1.7,1.1,4,1.4,6,0.8
		c1.3-0.4,2.1-0.9,3.1-1.8c0.2-0.2,0.4-0.3,0.6-0.5c0.2-0.3,0.5-0.6,0.7-0.9c0.5-0.7,0.6-0.8,0.2-0.3c-0.7,0.6,0.4-0.3,0.5-0.5
		c0.7-0.7-0.2,0.3-0.4,0.3c0.1,0,0.5-0.3,0.6-0.4c0.5-0.3,0.6,0.1-0.4,0.2c0.2,0,0.4-0.1,0.5-0.2c0.2-0.1,0.5-0.1,0.7-0.2
		c0.7-0.2-1.4,0-0.3,0.1c0.2,0,0.6,0.1,0.7,0c-0.1,0-1.3-0.3-0.7-0.1c0.2,0.1,0.5,0.2,0.8,0.2c0.8,0.2-1-0.5-0.3-0.1
		c1,0.5,1.9,1.1,2.8,1.7c0.5,0.4-0.4-0.3-0.4-0.3c0.2,0.2,0.5,0.4,0.7,0.5c0.5,0.4,1,0.8,1.5,1.2c1,0.8,2,1.6,3,2.4
		c0.8,0.6,1.6,1.2,2.3,1.9c0.4,0.3,0.8,0.7,1.1,1.1c0.1,0.1,0.5,0.7,0,0c-0.7-0.9,0.2,0.3,0.2,0.3c0,0-0.6-1.4-0.2-0.4
		c0,0.1,0.1,0.3,0.1,0.4c-0.1-0.8-0.1-1-0.1-0.5c0,0,0,0.7,0,0.7c0.1-0.8,0.1-0.9,0-0.5c0,0.1-0.1,0.3-0.1,0.4
		c-0.3,1.3-0.8,2.6-1.2,3.8c-0.9,2.8-1.9,5.6-2.8,8.4c-0.9,2.8,0.9,6,3.5,7.1c2.8,1.2,5.9,0.1,7.5-2.5c2.2-3.4,3.9-7.2,5-11.1
		c0.5-1.8,0.9-3.5,1.2-5.3c0.2-1.2,0.4-2.5,0.5-3.8c0.1-1.2-0.4,1.1,0,0.1c-0.3,0.9-0.9,1.7-1.8,2.2c-1.6,0.7-3,0.8-4.4,0.1
		c-0.7-0.7-1.4-1.4-2.2-2.2c-1.7-2.2,0.9-5.8-0.4-3.5c-0.2,0.4-0.5,0.9-0.7,1.3c-0.5,0.9-1,1.7-1.5,2.6c-1,1.7-1.9,3.4-2.9,5.1
		c-1.5,2.7-0.7,6.7,2.2,8.2c2.8,1.5,6.6,0.8,8.2-2.2c1.9-3.4,4.1-6.7,5.7-10.2c0.9-1.9,1.2-3.8,0.6-5.8c-0.7-2.2-2.4-3.9-4.6-4.6
		c-3.3-1-7,0.4-8.7,3.4c-1.3,2.1-1.3,4.5-1.6,6.9c-0.1,0.5,0,0.3,0.1-0.5c0,0.2-0.1,0.4-0.1,0.6c-0.1,0.4-0.2,0.9-0.2,1.3
		c-0.2,0.9-0.4,1.7-0.6,2.5c-0.2,0.8-0.5,1.7-0.8,2.5c-0.1,0.4-0.3,0.8-0.5,1.2c-0.2,0.4-0.1,0.3,0.2-0.4c-0.1,0.2-0.2,0.4-0.3,0.6
		c-0.8,1.7-1.6,3.3-2.6,4.8c3.7,1.5,7.3,3.1,11,4.6c0.8-2.5,1.7-5,2.5-7.5c0.9-2.6,1.8-5.2,2-7.9c0.2-3.3-1.1-6.3-3.2-8.8
		c-1.4-1.6-3.2-2.8-4.9-4.1c-3.8-3-7.8-7-12.8-7.9c-3.1-0.5-6-0.1-8.8,1.3c-1.2,0.6-2.3,1.4-3.3,2.4c-0.6,0.6-1.2,1.4-1.7,2.1
		c0.6-0.7,0.6-0.8,0.2-0.3c1.5-1.3,3.2-1.6,5.2-0.7c0.7,0.7,1.4,1.4,2.2,2.2c0.5,1,0.6,2,0.4,3c0.2-0.6,0.1-0.5-0.2,0.4
		c0,0,0.7-1.3,0.7-1.4c0.5-0.8,1-2.1,1.8-2.7c-0.5,0.7-0.6,0.8-0.2,0.3c0.2-0.2,0.4-0.4,0.5-0.6c0.4-0.4,0.7-0.8,1.1-1.2
		c0.4-0.4,0.8-0.7,1.2-1.1c0.2-0.2,0.4-0.3,0.6-0.5c-0.7,0.5-0.8,0.6-0.2,0.2c-2.4-3.1-4.8-6.3-7.3-9.4c-4.8,3.8-7.6,10.3-7.2,16.4
		c0.2,3,2.1,5.5,5.2,5.9c3.1,0.4,5.5-1.5,6.6-4.3c0.1-0.2,0.2-0.5,0.3-0.7c-0.1,0.2-0.2,0.5-0.3,0.7c0.2-0.3,0.3-0.7,0.5-1
		c0.3-0.7,0.7-1.4,1.1-2c0.4-0.6,0.8-1.2,1.2-1.8c0.1-0.2,0.2-0.3,0.3-0.5c-0.5,0.7-0.6,0.8-0.3,0.5c0.2-0.3,0.5-0.6,0.7-0.9
		c1-1.1,2-2.1,3.2-3.1c1-0.9-1.1,0.8,0,0c0.3-0.2,0.6-0.4,0.9-0.7c0.6-0.4,1.3-0.8,2-1.2c-2-3.5-4-6.9-6.1-10.4
		c-7.3,5.3-11.9,13.5-12.1,22.6c-0.1,3,2.3,5.5,5.2,5.9c2.7,0.4,6.1-1.4,6.6-4.3c0.2-0.9,0.4-1.8,0.6-2.7c0.1-0.4,0.3-0.8,0.4-1.2
		c0.1-0.2,0.2-0.5,0.3-0.7c-0.4,0.9-0.4,1-0.2,0.4c0.4-0.8,0.8-1.5,1.2-2.3c0.2-0.3,0.4-0.6,0.6-0.9c0.2-0.2,0.8-0.9,0.8-1.2
		c-0.6,0.7-0.7,0.8-0.3,0.3c0.1-0.1,0.2-0.3,0.4-0.4c0.3-0.3,0.6-0.6,0.9-1c0.6-0.6,1.2-1.2,1.9-1.8c0.2-0.2,0.4-0.3,0.6-0.5
		c-0.7,0.6-0.8,0.6-0.3,0.3c0.3-0.2,0.6-0.4,0.9-0.6c0.8-0.5,1.7-1,2.6-1.5c-2.4-3.1-4.8-6.3-7.3-9.4c-6.9,5.5-10.9,14.3-11.1,23.1
		c-0.1,3,2.3,5.5,5.2,5.9c3.1,0.4,5.5-1.5,6.6-4.3c0.2-0.4,0.3-0.9,0.5-1.3c0.2-0.4,0.1-0.3-0.2,0.5c0.1-0.3,0.2-0.5,0.3-0.7
		c0.3-0.7,0.7-1.5,1.1-2.2c0.8-1.6,1.8-3.1,2.8-4.5c0.2-0.3,0.5-0.7,0.7-1c0.8-1.1-0.7,0.8,0.1-0.1c0.6-0.7,1.2-1.5,1.9-2.2
		c1.2-1.3,2.5-2.5,3.9-3.7c-2.8-2.8-5.7-5.7-8.5-8.5c-6.8,7.3-14.3,16.2-12.9,26.9c0.2,1.4,0.4,2.5,1.3,3.6c0.8,1,1.9,1.9,3.1,2.2
		c2.4,0.5,5.7-0.3,6.8-2.8c1.7-3.7,3.6-7.4,5.8-10.8c1.1-1.7,2.2-3.5,3.5-5c-1,1.1,0,0,0.1-0.2c0.4-0.5,0.7-0.9,1.1-1.4
		c0.7-0.8,1.3-1.6,2-2.3c2.1-2.3,2.5-6.2,0-8.5c-2.5-2.3-6-2.3-8.5,0c-6.2,5.8-10.7,13.5-12.8,21.7c-0.6,2.2-1,4.6-1.2,6.9
		c-0.3,4.2,3.2,8.2,7.6,7.9c2.1-0.2,4-1,5.4-2.6c1-1.1,1.7-2.4,2.4-3.7c1.1-2,2.1-4.1,3.2-6.1c2.4-4.7,4.6-9.4,6.7-14.2
		c-3.7-1.5-7.3-3.1-11-4.6c-3,8.7-6.1,17.4-9.1,26.1c-0.8,2.4,0.5,5.6,2.8,6.8c2.2,1.1,5.6,1.2,7.3-0.9c1.7-2.1,3-4.3,3.7-6.9
		c0.7-2.7,0.6-5.3,0.2-8c-0.4-2.3-2.9-4-5-4.3c-2.3-0.3-4.8,0.8-6,2.9c-3.5,6.3-6,13.1-7.2,20.2c3.9,0.5,7.9,1.1,11.8,1.6
		c0.2-3.5,0.5-6.9,0.7-10.4c0.3-5.1-6.9-8.1-10.2-4.2c-1.3,1.5-2.6,3-3.9,4.5c2.8,0,5.7,0,8.5,0c-0.2-0.1-0.6-0.7-0.8-0.7
		c0.2,0.2,0.3,0.4,0.5,0.7c-0.1-0.2-0.2-0.4-0.4-0.6c-0.6-1,0.3,1.3,0.1,0.1c-0.1-0.4-0.2-0.7-0.3-1c0-0.1,0-0.2-0.1-0.4
		c-0.1-0.6-0.1-0.5,0.1,0.5c0-0.1-0.1-0.6-0.1-0.7c-0.1-1,0-1.9,0-2.9c0-4.1-0.6-8.2-3.1-11.6c-1.2-1.6-2.4-3.1-3.7-4.5
		c-0.9-1,0.7,1.1-0.1-0.1c-0.2-0.3-0.4-0.6-0.6-0.9c-0.1-0.2-0.6-0.8-0.5-0.9c0.3,0.8,0.3,0.9,0.1,0.2c-0.1-0.3-0.2-0.5-0.2-0.8
		c0,0.3,0.1,0.5,0.1,0.8c0-0.3,0-0.6,0-0.8c0,0.3-0.1,0.5-0.1,0.8c0-0.2,0.1-0.5,0.2-0.7c-0.1,0.3-0.2,0.5-0.3,0.8
		c0.1-0.2,0.2-0.4,0.3-0.6c0.1-0.2,0.3-0.4,0.4-0.6c-0.7,1.3-0.4,0.5,0,0.1c0.3-0.3,0.5-0.5,0.8-0.7c1-0.9-1.1,0.7,0,0
		c0.4-0.3,0.8-0.6,1.2-0.8c1.4-0.8,2.7-1.7,4.2-2.4c0.3-0.1,1.6-0.9,0.2-0.1c0.4-0.2,0.8-0.3,1.2-0.5c0.5-0.2,2-0.9,2.5-0.7
		c-0.2,0-0.5,0.1-0.7,0.1c0.3,0,0.6-0.1,0.9-0.1c0.4,0,0.8,0,1.2,0c0.1,0,0.3,0,0.4,0c0.7,0.1,0.5,0-0.4-0.1
		c0.2,0.1,0.5,0.1,0.8,0.2c0.4,0.1,0.8,0.2,1.1,0.3c1.3,0.3-1.2-0.6,0,0c0.3,0.2,0.7,0.4,1,0.6c0.2,0.1,0.4,0.3,0.7,0.4
		c0.5,0.4,0.4,0.3-0.3-0.2c0.2-0.1,1.3,1.2,1.4,1.4c0.9,0.9-0.7-1.1,0,0c0.2,0.3,0.4,0.7,0.6,1c0.1,0.1,0.1,0.2,0.2,0.3
		c0.3,0.6,0.2,0.5-0.1-0.4c0.1,0,0.4,1,0.4,1.1c0.1,0.3,0.1,0.5,0.2,0.8c0.1,0.3,0.1,0.5,0.2,0.8c-0.1-0.9-0.1-1.1-0.1-0.4
		c0,0.4,0,0.8,0,1.2c0,0.3,0,1.9,0.1,0.2c0,0.8-0.3,1.7-0.5,2.4c-0.5,1.9-1.2,3.7-1.9,5.5c-3.1,8.2-6.2,16.4-9.3,24.6
		c-1.1,2.9,1.2,6.7,4.2,7.4c1.5,0.3,3.3,0.3,4.6-0.6c1.4-0.9,2.1-2.1,2.8-3.6c2.5-6,4.9-12,7.4-18.1c1.1-2.8,2.9-5.8,2.7-8.9
		c-0.2-3.1-2.1-5.9-5.1-6.8c-2.5-0.7-5,0.1-7,1.5c-9.6,6.7-15.6,17.6-16.1,29.4c-0.2,4.2,0.8,8.9,5.1,10.8c2.9,1.2,6.2,0.5,8.5-1.7
		c2-2,2.5-4.6,2.6-7.3c0.1-2.4-1.6-4.6-3.7-5.5c-2.3-1-4.8-0.4-6.6,1.2c-0.9,0.8,1.2-0.8,0.2-0.2c0.3-0.1,0.6-0.2,0.8-0.4
		c-0.6,0.1-0.4,0.1,0.6,0c-0.1,0-0.2,0-0.3,0c-0.6,0-0.4,0,0.6,0.1c-0.1-0.1-0.8-0.3-1-0.3c0.3,0.1,0.5,0.2,0.8,0.3
		c-0.2-0.1-0.4-0.2-0.6-0.3c0.2,0.2,0.4,0.3,0.6,0.5c-0.2-0.2-0.4-0.3-0.5-0.5c0.2,0.2,0.3,0.4,0.5,0.6c-0.1-0.2-0.3-0.4-0.4-0.6
		c-0.1-0.2-0.2-0.4-0.4-0.7c0.3,0.9,0.4,1,0.2,0.4c-0.2-0.6-0.3-1.2-0.5-1.8c-0.4-1.5,0.1,1.3-0.1-0.3c0-0.5-0.1-0.9-0.1-1.4
		c-0.2-2.4-0.3-4.7-0.7-7.1c-0.7-3.8-2.1-7.5-4-10.9c-0.8-1.3-1.7-2.6-2.5-3.9c-0.5-0.7-0.9-1.4-1.3-2.1c-0.2-0.4-0.4-0.7-0.6-1.1
		c-0.3-0.6-0.2-0.5,0.1,0.3c-0.1-0.3-0.2-0.5-0.3-0.8c0-0.1-0.4-1.2-0.3-1.2c0,0.3,0.1,0.5,0.1,0.8c0-0.3,0-0.5-0.1-0.8
		c0-0.1-0.1-1.2,0-1.2c0,0.3-0.1,0.5-0.1,0.8c0-0.3,0.1-0.5,0.2-0.8c0.1-0.3,0.1-0.5,0.2-0.8c0-0.1,0.1-0.3,0.1-0.4
		c0.2-0.6,0.2-0.5-0.1,0.3c0-0.2,0.5-0.9,0.6-1.1c0.1-0.2,0.3-0.5,0.4-0.7c0.4-0.5,0.3-0.4-0.2,0.3c0-0.4,1.3-1.4,1.6-1.7
		c0.1-0.1,0.7-0.8,0.9-0.8c-0.2,0.2-0.4,0.3-0.6,0.5c0.2-0.2,0.4-0.3,0.6-0.5c0.5-0.4,1.1-0.7,1.7-1c0.4-0.2,0.8-0.4,1.1-0.6
		c0.6-0.3,0.5-0.2-0.3,0.1c0.3-0.1,0.5-0.2,0.8-0.3c0.8-0.3,1.6-0.5,2.4-0.7c0.4-0.1,0.8-0.2,1.2-0.3c1.4-0.3-1.4,0.1,0.1,0
		c0.8-0.1,1.7-0.1,2.5-0.1c0.3,0,0.6,0,0.8,0c0.3,0,0.6,0,0.8,0.1c0.7,0.1,0.6,0.1-0.3-0.1c0.5-0.2,1.9,0.4,2.4,0.5
		c0.4,0.1,0.7,0.2,1.1,0.3c0.1,0,0.2,0.1,0.4,0.1c0.6,0.2,0.5,0.2-0.4-0.2c0.1,0.2,0.8,0.4,1,0.5c0.3,0.2,0.7,0.4,1,0.5
		c0.3,0.2,0.6,0.4,1,0.6c0.2,0.1,0.7,0.7,0.9,0.6c-0.2-0.2-0.4-0.3-0.6-0.5c0.2,0.2,0.4,0.3,0.6,0.5c0.4,0.3,0.7,0.7,1.1,1
		c0.3,0.3,0.5,0.5,0.8,0.8c0.2,0.2,0.3,0.4,0.5,0.6c-0.6-0.7-0.6-0.8-0.3-0.3c0.5,0.8,0.9,1.5,1.4,2.3c0.7,1.2-0.4-1.3,0.1,0.1
		c0.1,0.4,0.3,0.8,0.4,1.2c0.1,0.4,0.2,0.8,0.3,1.2c0.1,0.3,0.1,0.5,0.2,0.8c0.1,0.7,0.1,0.5,0-0.4c0.3,0.1,0.1,2.5,0.1,2.9
		c0,0.1,0,0.3,0,0.4c-0.1,0.7,0,0.5,0.1-0.4c0.1,0.1-0.3,1.4-0.3,1.6c-0.1,0.4-0.2,0.8-0.4,1.2c-0.1,0.3-0.2,0.5-0.3,0.8
		c0.3-0.8,0.4-0.9,0.1-0.3c3.7,1.5,7.3,3.1,11,4.6c0.1-0.3,0.2-0.6,0.4-0.9c0.5-1.4,0.1-3.4-0.6-4.6c-0.7-1.2-2.2-2.4-3.6-2.8
		C243.6,121.8,240.9,123.7,239.7,126.8L239.7,126.8z"/>
</g>
<g>
	<path d="M248.1,134.8c-2.3,1.3-5.9,0.3-6.4-2.5c-0.1-0.5,0-0.9-0.1-1.4c0-0.1,0-0.3,0.1-0.4c-0.2,0.5-0.1,0.5,0,0
		c0.4-0.9-0.3,0.4-0.4,0.6c-0.3,0.5-0.6,1-0.9,1.5c-1.2,1.9-2.4,3.9-3.6,5.8c-1.3,2.1-2.6,4.2-3.3,6.5c-0.8,2.9-0.5,6.3,1.4,8.8
		c2,2.7,4.9,4.5,8.3,4.6c2.8,0,5.8-1.1,7.7-3.2c3.5-3.9,1.9-9.6-2.8-11.6c-1.4-0.6-3-0.8-4.5-0.6c-0.1,0-0.1,0-0.2,0
		c0.5,0,1,0.1,1.5,0.4c0.5,0.2,0.9,0.5,1.2,0.8c2,1.8,1.6,6-0.6,7.2c-0.3,0.1-0.6,0.2-0.8,0.4c-0.9,0.1-1.1,0.1-0.6,0.1
		c3.8,0,7-1.6,9.1-4.7c1.7-2.5,2-5.6,2.1-8.5c0.1-2.4-1.6-4.6-3.7-5.5c-2.3-1-4.7-0.4-6.6,1.2c-1.4,1.2-2.8,2.5-4.2,3.7
		c3.3,1.9,6.7,3.9,10,5.8c1.6-3.9,3.1-7.9,4.7-11.8c-3.7,0.5-7.3,1-11,1.4c0.8,1.8,1.5,3.5,2.3,5.3c0.6,1.3,2.3,2.4,3.6,2.8
		c1.4,0.4,3.3,0.2,4.6-0.6c1.3-0.8,2.4-2.1,2.8-3.6c0.4-1.7,0.1-3.1-0.6-4.6c-0.8-1.8-1.5-3.5-2.3-5.3c-0.4-0.8-1.4-1.7-2.2-2.2
		c-1.2-0.7-2.5-0.9-3.8-0.7c-2.5,0.3-4.1,2-5,4.3c-1.6,3.9-3.1,7.9-4.7,11.8c-0.9,2.3,0.6,5.6,2.8,6.8c2.5,1.3,5.2,0.9,7.3-0.9
		c1.4-1.2,2.8-2.5,4.2-3.7c-3.4-1.4-6.8-2.8-10.2-4.2c0,0.5,0,0.9-0.1,1.4c0,0.2-0.1,0.4-0.1,0.6c0-1.4,0.2-0.9,0-0.5
		c-0.1,0.3-0.5,1.7-0.2,0.7c0.3-0.8,0.1-0.3,0-0.1c-0.5,0.9,0.7-0.6,0.2-0.3c-1,0.8,1-0.5,0.1-0.1c0.4-0.2,0.8-0.3,1.2-0.4
		c0.8-0.3,0.1,0-0.2,0c-1.7,0.1-3.5,0.3-5,1.2c-3.5,2.1-5,6.5-3,10.2c1.6,2.8,5.2,4.1,8.3,3.7c0.1,0,0.1,0,0.2,0
		c-2.5,0-3.3-1.5-2.4-4.3c-0.2-1.7,0.4-4.7-0.7-3.5c0.1-0.1,1.2-0.9,0.4-0.4c0,0,1.2-0.4,0.7-0.3c-1.4,0.1,1.2,0.1,0.1,0
		c0.1,0,1.5,0.4,0.6,0.1c0.2,0.1,1.2,0.6,0.5,0.2c-0.4-0.2-0.6-0.6,0.4,0.4c-0.2-0.2-0.5-0.6,0,0.1c0.5,0.7,0.2,0.2,0.1,0.1
		c-0.5-0.8,0.2,0.5,0.2,0.5c-0.1-0.2-0.1-0.8,0,0.1c0.2,1.2,0.3-0.7,0,0.5c-0.3,1.3,0.6-1.5,0.1-0.4c-0.4,0.8-0.1,0.1,0,0
		c0.1-0.2,0.2-0.5,0.4-0.7c0.2-0.4,0.5-0.8,0.7-1.2c0.6-0.9,1.1-1.9,1.7-2.8c1.1-1.8,2.1-3.5,3.2-5.3c1.9-3,3.1-6.3,1.6-9.8
		c-1.7-4.1-6.8-6-10.8-3.7c-2.7,1.6-3.9,5.5-2.2,8.2C241.6,135.4,245.2,136.5,248.1,134.8L248.1,134.8z"/>
</g>
<g>
	<path d="M238.8,152.1c1.5,1.4,3.1,2.7,4.6,4.1c0.5,0.6,1.2,1,1.9,1.2c0.7,0.4,1.5,0.5,2.3,0.5c0.8,0,1.6-0.1,2.3-0.5
		c0.7-0.2,1.4-0.7,1.9-1.2c0.3-0.4,0.6-0.8,0.9-1.2c0.5-0.9,0.8-1.9,0.8-3c-0.1-0.5-0.1-1.1-0.2-1.6c-0.3-1-0.8-1.9-1.5-2.6
		c-1.5-1.4-3.1-2.7-4.6-4.1c-0.5-0.6-1.2-1-1.9-1.2c-0.7-0.4-1.5-0.5-2.3-0.5c-0.8,0-1.6,0.1-2.3,0.5c-0.7,0.2-1.4,0.7-1.9,1.2
		c-0.3,0.4-0.6,0.8-0.9,1.2c-0.5,0.9-0.8,1.9-0.8,3c0.1,0.5,0.1,1.1,0.2,1.6C237.6,150.5,238.1,151.3,238.8,152.1L238.8,152.1z"/>
</g>
</svg>
